%TF.GenerationSoftware,KiCad,Pcbnew,9.0.7*%
%TF.CreationDate,2026-02-22T14:18:53+01:00*%
%TF.ProjectId,STM32 Nucleo RS232 & RS485 Expansion Board (ST Zio Compatible) V2,53544d33-3220-44e7-9563-6c656f205253,rev?*%
%TF.SameCoordinates,Original*%
%TF.FileFunction,Copper,L4,Bot*%
%TF.FilePolarity,Positive*%
%FSLAX46Y46*%
G04 Gerber Fmt 4.6, Leading zero omitted, Abs format (unit mm)*
G04 Created by KiCad (PCBNEW 9.0.7) date 2026-02-22 14:18:53*
%MOMM*%
%LPD*%
G01*
G04 APERTURE LIST*
%ADD10C,0.625000*%
%TA.AperFunction,ComponentPad*%
%ADD11C,2.400000*%
%TD*%
%TA.AperFunction,ComponentPad*%
%ADD12C,1.397000*%
%TD*%
%TA.AperFunction,ComponentPad*%
%ADD13C,1.950000*%
%TD*%
%TA.AperFunction,ComponentPad*%
%ADD14C,1.498600*%
%TD*%
%TA.AperFunction,ComponentPad*%
%ADD15C,0.499999*%
%TD*%
%TA.AperFunction,ComponentPad*%
%ADD16R,1.390000X1.390000*%
%TD*%
%TA.AperFunction,ComponentPad*%
%ADD17C,1.390000*%
%TD*%
%TA.AperFunction,ComponentPad*%
%ADD18R,1.562100X1.562100*%
%TD*%
%TA.AperFunction,ComponentPad*%
%ADD19C,1.562100*%
%TD*%
%TA.AperFunction,ViaPad*%
%ADD20C,0.600000*%
%TD*%
%TA.AperFunction,Conductor*%
%ADD21C,0.400000*%
%TD*%
%TA.AperFunction,Conductor*%
%ADD22C,0.250000*%
%TD*%
%TA.AperFunction,Conductor*%
%ADD23C,0.500000*%
%TD*%
%TA.AperFunction,Conductor*%
%ADD24C,0.304800*%
%TD*%
%TA.AperFunction,Conductor*%
%ADD25C,0.800000*%
%TD*%
G04 APERTURE END LIST*
D10*
G36*
X48563034Y-143079423D02*
G01*
X48610366Y-143126755D01*
X48691393Y-143288810D01*
X48792791Y-143694397D01*
X48792791Y-144212696D01*
X48691394Y-144618282D01*
X48610365Y-144780340D01*
X48563036Y-144827669D01*
X48436281Y-144891047D01*
X48345728Y-144891047D01*
X48218975Y-144827670D01*
X48171643Y-144780338D01*
X48090617Y-144618287D01*
X47989220Y-144212694D01*
X47989220Y-143694399D01*
X48090618Y-143288806D01*
X48171643Y-143126755D01*
X48218975Y-143079423D01*
X48345729Y-143016047D01*
X48436282Y-143016047D01*
X48563034Y-143079423D01*
G37*
G36*
X59626124Y-143700571D02*
G01*
X59060014Y-143700571D01*
X58933261Y-143637194D01*
X58885929Y-143589862D01*
X58822553Y-143463109D01*
X58822553Y-143253508D01*
X58885929Y-143126755D01*
X58933261Y-143079423D01*
X59060014Y-143016047D01*
X59626124Y-143016047D01*
X59626124Y-143700571D01*
G37*
G36*
X50814577Y-144176761D02*
G01*
X50491243Y-144176761D01*
X50652909Y-143691759D01*
X50814577Y-144176761D01*
G37*
G36*
X67944577Y-145828547D02*
G01*
X43480292Y-145828547D01*
X43480292Y-143179738D01*
X43792792Y-143179738D01*
X43792792Y-143417833D01*
X43795465Y-143458622D01*
X43797901Y-143467716D01*
X43798466Y-143477113D01*
X43808828Y-143516654D01*
X43927875Y-143873797D01*
X43934253Y-143889440D01*
X43935627Y-143894564D01*
X43938066Y-143898789D01*
X43943310Y-143911648D01*
X43960667Y-143937936D01*
X43976416Y-143965215D01*
X43985569Y-143975652D01*
X43988260Y-143979727D01*
X43992232Y-143983249D01*
X44003368Y-143995947D01*
X44898469Y-144891047D01*
X44105292Y-144891047D01*
X44064503Y-144893720D01*
X43985703Y-144914835D01*
X43915054Y-144955624D01*
X43857369Y-145013309D01*
X43816580Y-145083958D01*
X43795465Y-145162758D01*
X43795465Y-145244336D01*
X43816580Y-145323136D01*
X43857369Y-145393785D01*
X43915054Y-145451470D01*
X43985703Y-145492259D01*
X44064503Y-145513374D01*
X44105292Y-145516047D01*
X45652911Y-145516047D01*
X45693700Y-145513374D01*
X45772500Y-145492259D01*
X45824178Y-145462423D01*
X45843150Y-145451470D01*
X45900834Y-145393785D01*
X45912712Y-145373212D01*
X45941623Y-145323136D01*
X45962738Y-145244336D01*
X45962738Y-145162758D01*
X45941623Y-145083958D01*
X45918386Y-145043711D01*
X46176417Y-145043711D01*
X46176417Y-145125289D01*
X46184563Y-145155689D01*
X46197532Y-145204089D01*
X46210009Y-145225700D01*
X46238321Y-145274739D01*
X46265273Y-145305471D01*
X46384320Y-145424518D01*
X46415052Y-145451470D01*
X46424127Y-145456709D01*
X46434024Y-145462423D01*
X46485702Y-145492259D01*
X46564502Y-145513374D01*
X46646079Y-145513374D01*
X46646080Y-145513374D01*
X46646081Y-145513374D01*
X46679384Y-145504449D01*
X46724878Y-145492260D01*
X46725128Y-145492116D01*
X46734343Y-145486795D01*
X46795529Y-145451471D01*
X46826261Y-145424519D01*
X46945309Y-145305472D01*
X46972261Y-145274739D01*
X46973682Y-145272279D01*
X47003187Y-145221173D01*
X47013051Y-145204089D01*
X47034166Y-145125290D01*
X47034166Y-145043712D01*
X47013052Y-144964913D01*
X46972263Y-144894262D01*
X46972262Y-144894261D01*
X46945310Y-144863529D01*
X46826262Y-144744481D01*
X46795530Y-144717529D01*
X46795529Y-144717528D01*
X46724878Y-144676739D01*
X46674922Y-144663353D01*
X46646080Y-144655625D01*
X46646079Y-144655625D01*
X46564501Y-144655625D01*
X46518028Y-144668078D01*
X46485702Y-144676740D01*
X46459645Y-144691784D01*
X46415052Y-144717529D01*
X46415043Y-144717537D01*
X46384319Y-144744482D01*
X46265272Y-144863530D01*
X46238320Y-144894262D01*
X46197531Y-144964913D01*
X46184374Y-145014017D01*
X46176417Y-145043711D01*
X45918386Y-145043711D01*
X45907429Y-145024732D01*
X45900834Y-145013308D01*
X45873882Y-144982576D01*
X44547233Y-143655928D01*
X47364220Y-143655928D01*
X47364220Y-144251166D01*
X47366312Y-144283094D01*
X47366251Y-144286738D01*
X47366720Y-144289326D01*
X47366893Y-144291955D01*
X47367837Y-144295479D01*
X47373550Y-144326958D01*
X47492597Y-144803149D01*
X47499314Y-144824088D01*
X47500408Y-144829434D01*
X47503022Y-144835648D01*
X47505083Y-144842072D01*
X47507732Y-144846845D01*
X47516259Y-144867112D01*
X47635307Y-145105207D01*
X47655939Y-145140494D01*
X47662183Y-145147535D01*
X47666891Y-145155690D01*
X47693843Y-145186422D01*
X47812890Y-145305470D01*
X47843623Y-145332422D01*
X47851773Y-145337127D01*
X47858821Y-145343377D01*
X47894109Y-145364009D01*
X48132205Y-145483056D01*
X48147769Y-145489603D01*
X48152369Y-145492259D01*
X48157087Y-145493523D01*
X48169883Y-145498906D01*
X48200739Y-145505220D01*
X48231169Y-145513374D01*
X48245021Y-145514281D01*
X48249807Y-145515261D01*
X48255108Y-145514942D01*
X48271958Y-145516047D01*
X48510053Y-145516047D01*
X48526903Y-145514942D01*
X48532205Y-145515261D01*
X48536990Y-145514281D01*
X48550842Y-145513374D01*
X48581267Y-145505221D01*
X48612129Y-145498906D01*
X48624926Y-145493522D01*
X48629642Y-145492259D01*
X48634238Y-145489605D01*
X48649807Y-145483056D01*
X48887902Y-145364009D01*
X48923189Y-145343377D01*
X48930232Y-145337130D01*
X48938387Y-145332423D01*
X48969119Y-145305471D01*
X49048890Y-145225700D01*
X49507863Y-145225700D01*
X49524218Y-145305623D01*
X49560701Y-145378589D01*
X49614826Y-145439626D01*
X49682905Y-145484576D01*
X49760297Y-145510373D01*
X49841730Y-145515261D01*
X49921653Y-145498906D01*
X49994619Y-145462423D01*
X50055656Y-145408298D01*
X50100606Y-145340219D01*
X50116041Y-145302368D01*
X50282910Y-144801761D01*
X51022910Y-144801761D01*
X51189779Y-145302368D01*
X51205214Y-145340218D01*
X51250164Y-145408298D01*
X51311201Y-145462422D01*
X51384167Y-145498906D01*
X51464090Y-145515260D01*
X51545523Y-145510373D01*
X51622915Y-145484576D01*
X51690994Y-145439626D01*
X51745119Y-145378589D01*
X51781602Y-145305622D01*
X51797957Y-145225700D01*
X51793069Y-145144267D01*
X51782706Y-145104726D01*
X50974930Y-142681394D01*
X53555482Y-142681394D01*
X53560370Y-142762827D01*
X53570732Y-142802368D01*
X54404065Y-145302368D01*
X54404946Y-145304528D01*
X54405170Y-145305623D01*
X54406375Y-145308034D01*
X54419500Y-145340218D01*
X54431726Y-145358735D01*
X54441653Y-145378589D01*
X54454108Y-145392635D01*
X54464450Y-145408298D01*
X54481053Y-145423020D01*
X54495778Y-145439626D01*
X54511444Y-145449970D01*
X54525487Y-145462422D01*
X54545332Y-145472345D01*
X54563857Y-145484576D01*
X54581665Y-145490512D01*
X54598453Y-145498906D01*
X54620193Y-145503354D01*
X54641249Y-145510373D01*
X54659990Y-145511497D01*
X54678376Y-145515260D01*
X54700522Y-145513930D01*
X54722682Y-145515261D01*
X54741074Y-145511497D01*
X54759809Y-145510373D01*
X54780862Y-145503355D01*
X54802605Y-145498906D01*
X54819393Y-145490511D01*
X54837201Y-145484576D01*
X54855720Y-145472348D01*
X54875571Y-145462423D01*
X54889616Y-145449967D01*
X54905280Y-145439626D01*
X54920003Y-145423021D01*
X54936608Y-145408298D01*
X54946949Y-145392634D01*
X54959405Y-145378589D01*
X54969329Y-145358739D01*
X54981558Y-145340219D01*
X54994684Y-145308028D01*
X54995888Y-145305622D01*
X54996111Y-145304529D01*
X54996993Y-145302368D01*
X55830325Y-142802368D01*
X55840688Y-142762827D01*
X55845576Y-142681394D01*
X55841762Y-142662758D01*
X55938321Y-142662758D01*
X55938321Y-142744336D01*
X55959436Y-142823136D01*
X56000225Y-142893785D01*
X56057910Y-142951470D01*
X56128559Y-142992259D01*
X56207359Y-143013374D01*
X56248148Y-143016047D01*
X57126124Y-143016047D01*
X57126124Y-143581523D01*
X56605291Y-143581523D01*
X56564502Y-143584196D01*
X56485702Y-143605311D01*
X56415053Y-143646100D01*
X56357368Y-143703785D01*
X56316579Y-143774434D01*
X56295464Y-143853234D01*
X56295464Y-143934812D01*
X56316579Y-144013612D01*
X56357368Y-144084261D01*
X56415053Y-144141946D01*
X56485702Y-144182735D01*
X56564502Y-144203850D01*
X56605291Y-144206523D01*
X57126124Y-144206523D01*
X57126124Y-144891047D01*
X56248148Y-144891047D01*
X56207359Y-144893720D01*
X56128559Y-144914835D01*
X56057910Y-144955624D01*
X56000225Y-145013309D01*
X55959436Y-145083958D01*
X55938321Y-145162758D01*
X55938321Y-145244336D01*
X55959436Y-145323136D01*
X56000225Y-145393785D01*
X56057910Y-145451470D01*
X56128559Y-145492259D01*
X56207359Y-145513374D01*
X56248148Y-145516047D01*
X57438624Y-145516047D01*
X57479413Y-145513374D01*
X57558213Y-145492259D01*
X57628862Y-145451470D01*
X57686547Y-145393785D01*
X57727336Y-145323136D01*
X57748451Y-145244336D01*
X57748451Y-145244335D01*
X57751124Y-145203547D01*
X57751124Y-143179738D01*
X58197553Y-143179738D01*
X58197553Y-143536880D01*
X58198657Y-143553730D01*
X58198339Y-143559032D01*
X58199318Y-143563817D01*
X58200226Y-143577669D01*
X58208378Y-143608094D01*
X58214694Y-143638956D01*
X58220076Y-143651750D01*
X58221341Y-143656469D01*
X58223997Y-143661069D01*
X58230545Y-143676634D01*
X58349592Y-143914730D01*
X58370225Y-143950017D01*
X58376468Y-143957058D01*
X58381178Y-143965215D01*
X58408130Y-143995947D01*
X58527177Y-144114994D01*
X58557909Y-144141946D01*
X58566062Y-144146653D01*
X58573106Y-144152899D01*
X58608393Y-144173531D01*
X58787071Y-144262870D01*
X58254043Y-145024340D01*
X58232842Y-145059289D01*
X58204951Y-145135953D01*
X58197852Y-145217222D01*
X58212029Y-145297559D01*
X58246516Y-145371489D01*
X58298963Y-145433976D01*
X58365795Y-145480758D01*
X58442459Y-145508649D01*
X58523728Y-145515748D01*
X58604065Y-145501571D01*
X58677995Y-145467084D01*
X58740482Y-145414637D01*
X58766063Y-145382754D01*
X59506091Y-144325571D01*
X59626124Y-144325571D01*
X59626124Y-145203547D01*
X59628797Y-145244336D01*
X59649912Y-145323136D01*
X59690701Y-145393785D01*
X59748386Y-145451470D01*
X59819035Y-145492259D01*
X59897835Y-145513374D01*
X59979413Y-145513374D01*
X60058213Y-145492259D01*
X60128862Y-145451470D01*
X60186547Y-145393785D01*
X60227336Y-145323136D01*
X60248451Y-145244336D01*
X60251124Y-145203547D01*
X60251124Y-142735629D01*
X62484919Y-142735629D01*
X62491766Y-142775928D01*
X63087004Y-145275929D01*
X63099052Y-145314989D01*
X63101241Y-145319038D01*
X63102437Y-145323481D01*
X63120598Y-145354851D01*
X63137844Y-145386756D01*
X63141005Y-145390100D01*
X63143311Y-145394082D01*
X63168970Y-145419679D01*
X63193888Y-145446036D01*
X63197809Y-145448449D01*
X63201065Y-145451697D01*
X63232480Y-145469785D01*
X63263365Y-145488791D01*
X63267773Y-145490105D01*
X63271763Y-145492403D01*
X63306812Y-145501749D01*
X63341541Y-145512107D01*
X63346139Y-145512236D01*
X63350587Y-145513422D01*
X63386837Y-145513378D01*
X63423089Y-145514396D01*
X63427568Y-145513329D01*
X63432167Y-145513324D01*
X63467158Y-145503903D01*
X63502448Y-145495501D01*
X63506497Y-145493311D01*
X63510940Y-145492116D01*
X63542310Y-145473954D01*
X63574215Y-145456709D01*
X63577559Y-145453547D01*
X63581541Y-145451242D01*
X63607138Y-145425582D01*
X63633495Y-145400665D01*
X63635908Y-145396743D01*
X63639156Y-145393488D01*
X63657244Y-145362072D01*
X63676250Y-145331188D01*
X63677564Y-145326779D01*
X63679862Y-145322790D01*
X63692954Y-145284067D01*
X63867196Y-144630658D01*
X64041439Y-145284067D01*
X64054531Y-145322790D01*
X64056828Y-145326780D01*
X64058143Y-145331188D01*
X64077143Y-145362064D01*
X64095237Y-145393489D01*
X64098486Y-145396746D01*
X64100898Y-145400665D01*
X64127246Y-145425575D01*
X64152852Y-145451242D01*
X64156833Y-145453547D01*
X64160178Y-145456709D01*
X64192082Y-145473954D01*
X64223453Y-145492116D01*
X64227895Y-145493311D01*
X64231945Y-145495501D01*
X64267231Y-145503902D01*
X64302226Y-145513324D01*
X64306825Y-145513329D01*
X64311305Y-145514396D01*
X64347536Y-145513378D01*
X64383806Y-145513423D01*
X64388257Y-145512235D01*
X64392852Y-145512107D01*
X64427566Y-145501753D01*
X64462630Y-145492403D01*
X64466619Y-145490105D01*
X64471028Y-145488791D01*
X64501912Y-145469785D01*
X64533328Y-145451697D01*
X64536583Y-145448449D01*
X64540505Y-145446036D01*
X64565422Y-145419679D01*
X64591082Y-145394082D01*
X64593387Y-145390100D01*
X64596549Y-145386756D01*
X64613794Y-145354851D01*
X64631956Y-145323481D01*
X64633151Y-145319038D01*
X64635341Y-145314989D01*
X64647389Y-145275928D01*
X65242627Y-142775928D01*
X65249474Y-142735629D01*
X65248573Y-142703547D01*
X65578506Y-142703547D01*
X65578506Y-145203547D01*
X65581179Y-145244336D01*
X65602294Y-145323136D01*
X65643083Y-145393785D01*
X65700768Y-145451470D01*
X65771417Y-145492259D01*
X65850217Y-145513374D01*
X65931795Y-145513374D01*
X66010595Y-145492259D01*
X66081244Y-145451470D01*
X66138929Y-145393785D01*
X66179718Y-145323136D01*
X66200833Y-145244336D01*
X66203506Y-145203547D01*
X66203506Y-144206523D01*
X67007077Y-144206523D01*
X67007077Y-145203547D01*
X67009750Y-145244336D01*
X67030865Y-145323136D01*
X67071654Y-145393785D01*
X67129339Y-145451470D01*
X67199988Y-145492259D01*
X67278788Y-145513374D01*
X67360366Y-145513374D01*
X67439166Y-145492259D01*
X67509815Y-145451470D01*
X67567500Y-145393785D01*
X67608289Y-145323136D01*
X67629404Y-145244336D01*
X67632077Y-145203547D01*
X67632077Y-142703547D01*
X67629404Y-142662758D01*
X67608289Y-142583958D01*
X67567500Y-142513309D01*
X67509815Y-142455624D01*
X67439166Y-142414835D01*
X67360366Y-142393720D01*
X67278788Y-142393720D01*
X67199988Y-142414835D01*
X67129339Y-142455624D01*
X67071654Y-142513309D01*
X67030865Y-142583958D01*
X67009750Y-142662758D01*
X67007077Y-142703547D01*
X67007077Y-143581523D01*
X66203506Y-143581523D01*
X66203506Y-142703547D01*
X66200833Y-142662758D01*
X66179718Y-142583958D01*
X66138929Y-142513309D01*
X66081244Y-142455624D01*
X66010595Y-142414835D01*
X65931795Y-142393720D01*
X65850217Y-142393720D01*
X65771417Y-142414835D01*
X65700768Y-142455624D01*
X65643083Y-142513309D01*
X65602294Y-142583958D01*
X65581179Y-142662758D01*
X65578506Y-142703547D01*
X65248573Y-142703547D01*
X65247185Y-142654082D01*
X65223869Y-142575906D01*
X65181114Y-142506429D01*
X65121834Y-142450385D01*
X65050067Y-142411593D01*
X64970708Y-142392698D01*
X64889160Y-142394987D01*
X64810984Y-142418303D01*
X64741507Y-142461058D01*
X64685463Y-142520338D01*
X64646671Y-142592105D01*
X64634623Y-142631165D01*
X64326233Y-143926399D01*
X64169144Y-143337313D01*
X64156052Y-143298590D01*
X64155862Y-143298261D01*
X64155765Y-143297898D01*
X64135469Y-143262842D01*
X64115346Y-143227892D01*
X64115081Y-143227626D01*
X64114891Y-143227298D01*
X64086276Y-143198752D01*
X64057731Y-143170138D01*
X64057402Y-143169947D01*
X64057137Y-143169683D01*
X64022094Y-143149506D01*
X63987130Y-143129264D01*
X63986768Y-143129166D01*
X63986439Y-143128977D01*
X63946989Y-143118456D01*
X63908357Y-143108056D01*
X63907984Y-143108055D01*
X63907615Y-143107957D01*
X63866779Y-143108006D01*
X63826777Y-143107958D01*
X63826414Y-143108054D01*
X63826035Y-143108055D01*
X63787012Y-143118561D01*
X63747953Y-143128977D01*
X63747623Y-143129166D01*
X63747262Y-143129264D01*
X63712297Y-143149506D01*
X63677255Y-143169683D01*
X63676989Y-143169947D01*
X63676661Y-143170138D01*
X63648012Y-143198855D01*
X63619501Y-143227298D01*
X63619312Y-143227624D01*
X63619046Y-143227891D01*
X63598816Y-143263026D01*
X63578627Y-143297899D01*
X63578529Y-143298260D01*
X63578340Y-143298590D01*
X63565248Y-143337313D01*
X63408158Y-143926398D01*
X63099770Y-142631166D01*
X63087722Y-142592105D01*
X63048930Y-142520338D01*
X62992886Y-142461058D01*
X62923409Y-142418303D01*
X62845233Y-142394987D01*
X62763686Y-142392698D01*
X62684326Y-142411593D01*
X62612559Y-142450385D01*
X62553279Y-142506429D01*
X62510524Y-142575906D01*
X62487208Y-142654082D01*
X62484919Y-142735629D01*
X60251124Y-142735629D01*
X60251124Y-142703547D01*
X60248451Y-142662758D01*
X60227336Y-142583958D01*
X60186547Y-142513309D01*
X60128862Y-142455624D01*
X60058213Y-142414835D01*
X59979413Y-142393720D01*
X59938624Y-142391047D01*
X58986243Y-142391047D01*
X58969392Y-142392151D01*
X58964091Y-142391833D01*
X58959305Y-142392812D01*
X58945454Y-142393720D01*
X58915028Y-142401872D01*
X58884167Y-142408188D01*
X58871372Y-142413570D01*
X58866654Y-142414835D01*
X58862053Y-142417491D01*
X58846489Y-142424039D01*
X58608393Y-142543087D01*
X58573106Y-142563719D01*
X58566062Y-142569964D01*
X58557909Y-142574672D01*
X58527177Y-142601624D01*
X58408130Y-142720671D01*
X58381178Y-142751403D01*
X58376468Y-142759559D01*
X58370225Y-142766601D01*
X58349592Y-142801888D01*
X58230545Y-143039984D01*
X58223997Y-143055548D01*
X58221341Y-143060149D01*
X58220076Y-143064867D01*
X58214694Y-143077662D01*
X58208378Y-143108523D01*
X58200226Y-143138949D01*
X58199318Y-143152800D01*
X58198339Y-143157586D01*
X58198657Y-143162887D01*
X58197553Y-143179738D01*
X57751124Y-143179738D01*
X57751124Y-142703547D01*
X57748451Y-142662758D01*
X57727336Y-142583958D01*
X57686547Y-142513309D01*
X57628862Y-142455624D01*
X57558213Y-142414835D01*
X57479413Y-142393720D01*
X57438624Y-142391047D01*
X56248148Y-142391047D01*
X56207359Y-142393720D01*
X56128559Y-142414835D01*
X56057910Y-142455624D01*
X56000225Y-142513309D01*
X55959436Y-142583958D01*
X55938321Y-142662758D01*
X55841762Y-142662758D01*
X55829221Y-142601472D01*
X55792738Y-142528505D01*
X55738613Y-142467468D01*
X55670534Y-142422518D01*
X55593142Y-142396721D01*
X55511709Y-142391834D01*
X55431786Y-142408188D01*
X55358820Y-142444672D01*
X55297783Y-142498796D01*
X55252833Y-142566876D01*
X55237398Y-142604726D01*
X54700528Y-144215334D01*
X54163660Y-142604726D01*
X54148225Y-142566875D01*
X54103275Y-142498796D01*
X54042238Y-142444671D01*
X53969272Y-142408188D01*
X53889349Y-142391833D01*
X53807916Y-142396721D01*
X53730524Y-142422518D01*
X53662445Y-142467468D01*
X53608320Y-142528505D01*
X53571837Y-142601471D01*
X53555482Y-142681394D01*
X50974930Y-142681394D01*
X50949374Y-142604726D01*
X50948492Y-142602564D01*
X50948269Y-142601472D01*
X50947065Y-142599065D01*
X50933939Y-142566875D01*
X50921710Y-142548354D01*
X50911786Y-142528505D01*
X50899330Y-142514459D01*
X50888989Y-142498796D01*
X50872384Y-142484072D01*
X50857661Y-142467468D01*
X50841997Y-142457126D01*
X50827952Y-142444671D01*
X50808101Y-142434745D01*
X50789582Y-142422518D01*
X50771774Y-142416582D01*
X50754986Y-142408188D01*
X50733243Y-142403738D01*
X50712190Y-142396721D01*
X50693455Y-142395596D01*
X50675063Y-142391833D01*
X50652903Y-142393163D01*
X50630757Y-142391834D01*
X50612371Y-142395596D01*
X50593630Y-142396721D01*
X50572574Y-142403739D01*
X50550834Y-142408188D01*
X50534046Y-142416581D01*
X50516238Y-142422518D01*
X50497713Y-142434748D01*
X50477868Y-142444672D01*
X50463825Y-142457123D01*
X50448159Y-142467468D01*
X50433434Y-142484073D01*
X50416831Y-142498796D01*
X50406489Y-142514458D01*
X50394034Y-142528505D01*
X50384107Y-142548358D01*
X50371881Y-142566876D01*
X50358756Y-142599059D01*
X50357551Y-142601471D01*
X50357327Y-142602565D01*
X50356446Y-142604726D01*
X49523113Y-145104726D01*
X49512751Y-145144267D01*
X49507863Y-145225700D01*
X49048890Y-145225700D01*
X49088167Y-145186423D01*
X49115119Y-145155691D01*
X49119826Y-145147536D01*
X49126073Y-145140493D01*
X49146705Y-145105206D01*
X49265752Y-144867111D01*
X49274280Y-144846837D01*
X49276926Y-144842072D01*
X49278984Y-144835655D01*
X49281602Y-144829433D01*
X49282696Y-144824083D01*
X49289412Y-144803150D01*
X49408461Y-144326958D01*
X49414174Y-144295477D01*
X49415118Y-144291955D01*
X49415290Y-144289327D01*
X49415760Y-144286739D01*
X49415698Y-144283093D01*
X49417791Y-144251166D01*
X49417791Y-143655928D01*
X49415698Y-143624000D01*
X49415760Y-143620355D01*
X49415290Y-143617766D01*
X49415118Y-143615139D01*
X49414174Y-143611616D01*
X49408461Y-143580136D01*
X49289412Y-143103945D01*
X49282695Y-143083008D01*
X49281602Y-143077663D01*
X49278986Y-143071446D01*
X49276926Y-143065022D01*
X49274276Y-143060250D01*
X49265752Y-143039985D01*
X49146705Y-142801889D01*
X49126073Y-142766601D01*
X49119823Y-142759553D01*
X49115118Y-142751403D01*
X49088166Y-142720670D01*
X48969118Y-142601623D01*
X48938386Y-142574671D01*
X48930231Y-142569963D01*
X48923190Y-142563719D01*
X48887903Y-142543087D01*
X48649808Y-142424039D01*
X48634239Y-142417489D01*
X48629642Y-142414835D01*
X48624926Y-142413571D01*
X48612130Y-142408188D01*
X48581264Y-142401871D01*
X48550842Y-142393720D01*
X48536992Y-142392812D01*
X48532206Y-142391833D01*
X48526903Y-142392151D01*
X48510053Y-142391047D01*
X48271958Y-142391047D01*
X48255107Y-142392151D01*
X48249805Y-142391833D01*
X48245019Y-142392812D01*
X48231169Y-142393720D01*
X48200744Y-142401872D01*
X48169882Y-142408188D01*
X48157086Y-142413570D01*
X48152369Y-142414835D01*
X48147770Y-142417490D01*
X48132203Y-142424039D01*
X47894108Y-142543087D01*
X47858820Y-142563719D01*
X47851776Y-142569964D01*
X47843623Y-142574672D01*
X47812891Y-142601624D01*
X47693844Y-142720671D01*
X47666892Y-142751403D01*
X47662182Y-142759559D01*
X47655939Y-142766601D01*
X47635306Y-142801888D01*
X47516259Y-143039984D01*
X47507734Y-143060246D01*
X47505083Y-143065023D01*
X47503021Y-143071450D01*
X47500408Y-143077662D01*
X47499314Y-143083004D01*
X47492597Y-143103946D01*
X47373550Y-143580136D01*
X47367836Y-143611616D01*
X47366893Y-143615139D01*
X47366720Y-143617766D01*
X47366251Y-143620355D01*
X47366312Y-143623999D01*
X47364220Y-143655928D01*
X44547233Y-143655928D01*
X44497474Y-143606169D01*
X44417792Y-143367120D01*
X44417792Y-143253508D01*
X44481168Y-143126755D01*
X44528499Y-143079424D01*
X44655253Y-143016047D01*
X45102949Y-143016047D01*
X45229701Y-143079423D01*
X45312893Y-143162614D01*
X45343626Y-143189566D01*
X45414276Y-143230355D01*
X45493075Y-143251469D01*
X45574654Y-143251469D01*
X45653453Y-143230354D01*
X45724103Y-143189564D01*
X45781787Y-143131880D01*
X45822576Y-143061229D01*
X45843690Y-142982430D01*
X45843690Y-142900852D01*
X45822575Y-142822053D01*
X45781785Y-142751403D01*
X45754833Y-142720670D01*
X45635785Y-142601623D01*
X45605053Y-142574671D01*
X45596898Y-142569963D01*
X45589857Y-142563719D01*
X45554570Y-142543087D01*
X45316475Y-142424039D01*
X45300906Y-142417489D01*
X45296309Y-142414835D01*
X45291593Y-142413571D01*
X45278797Y-142408188D01*
X45247931Y-142401871D01*
X45217509Y-142393720D01*
X45203659Y-142392812D01*
X45198873Y-142391833D01*
X45193570Y-142392151D01*
X45176720Y-142391047D01*
X44581482Y-142391047D01*
X44564631Y-142392151D01*
X44559330Y-142391833D01*
X44554544Y-142392812D01*
X44540693Y-142393720D01*
X44510267Y-142401872D01*
X44479406Y-142408188D01*
X44466611Y-142413570D01*
X44461893Y-142414835D01*
X44457292Y-142417491D01*
X44441728Y-142424039D01*
X44203632Y-142543087D01*
X44168345Y-142563719D01*
X44161301Y-142569964D01*
X44153150Y-142574671D01*
X44122417Y-142601623D01*
X44003369Y-142720670D01*
X43976417Y-142751402D01*
X43971709Y-142759555D01*
X43965462Y-142766601D01*
X43944830Y-142801889D01*
X43825783Y-143039985D01*
X43819235Y-143055549D01*
X43816580Y-143060149D01*
X43815315Y-143064867D01*
X43809933Y-143077663D01*
X43803618Y-143108519D01*
X43795465Y-143138949D01*
X43794557Y-143152801D01*
X43793578Y-143157587D01*
X43793896Y-143162888D01*
X43792792Y-143179738D01*
X43480292Y-143179738D01*
X43480292Y-142078547D01*
X67944577Y-142078547D01*
X67944577Y-145828547D01*
G37*
D11*
%TO.P,TP7,TP*%
%TO.N,Net-(U2-PR1)*%
X34544000Y-107000000D03*
%TD*%
%TO.P,TP13,TP*%
%TO.N,TX+*%
X93091000Y-71000000D03*
%TD*%
%TO.P,TP2,TP*%
%TO.N,ARDUINO_5V*%
X34544000Y-101000000D03*
%TD*%
D12*
%TO.P,J7,1,Pin_1*%
%TO.N,3V3_SYS*%
X34036000Y-157607000D03*
%TO.P,J7,2,Pin_2*%
%TO.N,/RS232 & RS485 Tranceiver/THVD_SHDN_N*%
X34036000Y-160147000D03*
%TO.P,J7,3,Pin_3*%
%TO.N,Net-(J7-Pin_3)*%
X34036000Y-162687000D03*
%TD*%
D11*
%TO.P,TP1,TP*%
%TO.N,GND*%
X34544000Y-119000000D03*
%TD*%
%TO.P,TP23,TP*%
%TO.N,L6-RTS*%
X93091000Y-143000000D03*
%TD*%
%TO.P,TP14,TP*%
%TO.N,TX+ (Y)*%
X37044000Y-58500000D03*
%TD*%
%TO.P,TP27,TP*%
%TO.N,L5-DSR*%
X93091000Y-131000000D03*
%TD*%
D12*
%TO.P,J9,1,Pin_1*%
%TO.N,/Rx & Tx LED/RX_ACT*%
X56896000Y-45720000D03*
%TO.P,J9,2,Pin_2*%
%TO.N,Net-(J9-Pin_2)*%
X59436000Y-45720000D03*
%TO.P,J9,3,Pin_3*%
%TO.N,Net-(J9-Pin_3)*%
X61976000Y-45720000D03*
%TD*%
D11*
%TO.P,TP20,TP*%
%TO.N,RX- (B)*%
X47044000Y-58500000D03*
%TD*%
%TO.P,TP5,TP*%
%TO.N,NUCLEO_3V3*%
X34544000Y-77000000D03*
%TD*%
%TO.P,TP19,TP*%
%TO.N,RX-*%
X93091000Y-83000000D03*
%TD*%
%TO.P,TP26,TP*%
%TO.N,RTSBus*%
X93091000Y-101000000D03*
%TD*%
%TO.P,TP4,TP*%
%TO.N,GND*%
X34544000Y-83000000D03*
%TD*%
D12*
%TO.P,J12,1,Pin_1*%
%TO.N,Net-(J12-Pin_1)*%
X73406000Y-164326000D03*
%TO.P,J12,2,Pin_2*%
%TO.N,MODE1*%
X75946000Y-164326000D03*
%TO.P,J12,3,Pin_3*%
%TO.N,Net-(J12-Pin_3)*%
X78486000Y-164326000D03*
%TD*%
%TO.P,J3,1,Pin_1*%
%TO.N,unconnected-(J3-Pin_1-Pad1)*%
X53074000Y-68453000D03*
%TO.P,J3,2,Pin_2*%
%TO.N,Net-(J3-Pin_2)*%
X53074000Y-65913000D03*
%TO.P,J3,3,Pin_3*%
%TO.N,RX- (B)*%
X53074000Y-63373000D03*
%TD*%
%TO.P,J2,1,Pin_1*%
%TO.N,unconnected-(J2-Pin_1-Pad1)*%
X69088000Y-68453000D03*
%TO.P,J2,2,Pin_2*%
%TO.N,TX- (Z)*%
X69088000Y-65913000D03*
%TO.P,J2,3,Pin_3*%
%TO.N,RX- (B)*%
X69088000Y-63373000D03*
%TD*%
D11*
%TO.P,TP17,TP*%
%TO.N,RX+ (A)*%
X42044000Y-58500000D03*
%TD*%
%TO.P,TP9,TP*%
%TO.N,L1-DCD*%
X34544000Y-131000000D03*
%TD*%
D13*
%TO.P,J5,1_1,1_1*%
%TO.N,RX- (B)*%
X49544000Y-52269000D03*
%TO.P,J5,1_2,1_2*%
X49544000Y-44069000D03*
%TO.P,J5,2_1,2_1*%
%TO.N,RX+ (A)*%
X44544000Y-52269000D03*
%TO.P,J5,2_2,2_2*%
X44544000Y-44069000D03*
%TO.P,J5,3_1,3_1*%
%TO.N,TX+ (Y)*%
X39544000Y-52269000D03*
%TO.P,J5,3_2,3_2*%
X39544000Y-44069000D03*
%TO.P,J5,4_1,4_1*%
%TO.N,TX- (Z)*%
X34544000Y-52269000D03*
%TO.P,J5,4_2,4_2*%
X34544000Y-44069000D03*
%TD*%
D12*
%TO.P,J10,1,Pin_1*%
%TO.N,Net-(J10-Pin_1)*%
X43688000Y-164326000D03*
%TO.P,J10,2,Pin_2*%
%TO.N,Net-(J10-Pin_2)*%
X46228000Y-164326000D03*
%TO.P,J10,3,Pin_3*%
%TO.N,MCU_OE*%
X48768000Y-164326000D03*
%TD*%
D11*
%TO.P,TP3,TP*%
%TO.N,3V3_LDO*%
X34544000Y-113000000D03*
%TD*%
%TO.P,TP25,TP*%
%TO.N,L7-CTS*%
X93091000Y-137000000D03*
%TD*%
D12*
%TO.P,J13,1,Pin_1*%
%TO.N,Net-(J13-Pin_1)*%
X88138000Y-164326000D03*
%TO.P,J13,2,Pin_2*%
%TO.N,MODE2*%
X90678000Y-164326000D03*
%TO.P,J13,3,Pin_3*%
%TO.N,Net-(J13-Pin_3)*%
X93218000Y-164326000D03*
%TD*%
D11*
%TO.P,TP6,TP*%
%TO.N,3V3_SYS*%
X34544000Y-89000000D03*
%TD*%
D12*
%TO.P,J11,1,Pin_1*%
%TO.N,Net-(J11-Pin_1)*%
X58547000Y-164326000D03*
%TO.P,J11,2,Pin_2*%
%TO.N,MODE0*%
X61087000Y-164326000D03*
%TO.P,J11,3,Pin_3*%
%TO.N,Net-(J11-Pin_3)*%
X63627000Y-164326000D03*
%TD*%
D11*
%TO.P,TP24,TP*%
%TO.N,DSRBus*%
X93091000Y-95000000D03*
%TD*%
%TO.P,TP16,TP*%
%TO.N,RX+*%
X93091000Y-77000000D03*
%TD*%
D12*
%TO.P,J15,1,Pin_1*%
%TO.N,Net-(J15-Pin_1)*%
X73406000Y-155956000D03*
%TO.P,J15,2,Pin_2*%
%TO.N,TERM_TX*%
X75946000Y-155956000D03*
%TO.P,J15,3,Pin_3*%
%TO.N,Net-(J15-Pin_3)*%
X78486000Y-155956000D03*
%TD*%
D11*
%TO.P,TP11,TP*%
%TO.N,TX- (Z)*%
X32044000Y-58500000D03*
%TD*%
%TO.P,TP15,TP*%
%TO.N,L3-TXD*%
X34544000Y-137000000D03*
%TD*%
%TO.P,TP10,TP*%
%TO.N,TX-*%
X93091000Y-65000000D03*
%TD*%
D14*
%TO.P,J6,1,1*%
%TO.N,TX-*%
X86624099Y-56387797D03*
%TO.P,J6,2,2*%
%TO.N,TX+*%
X83844100Y-56387797D03*
%TO.P,J6,3,3*%
%TO.N,RX+*%
X81064100Y-56387797D03*
%TO.P,J6,4,4*%
%TO.N,RX-*%
X78284100Y-56387797D03*
%TO.P,J6,5,5*%
%TO.N,GND*%
X75504101Y-56387797D03*
%TO.P,J6,6,6*%
%TO.N,DSRBus*%
X85234099Y-53847797D03*
%TO.P,J6,7,7*%
%TO.N,RTSBus*%
X82454100Y-53847797D03*
%TO.P,J6,8,8*%
%TO.N,CTSBus*%
X79674100Y-53847797D03*
%TO.P,J6,9,9*%
%TO.N,RIBus*%
X76894101Y-53847797D03*
%TD*%
D11*
%TO.P,TP22,TP*%
%TO.N,GND*%
X93091000Y-89000000D03*
%TD*%
%TO.P,TP30,TP*%
%TO.N,RIBus*%
X93091000Y-113000000D03*
%TD*%
D12*
%TO.P,J8,1,Pin_1*%
%TO.N,/Rx & Tx LED/TX_ACT*%
X56896000Y-55880000D03*
%TO.P,J8,2,Pin_2*%
%TO.N,Net-(J8-Pin_2)*%
X59436000Y-55880000D03*
%TO.P,J8,3,Pin_3*%
%TO.N,Net-(J8-Pin_3)*%
X61976000Y-55880000D03*
%TD*%
%TO.P,J17,1,Pin_1*%
%TO.N,Net-(J17-Pin_1)*%
X88138000Y-155956000D03*
%TO.P,J17,2,Pin_2*%
%TO.N,SLR*%
X90678000Y-155956000D03*
%TO.P,J17,3,Pin_3*%
%TO.N,Net-(J17-Pin_3)*%
X93218000Y-155956000D03*
%TD*%
%TO.P,J4,1,Pin_1*%
%TO.N,unconnected-(J4-Pin_1-Pad1)*%
X61087000Y-68453000D03*
%TO.P,J4,2,Pin_2*%
%TO.N,Net-(J4-Pin_2)*%
X61087000Y-65913000D03*
%TO.P,J4,3,Pin_3*%
%TO.N,TX- (Z)*%
X61087000Y-63373000D03*
%TD*%
D11*
%TO.P,TP21,TP*%
%TO.N,L8-RI*%
X93091000Y-149000000D03*
%TD*%
%TO.P,TP18,TP*%
%TO.N,L4-DTR*%
X34544000Y-149000000D03*
%TD*%
D12*
%TO.P,J1,1,Pin_1*%
%TO.N,unconnected-(J1-Pin_1-Pad1)*%
X77089000Y-68453000D03*
%TO.P,J1,2,Pin_2*%
%TO.N,TX+ (Y)*%
X77089000Y-65913000D03*
%TO.P,J1,3,Pin_3*%
%TO.N,RX+ (A)*%
X77089000Y-63373000D03*
%TD*%
D11*
%TO.P,TP8,TP*%
%TO.N,Net-(U2-ST)*%
X34544000Y-95000000D03*
%TD*%
D15*
%TO.P,U3,41,EP*%
%TO.N,GND*%
X70849000Y-82837000D03*
X72019000Y-82837000D03*
X73189000Y-82837000D03*
X69944000Y-81932000D03*
X70849000Y-81932000D03*
X72019000Y-81932000D03*
X73189000Y-81932000D03*
X74094000Y-81932000D03*
X69944000Y-80762000D03*
X70849000Y-80762000D03*
X73189000Y-80762000D03*
X74094000Y-80762000D03*
X72019000Y-80736600D03*
X69944000Y-79592000D03*
X70849000Y-79592000D03*
X72019000Y-79592000D03*
X73189000Y-79592000D03*
X74094000Y-79592000D03*
X70849000Y-78687000D03*
X72019000Y-78687000D03*
X73189000Y-78687000D03*
%TD*%
D11*
%TO.P,TP29,TP*%
%TO.N,GND*%
X93091000Y-119000000D03*
%TD*%
D12*
%TO.P,J14,1,Pin_1*%
%TO.N,Net-(J14-Pin_1)*%
X43688000Y-155956000D03*
%TO.P,J14,2,Pin_2*%
%TO.N,DIR*%
X46228000Y-155956000D03*
%TO.P,J14,3,Pin_3*%
%TO.N,Net-(J14-Pin_3)*%
X48768000Y-155956000D03*
%TD*%
%TO.P,J16,1,Pin_1*%
%TO.N,Net-(J16-Pin_1)*%
X58547000Y-155956000D03*
%TO.P,J16,2,Pin_2*%
%TO.N,TERM_RX*%
X61087000Y-155956000D03*
%TO.P,J16,3,Pin_3*%
%TO.N,Net-(J16-Pin_3)*%
X63627000Y-155956000D03*
%TD*%
D11*
%TO.P,TP28,TP*%
%TO.N,CTSBus*%
X93091000Y-107000000D03*
%TD*%
%TO.P,TP12,TP*%
%TO.N,L2-RXD*%
X34544000Y-143000000D03*
%TD*%
D16*
%TO.P,CN10,01,Pin_1*%
%TO.N,unconnected-(CN10-Pin_1-Pad01)*%
X85459000Y-96500000D03*
D17*
%TO.P,CN10,02,Pin_2*%
%TO.N,Net-(CN10-Pin_2)*%
X87999000Y-96500000D03*
%TO.P,CN10,03,Pin_3*%
%TO.N,unconnected-(CN10-Pin_3-Pad03)*%
X85459000Y-99040000D03*
%TO.P,CN10,04,Pin_4*%
%TO.N,unconnected-(CN10-Pin_4-Pad04)*%
X87999000Y-99040000D03*
%TO.P,CN10,05,Pin_5*%
%TO.N,unconnected-(CN10-Pin_5-Pad05)*%
X85459000Y-101580000D03*
%TO.P,CN10,06,Pin_6*%
%TO.N,unconnected-(CN10-Pin_6-Pad06)*%
X87999000Y-101580000D03*
%TO.P,CN10,07,Pin_7*%
%TO.N,unconnected-(CN10-Pin_7-Pad07)*%
X85459000Y-104120000D03*
%TO.P,CN10,08,Pin_8*%
%TO.N,L7-CTS*%
X87999000Y-104120000D03*
%TO.P,CN10,09,Pin_9*%
%TO.N,unconnected-(CN10-Pin_9-Pad09)*%
X85459000Y-106660000D03*
%TO.P,CN10,10,Pin_10*%
%TO.N,unconnected-(CN10-Pin_10-Pad10)*%
X87999000Y-106660000D03*
%TO.P,CN10,11,Pin_11*%
%TO.N,unconnected-(CN10-Pin_11-Pad11)*%
X85459000Y-109200000D03*
%TO.P,CN10,12,Pin_12*%
%TO.N,L6-RTS*%
X87999000Y-109200000D03*
%TO.P,CN10,13,Pin_13*%
%TO.N,unconnected-(CN10-Pin_13-Pad13)*%
X85459000Y-111740000D03*
%TO.P,CN10,14,Pin_14*%
%TO.N,L3-TXD*%
X87999000Y-111740000D03*
%TO.P,CN10,15,Pin_15*%
%TO.N,unconnected-(CN10-Pin_15-Pad15)*%
X85459000Y-114280000D03*
%TO.P,CN10,16,Pin_16*%
%TO.N,L2-RXD*%
X87999000Y-114280000D03*
%TO.P,CN10,17,Pin_17*%
%TO.N,unconnected-(CN10-Pin_17-Pad17)*%
X85459000Y-116820000D03*
%TO.P,CN10,18,Pin_18*%
%TO.N,unconnected-(CN10-Pin_18-Pad18)*%
X87999000Y-116820000D03*
%TO.P,CN10,19,Pin_19*%
%TO.N,unconnected-(CN10-Pin_19-Pad19)*%
X85459000Y-119360000D03*
%TO.P,CN10,20,Pin_20*%
%TO.N,unconnected-(CN10-Pin_20-Pad20)*%
X87999000Y-119360000D03*
%TO.P,CN10,21,Pin_21*%
%TO.N,unconnected-(CN10-Pin_21-Pad21)*%
X85459000Y-121900000D03*
%TO.P,CN10,22,Pin_22*%
%TO.N,unconnected-(CN10-Pin_22-Pad22)*%
X87999000Y-121900000D03*
%TO.P,CN10,23,Pin_23*%
%TO.N,unconnected-(CN10-Pin_23-Pad23)*%
X85459000Y-124440000D03*
%TO.P,CN10,24,Pin_24*%
%TO.N,unconnected-(CN10-Pin_24-Pad24)*%
X87999000Y-124440000D03*
%TO.P,CN10,25,Pin_25*%
%TO.N,unconnected-(CN10-Pin_25-Pad25)*%
X85459000Y-126980000D03*
%TO.P,CN10,26,Pin_26*%
%TO.N,unconnected-(CN10-Pin_26-Pad26)*%
X87999000Y-126980000D03*
%TO.P,CN10,27,Pin_27*%
%TO.N,unconnected-(CN10-Pin_27-Pad27)*%
X85459000Y-129520000D03*
%TO.P,CN10,28,Pin_28*%
%TO.N,unconnected-(CN10-Pin_28-Pad28)*%
X87999000Y-129520000D03*
%TO.P,CN10,29,Pin_29*%
%TO.N,unconnected-(CN10-Pin_29-Pad29)*%
X85459000Y-132060000D03*
%TO.P,CN10,30,Pin_30*%
%TO.N,unconnected-(CN10-Pin_30-Pad30)*%
X87999000Y-132060000D03*
%TO.P,CN10,31,Pin_31*%
%TO.N,unconnected-(CN10-Pin_31-Pad31)*%
X85459000Y-134600000D03*
%TO.P,CN10,32,Pin_32*%
%TO.N,unconnected-(CN10-Pin_32-Pad32)*%
X87999000Y-134600000D03*
%TO.P,CN10,33,Pin_33*%
%TO.N,unconnected-(CN10-Pin_33-Pad33)*%
X85459000Y-137140000D03*
%TO.P,CN10,34,Pin_34*%
%TO.N,unconnected-(CN10-Pin_34-Pad34)*%
X87999000Y-137140000D03*
%TD*%
D18*
%TO.P,CN7,01,Pin_1*%
%TO.N,unconnected-(CN7-Pin_1-Pad01)*%
X85459000Y-69596000D03*
D19*
%TO.P,CN7,02,Pin_2*%
%TO.N,L8-RI*%
X87999000Y-69596000D03*
%TO.P,CN7,03,Pin_3*%
%TO.N,unconnected-(CN7-Pin_3-Pad03)*%
X85459000Y-72136000D03*
%TO.P,CN7,04,Pin_4*%
%TO.N,L5-DSR*%
X87999000Y-72136000D03*
%TO.P,CN7,05,Pin_5*%
%TO.N,unconnected-(CN7-Pin_5-Pad05)*%
X85459000Y-74676000D03*
%TO.P,CN7,06,Pin_6*%
%TO.N,unconnected-(CN7-Pin_6-Pad06)*%
X87999000Y-74676000D03*
%TO.P,CN7,07,Pin_7*%
%TO.N,unconnected-(CN7-Pin_7-Pad07)*%
X85459000Y-77216000D03*
%TO.P,CN7,08,Pin_8*%
%TO.N,unconnected-(CN7-Pin_8-Pad08)*%
X87999000Y-77216000D03*
%TO.P,CN7,09,Pin_9*%
%TO.N,unconnected-(CN7-Pin_9-Pad09)*%
X85459000Y-79756000D03*
%TO.P,CN7,10,Pin_10*%
%TO.N,Net-(CN7-Pin_10)*%
X87999000Y-79756000D03*
%TO.P,CN7,11,Pin_11*%
%TO.N,unconnected-(CN7-Pin_11-Pad11)*%
X85459000Y-82296000D03*
%TO.P,CN7,12,Pin_12*%
%TO.N,L4-DTR*%
X87999000Y-82296000D03*
%TO.P,CN7,13,Pin_13*%
%TO.N,unconnected-(CN7-Pin_13-Pad13)*%
X85459000Y-84836000D03*
%TO.P,CN7,14,Pin_14*%
%TO.N,L1-DCD*%
X87999000Y-84836000D03*
%TO.P,CN7,15,Pin_15*%
%TO.N,unconnected-(CN7-Pin_15-Pad15)*%
X85459000Y-87376000D03*
%TO.P,CN7,16,Pin_16*%
%TO.N,unconnected-(CN7-Pin_16-Pad16)*%
X87999000Y-87376000D03*
%TO.P,CN7,17,Pin_17*%
%TO.N,unconnected-(CN7-Pin_17-Pad17)*%
X85459000Y-89916000D03*
%TO.P,CN7,18,Pin_18*%
%TO.N,unconnected-(CN7-Pin_18-Pad18)*%
X87999000Y-89916000D03*
%TO.P,CN7,19,Pin_19*%
%TO.N,unconnected-(CN7-Pin_19-Pad19)*%
X85459000Y-92456000D03*
%TO.P,CN7,20,Pin_20*%
%TO.N,Net-(CN7-Pin_20)*%
X87999000Y-92456000D03*
%TD*%
D16*
%TO.P,CN8,01,Pin_1*%
%TO.N,unconnected-(CN8-Pin_1-Pad01)*%
X39739000Y-78740000D03*
D17*
%TO.P,CN8,02,Pin_2*%
%TO.N,unconnected-(CN8-Pin_2-Pad02)*%
X42279000Y-78740000D03*
%TO.P,CN8,03,Pin_3*%
%TO.N,unconnected-(CN8-Pin_3-Pad03)*%
X39739000Y-81280000D03*
%TO.P,CN8,04,Pin_4*%
%TO.N,unconnected-(CN8-Pin_4-Pad04)*%
X42279000Y-81280000D03*
%TO.P,CN8,05,Pin_5*%
%TO.N,unconnected-(CN8-Pin_5-Pad05)*%
X39739000Y-83820000D03*
%TO.P,CN8,06,Pin_6*%
%TO.N,unconnected-(CN8-Pin_6-Pad06)*%
X42279000Y-83820000D03*
%TO.P,CN8,07,Pin_7*%
%TO.N,NUCLEO_3V3*%
X39739000Y-86360000D03*
%TO.P,CN8,08,Pin_8*%
%TO.N,unconnected-(CN8-Pin_8-Pad08)*%
X42279000Y-86360000D03*
%TO.P,CN8,09,Pin_9*%
%TO.N,ARDUINO_5V*%
X39739000Y-88900000D03*
%TO.P,CN8,10,Pin_10*%
%TO.N,unconnected-(CN8-Pin_10-Pad10)*%
X42279000Y-88900000D03*
%TO.P,CN8,11,Pin_11*%
%TO.N,GND*%
X39739000Y-91440000D03*
%TO.P,CN8,12,Pin_12*%
%TO.N,unconnected-(CN8-Pin_12-Pad12)*%
X42279000Y-91440000D03*
%TO.P,CN8,13,Pin_13*%
%TO.N,GND*%
X39739000Y-93980000D03*
%TO.P,CN8,14,Pin_14*%
%TO.N,MCU_RXLED_GPIO*%
X42279000Y-93980000D03*
%TO.P,CN8,15,Pin_15*%
%TO.N,unconnected-(CN8-Pin_15-Pad15)*%
X39739000Y-96520000D03*
%TO.P,CN8,16,Pin_16*%
%TO.N,MCU_TXLED_GPIO*%
X42279000Y-96520000D03*
%TD*%
D16*
%TO.P,CN9,01,Pin_1*%
%TO.N,Net-(CN9-Pin_1)*%
X39739000Y-101600000D03*
D17*
%TO.P,CN9,02,Pin_2*%
%TO.N,unconnected-(CN9-Pin_2-Pad02)*%
X42279000Y-101600000D03*
%TO.P,CN9,03,Pin_3*%
%TO.N,MCU_OE*%
X39739000Y-104140000D03*
%TO.P,CN9,04,Pin_4*%
%TO.N,unconnected-(CN9-Pin_4-Pad04)*%
X42279000Y-104140000D03*
%TO.P,CN9,05,Pin_5*%
%TO.N,Net-(CN9-Pin_5)*%
X39739000Y-106680000D03*
%TO.P,CN9,06,Pin_6*%
%TO.N,unconnected-(CN9-Pin_6-Pad06)*%
X42279000Y-106680000D03*
%TO.P,CN9,07,Pin_7*%
%TO.N,Net-(CN9-Pin_7)*%
X39739000Y-109220000D03*
%TO.P,CN9,08,Pin_8*%
%TO.N,unconnected-(CN9-Pin_8-Pad08)*%
X42279000Y-109220000D03*
%TO.P,CN9,09,Pin_9*%
%TO.N,Net-(CN9-Pin_9)*%
X39739000Y-111760000D03*
%TO.P,CN9,10,Pin_10*%
%TO.N,unconnected-(CN9-Pin_10-Pad10)*%
X42279000Y-111760000D03*
%TO.P,CN9,11,Pin_11*%
%TO.N,unconnected-(CN9-Pin_11-Pad11)*%
X39739000Y-114300000D03*
%TO.P,CN9,12,Pin_12*%
%TO.N,unconnected-(CN9-Pin_12-Pad12)*%
X42279000Y-114300000D03*
%TO.P,CN9,13,Pin_13*%
%TO.N,unconnected-(CN9-Pin_13-Pad13)*%
X39739000Y-116840000D03*
%TO.P,CN9,14,Pin_14*%
%TO.N,unconnected-(CN9-Pin_14-Pad14)*%
X42279000Y-116840000D03*
%TO.P,CN9,15,Pin_15*%
%TO.N,unconnected-(CN9-Pin_15-Pad15)*%
X39739000Y-119380000D03*
%TO.P,CN9,16,Pin_16*%
%TO.N,unconnected-(CN9-Pin_16-Pad16)*%
X42279000Y-119380000D03*
%TO.P,CN9,17,Pin_17*%
%TO.N,unconnected-(CN9-Pin_17-Pad17)*%
X39739000Y-121920000D03*
%TO.P,CN9,18,Pin_18*%
%TO.N,unconnected-(CN9-Pin_18-Pad18)*%
X42279000Y-121920000D03*
%TO.P,CN9,19,Pin_19*%
%TO.N,unconnected-(CN9-Pin_19-Pad19)*%
X39739000Y-124460000D03*
%TO.P,CN9,20,Pin_20*%
%TO.N,unconnected-(CN9-Pin_20-Pad20)*%
X42279000Y-124460000D03*
%TO.P,CN9,21,Pin_21*%
%TO.N,unconnected-(CN9-Pin_21-Pad21)*%
X39739000Y-127000000D03*
%TO.P,CN9,22,Pin_22*%
%TO.N,unconnected-(CN9-Pin_22-Pad22)*%
X42279000Y-127000000D03*
%TO.P,CN9,23,Pin_23*%
%TO.N,unconnected-(CN9-Pin_23-Pad23)*%
X39739000Y-129540000D03*
%TO.P,CN9,24,Pin_24*%
%TO.N,unconnected-(CN9-Pin_24-Pad24)*%
X42279000Y-129540000D03*
%TO.P,CN9,25,Pin_25*%
%TO.N,unconnected-(CN9-Pin_25-Pad25)*%
X39739000Y-132080000D03*
%TO.P,CN9,26,Pin_26*%
%TO.N,unconnected-(CN9-Pin_26-Pad26)*%
X42279000Y-132080000D03*
%TO.P,CN9,27,Pin_27*%
%TO.N,unconnected-(CN9-Pin_27-Pad27)*%
X39739000Y-134620000D03*
%TO.P,CN9,28,Pin_28*%
%TO.N,unconnected-(CN9-Pin_28-Pad28)*%
X42279000Y-134620000D03*
%TO.P,CN9,29,Pin_29*%
%TO.N,unconnected-(CN9-Pin_29-Pad29)*%
X39739000Y-137160000D03*
%TO.P,CN9,30,Pin_30*%
%TO.N,MCU_SHDN*%
X42279000Y-137160000D03*
%TD*%
D20*
%TO.N,GND*%
X55499000Y-81661000D03*
X53848000Y-76708000D03*
X53848000Y-75946000D03*
X54991000Y-75946000D03*
X32004000Y-165608000D03*
X64389000Y-85852000D03*
X73055500Y-124236500D03*
X71628000Y-160655000D03*
X54991000Y-76708000D03*
X80010000Y-107950000D03*
X45974000Y-89662000D03*
X62992000Y-89916000D03*
X47244000Y-76200000D03*
X54864000Y-98806000D03*
X65786000Y-122047000D03*
X65024000Y-130683000D03*
X53721000Y-98806000D03*
X79375000Y-91948000D03*
X53467000Y-122047000D03*
X47371000Y-90297000D03*
X61595000Y-50800000D03*
X64426000Y-77216000D03*
X44831000Y-76200000D03*
X59436000Y-39751000D03*
X53721000Y-98044000D03*
X53594000Y-51308000D03*
X62992000Y-79248000D03*
X50546000Y-79375000D03*
X52705000Y-75946000D03*
X41910000Y-152273000D03*
X55626000Y-92964000D03*
X49657000Y-79375000D03*
X82931000Y-75819000D03*
X65786000Y-121031000D03*
X49403000Y-162052000D03*
X77421000Y-75819000D03*
X64389000Y-48514000D03*
X55118000Y-130810000D03*
X65151000Y-39751000D03*
X76835000Y-86868000D03*
X64214000Y-52959000D03*
X52705000Y-76708000D03*
X53467000Y-121158000D03*
X46101000Y-84201000D03*
X45974000Y-76200000D03*
X86360000Y-152273000D03*
X80264000Y-104140000D03*
X64389000Y-86868000D03*
X81661000Y-120142000D03*
X48133000Y-84328000D03*
X86360000Y-160655000D03*
X64426000Y-77978000D03*
X56642000Y-152273000D03*
X53594000Y-50292000D03*
X75087500Y-129062500D03*
X71628000Y-152273000D03*
X68956000Y-95626000D03*
X78232000Y-99949000D03*
X52578000Y-98806000D03*
X47244000Y-84328000D03*
X72801500Y-127538500D03*
X77421000Y-76835000D03*
X56769000Y-160655000D03*
X53594000Y-41275000D03*
X44958000Y-89662000D03*
X54864000Y-98044000D03*
X40767000Y-166116000D03*
X44831000Y-84201000D03*
X62992000Y-80264000D03*
X51816000Y-87757000D03*
X48387000Y-76200000D03*
X52578000Y-98044000D03*
X73055500Y-124998500D03*
%TO.N,3V3_SYS*%
X76405000Y-76835000D03*
X61849000Y-151257000D03*
X76405000Y-75819000D03*
X48260000Y-79375000D03*
X55626000Y-50419000D03*
X45974000Y-79375000D03*
X57912000Y-76708000D03*
X46990000Y-151130000D03*
X58928000Y-75946000D03*
X47371000Y-79375000D03*
X59944000Y-75946000D03*
X49784000Y-81407000D03*
X57658000Y-98044000D03*
X67945000Y-121031000D03*
X57912000Y-75946000D03*
X68580000Y-93919000D03*
X74930000Y-86868000D03*
X57658000Y-98806000D03*
X39878000Y-152273000D03*
X44958000Y-79375000D03*
X57531000Y-121920000D03*
X59944000Y-76708000D03*
X77119500Y-124998500D03*
X61849000Y-159639000D03*
X76708000Y-151003000D03*
X53848000Y-52451000D03*
X59944000Y-98806000D03*
X67945000Y-122047000D03*
X76708000Y-159639000D03*
X91440000Y-159639000D03*
X91440000Y-151003000D03*
X58928000Y-76708000D03*
X54737000Y-160655000D03*
X44450000Y-162052000D03*
X69596000Y-152273000D03*
X55626000Y-51181000D03*
X84328000Y-160655000D03*
X77119500Y-124236500D03*
X53848000Y-49149000D03*
X59944000Y-98044000D03*
X50546000Y-81407000D03*
X54610000Y-152273000D03*
X58801000Y-98806000D03*
X69596000Y-160655000D03*
X68580000Y-98806000D03*
X65405000Y-77978000D03*
X65405000Y-86868000D03*
X65405000Y-85852000D03*
X84328000Y-152273000D03*
X58801000Y-98044000D03*
X65405000Y-77216000D03*
X57531000Y-121158000D03*
%TO.N,3V3_LDO*%
X55499000Y-84328000D03*
%TO.N,/Rx & Tx LED/TX_RC*%
X82169000Y-116967000D03*
X68580000Y-40513000D03*
X57150000Y-52451000D03*
X60579000Y-52578000D03*
%TO.N,/Rx & Tx LED/RX_RC*%
X70231000Y-40259000D03*
X60579000Y-48895000D03*
X57150000Y-49149000D03*
X82677000Y-119380000D03*
%TO.N,Net-(D10-K)*%
X53848000Y-132969000D03*
X57404000Y-132588000D03*
%TO.N,Net-(D11-K)*%
X56642000Y-133477000D03*
X56642000Y-128524000D03*
%TO.N,Net-(D12-K)*%
X56007000Y-130810000D03*
X59690000Y-125984000D03*
%TO.N,L3-TXD*%
X71628000Y-88392000D03*
%TO.N,L2-RXD*%
X71628000Y-89408000D03*
%TO.N,MODE0*%
X67818000Y-95631000D03*
X48514000Y-123444000D03*
%TO.N,Net-(J7-Pin_3)*%
X44958000Y-139065000D03*
%TO.N,MCU_SLR*%
X81915000Y-90678000D03*
X73025000Y-99695000D03*
%TO.N,MCU_MODE0*%
X75438000Y-98806000D03*
X80010000Y-96901000D03*
%TO.N,MCU_DIR*%
X74422000Y-98806000D03*
X77216000Y-98425000D03*
%TO.N,MODE1*%
X67818000Y-96774000D03*
X49784000Y-132080000D03*
%TO.N,Net-(J8-Pin_3)*%
X46355000Y-97663000D03*
%TO.N,MODE2*%
X61468000Y-134874000D03*
X67818000Y-97663000D03*
X61468000Y-126365000D03*
X77216000Y-82169000D03*
X77216000Y-80264000D03*
%TO.N,Net-(J9-Pin_3)*%
X46228000Y-92456000D03*
%TO.N,DIR*%
X75692000Y-91186000D03*
X66167000Y-102997000D03*
X58928000Y-120396000D03*
%TO.N,TERM_TX*%
X59944000Y-129794000D03*
X79629000Y-90932000D03*
X59944000Y-134874000D03*
X65659000Y-98933000D03*
X74803000Y-95885000D03*
%TO.N,TERM_RX*%
X60325000Y-150622000D03*
X70231000Y-92583000D03*
X80391000Y-91440000D03*
X74930000Y-92583000D03*
X73025000Y-92583000D03*
X75946000Y-95885000D03*
X71247000Y-132334000D03*
%TO.N,SLR*%
X69469000Y-91821000D03*
X70739000Y-123190000D03*
%TO.N,L7-CTS*%
X73660000Y-86233000D03*
%TO.N,L4-DTR*%
X71628000Y-87376000D03*
%TO.N,L8-RI*%
X88138000Y-64135000D03*
X73660000Y-85344000D03*
%TO.N,L1-DCD*%
X69088000Y-88011000D03*
%TO.N,L6-RTS*%
X72771000Y-86360000D03*
%TO.N,L5-DSR*%
X72771000Y-87376000D03*
%TO.N,RX+ (A)*%
X44544000Y-39243000D03*
%TO.N,TX+ (Y)*%
X65659000Y-59182000D03*
%TO.N,Net-(J4-Pin_2)*%
X61849000Y-61595000D03*
%TO.N,Net-(D15-K)*%
X58547000Y-132588000D03*
X58547000Y-134874000D03*
%TO.N,Net-(D16-K)*%
X71247000Y-131064000D03*
X72263000Y-156591000D03*
%TO.N,Net-(D17-K)*%
X53086000Y-150876000D03*
X70104000Y-128524000D03*
%TO.N,Net-(D18-K)*%
X66421000Y-125984000D03*
X52705000Y-149733000D03*
%TO.N,Net-(D19-K)*%
X77373500Y-126649500D03*
X72801500Y-128554500D03*
%TO.N,Net-(U2-PR1)*%
X51816000Y-86360000D03*
%TO.N,Net-(U2-ST)*%
X51816000Y-83693000D03*
%TO.N,Net-(J3-Pin_2)*%
X54737000Y-60706000D03*
%TO.N,Net-(J10-Pin_2)*%
X73025000Y-95885000D03*
X81788000Y-95377000D03*
%TO.N,RTSBus*%
X82423000Y-48514000D03*
%TO.N,TX-*%
X30734000Y-70993000D03*
%TO.N,TX+*%
X38354000Y-70866000D03*
%TO.N,CTSBus*%
X79756000Y-47244000D03*
%TO.N,RX+*%
X40640000Y-70866000D03*
%TO.N,RX-*%
X48387000Y-70866000D03*
%TO.N,RIBus*%
X76835000Y-45847000D03*
%TD*%
D21*
%TO.N,3V3_LDO*%
X46990000Y-98552000D02*
X43815000Y-101727000D01*
X37274500Y-108775500D02*
X37274500Y-110426500D01*
X56261000Y-94107000D02*
X53467000Y-94107000D01*
X53467000Y-94107000D02*
X49022000Y-98552000D01*
X49022000Y-98552000D02*
X46990000Y-98552000D01*
X43815000Y-107188000D02*
X43053000Y-107950000D01*
X37274500Y-110426500D02*
X34701000Y-113000000D01*
X38100000Y-107950000D02*
X37274500Y-108775500D01*
X55499000Y-84328000D02*
X56642000Y-84328000D01*
X57150000Y-84836000D02*
X57150000Y-93218000D01*
X56642000Y-84328000D02*
X57150000Y-84836000D01*
X34701000Y-113000000D02*
X34544000Y-113000000D01*
X43053000Y-107950000D02*
X38100000Y-107950000D01*
X57150000Y-93218000D02*
X56261000Y-94107000D01*
X43815000Y-101727000D02*
X43815000Y-107188000D01*
D22*
%TO.N,/Rx & Tx LED/TX_RC*%
X89789000Y-43243500D02*
X85788500Y-39243000D01*
X57150000Y-52451000D02*
X57277000Y-52578000D01*
X85788500Y-39243000D02*
X69850000Y-39243000D01*
X81046200Y-116967000D02*
X80411200Y-117602000D01*
X69850000Y-39243000D02*
X68580000Y-40513000D01*
X80411200Y-123464200D02*
X81407000Y-124460000D01*
X82169000Y-116967000D02*
X81046200Y-116967000D01*
X83058000Y-140462000D02*
X83058000Y-152781000D01*
X80411200Y-117602000D02*
X80411200Y-123464200D01*
X96901000Y-150368000D02*
X96901000Y-64770000D01*
X93853000Y-153416000D02*
X96901000Y-150368000D01*
X96901000Y-64770000D02*
X89789000Y-57658000D01*
X83058000Y-152781000D02*
X83693000Y-153416000D01*
X81407000Y-138811000D02*
X83058000Y-140462000D01*
X81407000Y-124460000D02*
X81407000Y-138811000D01*
X89789000Y-57658000D02*
X89789000Y-43243500D01*
X57277000Y-52578000D02*
X60579000Y-52578000D01*
X83693000Y-153416000D02*
X93853000Y-153416000D01*
%TO.N,/Rx & Tx LED/RX_RC*%
X83566000Y-152527000D02*
X83947000Y-152908000D01*
X81118400Y-119380000D02*
X80864400Y-119634000D01*
X89281000Y-43561000D02*
X86360000Y-40640000D01*
X80864400Y-119634000D02*
X80864400Y-123276478D01*
X83947000Y-152908000D02*
X93720078Y-152908000D01*
X81915000Y-138557000D02*
X83566000Y-140208000D01*
X96393000Y-150235078D02*
X96393000Y-64902922D01*
X60325000Y-49149000D02*
X60579000Y-48895000D01*
X80864400Y-123276478D02*
X81915000Y-124327078D01*
X96393000Y-64902922D02*
X89281000Y-57790922D01*
X86360000Y-40640000D02*
X70612000Y-40640000D01*
X57150000Y-49149000D02*
X60325000Y-49149000D01*
X82677000Y-119380000D02*
X81118400Y-119380000D01*
X83566000Y-140208000D02*
X83566000Y-152527000D01*
X93720078Y-152908000D02*
X96393000Y-150235078D01*
X81915000Y-124327078D02*
X81915000Y-138557000D01*
X89281000Y-57790922D02*
X89281000Y-43561000D01*
X70612000Y-40640000D02*
X70231000Y-40259000D01*
%TO.N,Net-(D10-K)*%
X57023000Y-134620000D02*
X57658000Y-133985000D01*
X53848000Y-132969000D02*
X55499000Y-134620000D01*
X57658000Y-132842000D02*
X57404000Y-132588000D01*
X57658000Y-133985000D02*
X57658000Y-132842000D01*
X55499000Y-134620000D02*
X57023000Y-134620000D01*
%TO.N,Net-(D11-K)*%
X56642000Y-133477000D02*
X56642000Y-128524000D01*
%TO.N,Net-(D12-K)*%
X56007000Y-130810000D02*
X56007000Y-126492000D01*
X56007000Y-126492000D02*
X56515000Y-125984000D01*
X56515000Y-125984000D02*
X59690000Y-125984000D01*
D21*
%TO.N,L3-TXD*%
X32893000Y-167767000D02*
X31242000Y-166116000D01*
X89154000Y-112895000D02*
X89154000Y-117602000D01*
X31242000Y-166116000D02*
X31242000Y-140302000D01*
X89154000Y-117602000D02*
X88646000Y-118110000D01*
X88646000Y-118110000D02*
X84328000Y-118110000D01*
D22*
X71882000Y-88646000D02*
X82544078Y-88646000D01*
X83439000Y-109220000D02*
X84709000Y-110490000D01*
D21*
X79883000Y-117348000D02*
X79883000Y-123698000D01*
X82423000Y-165735000D02*
X80391000Y-167767000D01*
X81026000Y-116205000D02*
X79883000Y-117348000D01*
D22*
X82544078Y-88646000D02*
X83439000Y-89540922D01*
D21*
X34544000Y-137000000D02*
X31242000Y-140302000D01*
X80772000Y-138938000D02*
X82423000Y-140589000D01*
X84328000Y-118110000D02*
X82423000Y-116205000D01*
X82423000Y-140589000D02*
X82423000Y-165735000D01*
X79883000Y-123698000D02*
X80772000Y-124587000D01*
X80391000Y-167767000D02*
X32893000Y-167767000D01*
X80772000Y-124587000D02*
X80772000Y-138938000D01*
D22*
X71628000Y-88392000D02*
X71882000Y-88646000D01*
X84709000Y-110490000D02*
X86749000Y-110490000D01*
D21*
X82423000Y-116205000D02*
X81026000Y-116205000D01*
X87999000Y-111740000D02*
X89154000Y-112895000D01*
D22*
X86749000Y-110490000D02*
X87999000Y-111740000D01*
X83439000Y-89540922D02*
X83439000Y-109220000D01*
D21*
%TO.N,L2-RXD*%
X80073600Y-163068000D02*
X42037000Y-163068000D01*
D22*
X71628000Y-89408000D02*
X71882000Y-89154000D01*
D21*
X33147000Y-164465000D02*
X31877000Y-163195000D01*
X81788000Y-140843000D02*
X81788000Y-161353600D01*
D22*
X71882000Y-89154000D02*
X82296000Y-89154000D01*
X82985800Y-111941800D02*
X84074000Y-113030000D01*
D21*
X80137000Y-139192000D02*
X81788000Y-140843000D01*
D22*
X86749000Y-113030000D02*
X87999000Y-114280000D01*
X84074000Y-113030000D02*
X86749000Y-113030000D01*
D21*
X86709000Y-115570000D02*
X80772000Y-115570000D01*
X80137000Y-124896108D02*
X80137000Y-139192000D01*
X79248000Y-124007108D02*
X80137000Y-124896108D01*
X87999000Y-114280000D02*
X86709000Y-115570000D01*
X81788000Y-161353600D02*
X80073600Y-163068000D01*
X80772000Y-115570000D02*
X79248000Y-117094000D01*
D22*
X82296000Y-89154000D02*
X82985800Y-89843800D01*
D21*
X31877000Y-163195000D02*
X31877000Y-145667000D01*
X40640000Y-164465000D02*
X33147000Y-164465000D01*
X34544000Y-143000000D02*
X31877000Y-145667000D01*
D22*
X82985800Y-89843800D02*
X82985800Y-111941800D01*
D21*
X79248000Y-117094000D02*
X79248000Y-124007108D01*
X42037000Y-163068000D02*
X40640000Y-164465000D01*
D22*
%TO.N,MODE0*%
X48514000Y-123444000D02*
X48514000Y-100076000D01*
X48514000Y-100076000D02*
X52070000Y-96520000D01*
X66929000Y-96520000D02*
X67818000Y-95631000D01*
X52070000Y-96520000D02*
X66929000Y-96520000D01*
%TO.N,Net-(J7-Pin_3)*%
X36576000Y-162687000D02*
X34036000Y-162687000D01*
X38608000Y-139192000D02*
X39116000Y-139192000D01*
X37846000Y-139954000D02*
X38608000Y-139192000D01*
X37846000Y-139954000D02*
X37846000Y-161417000D01*
X37846000Y-161417000D02*
X36576000Y-162687000D01*
X39116000Y-139192000D02*
X39243000Y-139065000D01*
X39243000Y-139065000D02*
X44958000Y-139065000D01*
%TO.N,MCU_SLR*%
X73660000Y-95250000D02*
X73406000Y-94996000D01*
X81915000Y-91567000D02*
X80645000Y-92837000D01*
X73914000Y-96520000D02*
X73660000Y-96266000D01*
X72517000Y-94996000D02*
X71882000Y-95631000D01*
X78232000Y-95758000D02*
X77470000Y-96520000D01*
X80137000Y-95758000D02*
X78232000Y-95758000D01*
X80645000Y-92837000D02*
X80645000Y-95250000D01*
X71882000Y-95631000D02*
X71882000Y-98552000D01*
X71882000Y-98552000D02*
X73025000Y-99695000D01*
X80645000Y-95250000D02*
X80137000Y-95758000D01*
X73406000Y-94996000D02*
X72517000Y-94996000D01*
X77470000Y-96520000D02*
X73914000Y-96520000D01*
X73660000Y-96266000D02*
X73660000Y-95250000D01*
X81915000Y-90678000D02*
X81915000Y-91567000D01*
%TO.N,MCU_MODE0*%
X75438000Y-98806000D02*
X75438000Y-98171000D01*
X75946000Y-97663000D02*
X79248000Y-97663000D01*
X75438000Y-98171000D02*
X75946000Y-97663000D01*
X79248000Y-97663000D02*
X80010000Y-96901000D01*
%TO.N,MCU_DIR*%
X75057000Y-99441000D02*
X74422000Y-98806000D01*
X77216000Y-98425000D02*
X77216000Y-99060000D01*
X76835000Y-99441000D02*
X75057000Y-99441000D01*
X77216000Y-99060000D02*
X76835000Y-99441000D01*
%TO.N,MODE1*%
X61341000Y-100584000D02*
X64897000Y-97028000D01*
X49784000Y-101727000D02*
X50927000Y-100584000D01*
X49784000Y-132080000D02*
X49784000Y-101727000D01*
X50927000Y-100584000D02*
X61341000Y-100584000D01*
X64897000Y-97028000D02*
X67564000Y-97028000D01*
X67564000Y-97028000D02*
X67818000Y-96774000D01*
D23*
%TO.N,Net-(J8-Pin_3)*%
X48641000Y-97663000D02*
X46355000Y-97663000D01*
X61976000Y-57277000D02*
X61214000Y-58039000D01*
X61214000Y-58039000D02*
X52705000Y-58039000D01*
X52705000Y-58039000D02*
X51181000Y-59563000D01*
X51181000Y-76708000D02*
X53340000Y-78867000D01*
X53340000Y-92964000D02*
X48641000Y-97663000D01*
X53340000Y-78867000D02*
X53340000Y-92964000D01*
X51181000Y-59563000D02*
X51181000Y-76708000D01*
X61976000Y-55880000D02*
X61976000Y-57277000D01*
D22*
%TO.N,MODE2*%
X67818000Y-97663000D02*
X65151000Y-97663000D01*
X65151000Y-97663000D02*
X61468000Y-101346000D01*
X77216000Y-82169000D02*
X77216000Y-80264000D01*
X61468000Y-101346000D02*
X61468000Y-126365000D01*
D24*
X61468000Y-126365000D02*
X61468000Y-134874000D01*
D23*
%TO.N,Net-(J9-Pin_3)*%
X51689000Y-54229000D02*
X50165000Y-55753000D01*
X62738000Y-47879000D02*
X62738000Y-52070000D01*
X48387000Y-92456000D02*
X46228000Y-92456000D01*
X60579000Y-54229000D02*
X51689000Y-54229000D01*
X61976000Y-47117000D02*
X62738000Y-47879000D01*
X52578000Y-79375000D02*
X52578000Y-88265000D01*
X50165000Y-76962000D02*
X52578000Y-79375000D01*
X62738000Y-52070000D02*
X60579000Y-54229000D01*
X52578000Y-88265000D02*
X48387000Y-92456000D01*
X50165000Y-55753000D02*
X50165000Y-76962000D01*
X61976000Y-45720000D02*
X61976000Y-47117000D01*
D22*
%TO.N,DIR*%
X64008000Y-134874000D02*
X64008000Y-105156000D01*
X62865000Y-136779000D02*
X64389000Y-135255000D01*
X52959000Y-126746000D02*
X52959000Y-135128000D01*
X54610000Y-136779000D02*
X62865000Y-136779000D01*
X58928000Y-124333000D02*
X57912000Y-125349000D01*
X52959000Y-135128000D02*
X54610000Y-136779000D01*
X54356000Y-125349000D02*
X52959000Y-126746000D01*
X64008000Y-105156000D02*
X66167000Y-102997000D01*
X58928000Y-120396000D02*
X58928000Y-124333000D01*
X57912000Y-125349000D02*
X54356000Y-125349000D01*
X64389000Y-135255000D02*
X64008000Y-134874000D01*
%TO.N,TERM_TX*%
X63500000Y-134747000D02*
X63500000Y-101092000D01*
X62611000Y-135636000D02*
X63500000Y-134747000D01*
X79248000Y-91313000D02*
X78994000Y-91313000D01*
X78232000Y-92456000D02*
X74803000Y-95885000D01*
X79629000Y-90932000D02*
X79248000Y-91313000D01*
X78994000Y-91313000D02*
X78232000Y-92075000D01*
X63500000Y-101092000D02*
X65659000Y-98933000D01*
X78232000Y-92075000D02*
X78232000Y-92456000D01*
X59944000Y-134874000D02*
X59944000Y-129794000D01*
X60706000Y-135636000D02*
X62611000Y-135636000D01*
X59944000Y-134874000D02*
X60706000Y-135636000D01*
D24*
%TO.N,TERM_RX*%
X70358000Y-130175000D02*
X70358000Y-131445000D01*
D22*
X76581000Y-95250000D02*
X75946000Y-95885000D01*
X80391000Y-92075000D02*
X80010000Y-92456000D01*
X80010000Y-94742000D02*
X79502000Y-95250000D01*
D24*
X70231000Y-92583000D02*
X70231000Y-93853000D01*
X77089000Y-122936000D02*
X72390000Y-122936000D01*
X70485000Y-150241000D02*
X60706000Y-150241000D01*
X78057400Y-121967600D02*
X77089000Y-122936000D01*
X71247000Y-132334000D02*
X71247000Y-149479000D01*
X60706000Y-150241000D02*
X60325000Y-150622000D01*
X70358000Y-131445000D02*
X71247000Y-132334000D01*
X71247000Y-149479000D02*
X70485000Y-150241000D01*
X70612000Y-99822000D02*
X73152000Y-102362000D01*
X70866000Y-124460000D02*
X70866000Y-129667000D01*
X72390000Y-122936000D02*
X70866000Y-124460000D01*
D22*
X79502000Y-95250000D02*
X76581000Y-95250000D01*
D24*
X76811262Y-102362000D02*
X78057400Y-103608138D01*
X70612000Y-94234000D02*
X70612000Y-99822000D01*
X70866000Y-129667000D02*
X70358000Y-130175000D01*
D22*
X80391000Y-91440000D02*
X80391000Y-92075000D01*
D24*
X73152000Y-102362000D02*
X76811262Y-102362000D01*
X73025000Y-92583000D02*
X74930000Y-92583000D01*
D22*
X80010000Y-92456000D02*
X80010000Y-94742000D01*
D24*
X70231000Y-93853000D02*
X70612000Y-94234000D01*
X78057400Y-103608138D02*
X78057400Y-121967600D01*
D22*
%TO.N,SLR*%
X73025000Y-102997000D02*
X76581000Y-102997000D01*
X71501000Y-122428000D02*
X70739000Y-123190000D01*
X77576800Y-121666000D02*
X76814800Y-122428000D01*
X76581000Y-102997000D02*
X77576800Y-103992800D01*
X69469000Y-93980000D02*
X70104000Y-94615000D01*
X69469000Y-91821000D02*
X69469000Y-93980000D01*
X70104000Y-94615000D02*
X70104000Y-100076000D01*
X76814800Y-122428000D02*
X71501000Y-122428000D01*
X77576800Y-103992800D02*
X77576800Y-121666000D01*
X70104000Y-100076000D02*
X73025000Y-102997000D01*
%TO.N,L7-CTS*%
X89535000Y-89154000D02*
X89535000Y-103759000D01*
X88019000Y-104140000D02*
X87999000Y-104120000D01*
X73660000Y-86233000D02*
X81661000Y-86233000D01*
X84074000Y-88646000D02*
X89027000Y-88646000D01*
X89154000Y-104140000D02*
X88019000Y-104140000D01*
D21*
X90455800Y-134364800D02*
X93091000Y-137000000D01*
D22*
X81661000Y-86233000D02*
X84074000Y-88646000D01*
X89027000Y-88646000D02*
X89535000Y-89154000D01*
D21*
X90455800Y-106576800D02*
X90455800Y-134364800D01*
D22*
X89535000Y-103759000D02*
X89154000Y-104140000D01*
D21*
X87999000Y-104120000D02*
X90455800Y-106576800D01*
%TO.N,L4-DTR*%
X81153000Y-141061054D02*
X79533800Y-139441854D01*
D22*
X78359000Y-84074000D02*
X79756000Y-82677000D01*
D21*
X79533800Y-139441854D02*
X79533800Y-125253800D01*
X71247000Y-92583000D02*
X69913500Y-91249500D01*
X34483200Y-149000000D02*
X32480200Y-151003000D01*
D22*
X71247000Y-86995000D02*
X71247000Y-85344000D01*
D21*
X33401000Y-163830000D02*
X40386000Y-163830000D01*
D22*
X71628000Y-87376000D02*
X71247000Y-86995000D01*
D21*
X71247000Y-99568000D02*
X71247000Y-92583000D01*
X40386000Y-163830000D02*
X42926000Y-161290000D01*
D22*
X89916000Y-80379000D02*
X87999000Y-82296000D01*
D21*
X78613000Y-103378000D02*
X76962000Y-101727000D01*
X42926000Y-161290000D02*
X50800000Y-161290000D01*
D22*
X89916000Y-67564000D02*
X89916000Y-80379000D01*
X79756000Y-82677000D02*
X79756000Y-68453000D01*
D21*
X51943000Y-162433000D02*
X79756000Y-162433000D01*
D22*
X88773000Y-66421000D02*
X89916000Y-67564000D01*
D21*
X50800000Y-161290000D02*
X51943000Y-162433000D01*
X73406000Y-101727000D02*
X71247000Y-99568000D01*
X69913500Y-89090500D02*
X71628000Y-87376000D01*
X69913500Y-91249500D02*
X69913500Y-89090500D01*
X78613000Y-124333000D02*
X78613000Y-103378000D01*
X81153000Y-161036000D02*
X81153000Y-141061054D01*
D22*
X34544000Y-149000000D02*
X34483200Y-149000000D01*
D21*
X79756000Y-162433000D02*
X81153000Y-161036000D01*
D22*
X79756000Y-68453000D02*
X81788000Y-66421000D01*
X72517000Y-84074000D02*
X78359000Y-84074000D01*
D21*
X76962000Y-101727000D02*
X73406000Y-101727000D01*
D22*
X81788000Y-66421000D02*
X88773000Y-66421000D01*
D21*
X79533800Y-125253800D02*
X78613000Y-124333000D01*
X32480200Y-151003000D02*
X32480200Y-162909200D01*
D22*
X71247000Y-85344000D02*
X72517000Y-84074000D01*
D21*
X32480200Y-162909200D02*
X33401000Y-163830000D01*
%TO.N,L8-RI*%
X80899000Y-83058000D02*
X80899000Y-68961000D01*
X95758000Y-69469000D02*
X95758000Y-146685000D01*
X87999000Y-68338000D02*
X87999000Y-69596000D01*
X88011000Y-68326000D02*
X87999000Y-68338000D01*
X93091000Y-68199000D02*
X94488000Y-68199000D01*
X94488000Y-68199000D02*
X95758000Y-69469000D01*
X82296000Y-67564000D02*
X87249000Y-67564000D01*
X80899000Y-68961000D02*
X82296000Y-67564000D01*
X88138000Y-64135000D02*
X89027000Y-64135000D01*
X78613000Y-85344000D02*
X80899000Y-83058000D01*
X73660000Y-85344000D02*
X78613000Y-85344000D01*
X87249000Y-67564000D02*
X88011000Y-68326000D01*
X95758000Y-146685000D02*
X93472000Y-148971000D01*
X89027000Y-64135000D02*
X93091000Y-68199000D01*
D22*
%TO.N,L1-DCD*%
X89081800Y-65967800D02*
X90424000Y-67310000D01*
X90424000Y-67310000D02*
X90424000Y-82411000D01*
X70612000Y-83439000D02*
X78232000Y-83439000D01*
X81352200Y-65967800D02*
X89081800Y-65967800D01*
X78232000Y-83439000D02*
X79248000Y-82423000D01*
X69088000Y-88011000D02*
X69723000Y-87376000D01*
X90424000Y-82411000D02*
X87999000Y-84836000D01*
X69723000Y-84328000D02*
X70612000Y-83439000D01*
X79248000Y-82423000D02*
X79248000Y-68072000D01*
X79248000Y-68072000D02*
X81352200Y-65967800D01*
X69723000Y-87376000D02*
X69723000Y-84328000D01*
%TO.N,L6-RTS*%
X85979000Y-91186000D02*
X86741000Y-91948000D01*
X86741000Y-91948000D02*
X86741000Y-107942000D01*
D21*
X89789000Y-110990000D02*
X89789000Y-139698000D01*
D22*
X74549000Y-88138000D02*
X82677000Y-88138000D01*
X83947000Y-90678000D02*
X84455000Y-91186000D01*
D21*
X89789000Y-139698000D02*
X93091000Y-143000000D01*
X87999000Y-109200000D02*
X89789000Y-110990000D01*
D22*
X72771000Y-86360000D02*
X74549000Y-88138000D01*
X84455000Y-91186000D02*
X85979000Y-91186000D01*
X83947000Y-89408000D02*
X83947000Y-90678000D01*
X86741000Y-107942000D02*
X87999000Y-109200000D01*
X82677000Y-88138000D02*
X83947000Y-89408000D01*
D21*
%TO.N,L5-DSR*%
X86741000Y-85598000D02*
X87249000Y-86106000D01*
D22*
X88519000Y-66929000D02*
X89408000Y-67818000D01*
X72771000Y-84582000D02*
X78613000Y-84582000D01*
X80264000Y-82931000D02*
X80264000Y-68707000D01*
X72136000Y-85217000D02*
X72771000Y-84582000D01*
X72136000Y-86741000D02*
X72136000Y-85217000D01*
X78613000Y-84582000D02*
X80264000Y-82931000D01*
D21*
X90043000Y-86106000D02*
X91059000Y-87122000D01*
D22*
X89408000Y-67818000D02*
X89408000Y-70727000D01*
D21*
X91059000Y-128968000D02*
X93091000Y-131000000D01*
D22*
X82042000Y-66929000D02*
X88519000Y-66929000D01*
D21*
X86741000Y-73394000D02*
X86741000Y-85598000D01*
D22*
X80264000Y-68707000D02*
X82042000Y-66929000D01*
X72771000Y-87376000D02*
X72136000Y-86741000D01*
D21*
X87999000Y-72136000D02*
X86741000Y-73394000D01*
X87249000Y-86106000D02*
X90043000Y-86106000D01*
X91059000Y-87122000D02*
X91059000Y-128968000D01*
D22*
X89408000Y-70727000D02*
X87999000Y-72136000D01*
D23*
%TO.N,RX+ (A)*%
X85979000Y-41275000D02*
X68072000Y-41275000D01*
X88646000Y-57277000D02*
X88646000Y-43942000D01*
D25*
X42044000Y-54769000D02*
X44544000Y-52269000D01*
D23*
X88646000Y-43942000D02*
X85979000Y-41275000D01*
X65278000Y-38481000D02*
X45306000Y-38481000D01*
X87376000Y-58547000D02*
X88646000Y-57277000D01*
X45306000Y-38481000D02*
X44544000Y-39243000D01*
D25*
X42044000Y-58500000D02*
X42044000Y-54769000D01*
D23*
X77978000Y-58547000D02*
X87376000Y-58547000D01*
D25*
X44544000Y-52269000D02*
X44544000Y-44069000D01*
D23*
X77089000Y-63373000D02*
X77089000Y-59436000D01*
X77089000Y-59436000D02*
X77978000Y-58547000D01*
X68072000Y-41275000D02*
X65278000Y-38481000D01*
D25*
%TO.N,TX+ (Y)*%
X37044000Y-58500000D02*
X37044000Y-54769000D01*
X39544000Y-52269000D02*
X39544000Y-44069000D01*
D21*
X74041000Y-62865000D02*
X77089000Y-65913000D01*
X73025000Y-59182000D02*
X74041000Y-60198000D01*
D25*
X37044000Y-54769000D02*
X39544000Y-52269000D01*
D21*
X74041000Y-60198000D02*
X74041000Y-62865000D01*
X65659000Y-59182000D02*
X73025000Y-59182000D01*
%TO.N,Net-(J4-Pin_2)*%
X58674000Y-64770000D02*
X58674000Y-62611000D01*
X59690000Y-61595000D02*
X61849000Y-61595000D01*
X61087000Y-65913000D02*
X59817000Y-65913000D01*
X58674000Y-62611000D02*
X59690000Y-61595000D01*
X59817000Y-65913000D02*
X58674000Y-64770000D01*
D22*
%TO.N,Net-(D15-K)*%
X58547000Y-134874000D02*
X58547000Y-132588000D01*
%TO.N,Net-(D16-K)*%
X72263000Y-156591000D02*
X72263000Y-132080000D01*
X72263000Y-132080000D02*
X71247000Y-131064000D01*
%TO.N,Net-(D17-K)*%
X70739000Y-148717000D02*
X69850000Y-149606000D01*
X69850000Y-149606000D02*
X60198000Y-149606000D01*
X69596000Y-131953000D02*
X70739000Y-133096000D01*
X70104000Y-128905000D02*
X69596000Y-129413000D01*
X69596000Y-129413000D02*
X69596000Y-131953000D01*
X70739000Y-133096000D02*
X70739000Y-148717000D01*
X58928000Y-150876000D02*
X53086000Y-150876000D01*
X70104000Y-128524000D02*
X70104000Y-128905000D01*
X60198000Y-149606000D02*
X58928000Y-150876000D01*
%TO.N,Net-(D18-K)*%
X59944000Y-149098000D02*
X69215000Y-149098000D01*
X52705000Y-149733000D02*
X59309000Y-149733000D01*
X59309000Y-149733000D02*
X59944000Y-149098000D01*
X69215000Y-149098000D02*
X70231000Y-148082000D01*
X66421000Y-131826000D02*
X66421000Y-125984000D01*
X70231000Y-148082000D02*
X70231000Y-133604000D01*
X67183000Y-132588000D02*
X66421000Y-131826000D01*
X70231000Y-133604000D02*
X69215000Y-132588000D01*
X69215000Y-132588000D02*
X67183000Y-132588000D01*
%TO.N,Net-(D19-K)*%
X75214500Y-126649500D02*
X77373500Y-126649500D01*
X73309500Y-128554500D02*
X75214500Y-126649500D01*
X72801500Y-128554500D02*
X73309500Y-128554500D01*
D25*
%TO.N,RX- (B)*%
X47044000Y-54769000D02*
X49544000Y-52269000D01*
X47044000Y-58500000D02*
X47044000Y-54769000D01*
X49544000Y-52269000D02*
X49544000Y-44069000D01*
D21*
%TO.N,TX- (Z)*%
X64516000Y-63373000D02*
X61087000Y-63373000D01*
D25*
X32044000Y-54769000D02*
X34544000Y-52269000D01*
X32044000Y-58500000D02*
X32044000Y-54769000D01*
D21*
X69088000Y-65913000D02*
X67056000Y-65913000D01*
X67056000Y-65913000D02*
X64516000Y-63373000D01*
D25*
X34544000Y-52269000D02*
X34544000Y-44069000D01*
D21*
%TO.N,Net-(U2-PR1)*%
X43942000Y-86995000D02*
X43942000Y-97917000D01*
X43180000Y-98679000D02*
X39497000Y-98679000D01*
X38100000Y-103444000D02*
X34544000Y-107000000D01*
X38100000Y-100076000D02*
X38100000Y-103444000D01*
X51816000Y-86360000D02*
X44577000Y-86360000D01*
X39497000Y-98679000D02*
X38100000Y-100076000D01*
X43942000Y-97917000D02*
X43180000Y-98679000D01*
X44577000Y-86360000D02*
X43942000Y-86995000D01*
D22*
%TO.N,Net-(U2-ST)*%
X38227000Y-82550000D02*
X37719000Y-83058000D01*
X37719000Y-83058000D02*
X37719000Y-91825000D01*
X51308000Y-83185000D02*
X44958000Y-83185000D01*
X44958000Y-83185000D02*
X44323000Y-82550000D01*
X51816000Y-83693000D02*
X51308000Y-83185000D01*
X44323000Y-82550000D02*
X38227000Y-82550000D01*
X37719000Y-91825000D02*
X34544000Y-95000000D01*
D21*
%TO.N,Net-(J3-Pin_2)*%
X54737000Y-64250000D02*
X53074000Y-65913000D01*
X54737000Y-60706000D02*
X54737000Y-64250000D01*
D22*
%TO.N,Net-(J10-Pin_2)*%
X73025000Y-96393000D02*
X73787000Y-97155000D01*
X73025000Y-95885000D02*
X73025000Y-96393000D01*
X78613000Y-97155000D02*
X79502000Y-96266000D01*
X79502000Y-96266000D02*
X80899000Y-96266000D01*
X80899000Y-96266000D02*
X81788000Y-95377000D01*
X73787000Y-97155000D02*
X78613000Y-97155000D01*
D21*
%TO.N,RTSBus*%
X82423000Y-48514000D02*
X82423000Y-53816697D01*
X82423000Y-53816697D02*
X82454100Y-53847797D01*
%TO.N,TX-*%
X51070362Y-40108980D02*
X52998382Y-42037000D01*
X38735000Y-40132000D02*
X46101000Y-40132000D01*
X30734000Y-70993000D02*
X33782000Y-70993000D01*
X86624099Y-43063099D02*
X86624099Y-56387797D01*
X37084000Y-41783000D02*
X38735000Y-40132000D01*
X52998382Y-42037000D02*
X85598000Y-42037000D01*
X46101000Y-40132000D02*
X46124020Y-40108980D01*
X46124020Y-40108980D02*
X51070362Y-40108980D01*
X33782000Y-70993000D02*
X34544000Y-70231000D01*
X37084000Y-52324000D02*
X37084000Y-41783000D01*
X34544000Y-54864000D02*
X37084000Y-52324000D01*
X34544000Y-70231000D02*
X34544000Y-54864000D01*
X85598000Y-42037000D02*
X86624099Y-43063099D01*
%TO.N,TX+*%
X39497000Y-69723000D02*
X39497000Y-54991000D01*
X83820000Y-56363697D02*
X83844100Y-56387797D01*
X50745000Y-40712000D02*
X52705000Y-42672000D01*
X83820000Y-43815000D02*
X83820000Y-56363697D01*
X42291000Y-42109000D02*
X43688000Y-40712000D01*
X38354000Y-70866000D02*
X39497000Y-69723000D01*
X52705000Y-42672000D02*
X82677000Y-42672000D01*
X42291000Y-52197000D02*
X42291000Y-42109000D01*
X43688000Y-40712000D02*
X50745000Y-40712000D01*
X39497000Y-54991000D02*
X42291000Y-52197000D01*
X82677000Y-42672000D02*
X83820000Y-43815000D01*
%TO.N,CTSBus*%
X79756000Y-53765897D02*
X79674100Y-53847797D01*
X79756000Y-47244000D02*
X79756000Y-53765897D01*
%TO.N,RX+*%
X48387000Y-41402000D02*
X50546000Y-41402000D01*
X81026000Y-44704000D02*
X81026000Y-56349697D01*
X47244000Y-52324000D02*
X47244000Y-42545000D01*
X47244000Y-42545000D02*
X48387000Y-41402000D01*
X44577000Y-69723000D02*
X44577000Y-54991000D01*
X44577000Y-54991000D02*
X47244000Y-52324000D01*
X50546000Y-41402000D02*
X52451000Y-43307000D01*
X52451000Y-43307000D02*
X79629000Y-43307000D01*
X81026000Y-56349697D02*
X81064100Y-56387797D01*
X79629000Y-43307000D02*
X81026000Y-44704000D01*
X43434000Y-70866000D02*
X44577000Y-69723000D01*
X40640000Y-70866000D02*
X43434000Y-70866000D01*
%TO.N,RX-*%
X51689000Y-44958000D02*
X52705000Y-43942000D01*
X52705000Y-43942000D02*
X77343000Y-43942000D01*
X48387000Y-70866000D02*
X49149000Y-70104000D01*
X77343000Y-43942000D02*
X78232000Y-44831000D01*
X49149000Y-55372000D02*
X51689000Y-52832000D01*
X78232000Y-44831000D02*
X78232000Y-56335697D01*
X49149000Y-70104000D02*
X49149000Y-55372000D01*
X78232000Y-56335697D02*
X78284100Y-56387797D01*
X51689000Y-52832000D02*
X51689000Y-44958000D01*
%TO.N,RIBus*%
X76835000Y-53788696D02*
X76894101Y-53847797D01*
X76835000Y-45847000D02*
X76835000Y-53788696D01*
%TD*%
M02*
