%TF.GenerationSoftware,KiCad,Pcbnew,9.0.7*%
%TF.CreationDate,2026-02-22T14:18:53+01:00*%
%TF.ProjectId,STM32 Nucleo RS232 & RS485 Expansion Board (ST Zio Compatible) V2,53544d33-3220-44e7-9563-6c656f205253,rev?*%
%TF.SameCoordinates,Original*%
%TF.FileFunction,Paste,Top*%
%TF.FilePolarity,Positive*%
%FSLAX46Y46*%
G04 Gerber Fmt 4.6, Leading zero omitted, Abs format (unit mm)*
G04 Created by KiCad (PCBNEW 9.0.7) date 2026-02-22 14:18:53*
%MOMM*%
%LPD*%
G01*
G04 APERTURE LIST*
G04 Aperture macros list*
%AMRoundRect*
0 Rectangle with rounded corners*
0 $1 Rounding radius*
0 $2 $3 $4 $5 $6 $7 $8 $9 X,Y pos of 4 corners*
0 Add a 4 corners polygon primitive as box body*
4,1,4,$2,$3,$4,$5,$6,$7,$8,$9,$2,$3,0*
0 Add four circle primitives for the rounded corners*
1,1,$1+$1,$2,$3*
1,1,$1+$1,$4,$5*
1,1,$1+$1,$6,$7*
1,1,$1+$1,$8,$9*
0 Add four rect primitives between the rounded corners*
20,1,$1+$1,$2,$3,$4,$5,0*
20,1,$1+$1,$4,$5,$6,$7,0*
20,1,$1+$1,$6,$7,$8,$9,0*
20,1,$1+$1,$8,$9,$2,$3,0*%
G04 Aperture macros list end*
%ADD10C,0.000000*%
%ADD11R,0.800000X0.800000*%
%ADD12RoundRect,0.250000X0.250000X0.475000X-0.250000X0.475000X-0.250000X-0.475000X0.250000X-0.475000X0*%
%ADD13R,0.799998X0.799998*%
%ADD14RoundRect,0.250000X0.650000X-0.325000X0.650000X0.325000X-0.650000X0.325000X-0.650000X-0.325000X0*%
%ADD15R,3.200000X1.600000*%
%ADD16RoundRect,0.250000X0.475000X-0.250000X0.475000X0.250000X-0.475000X0.250000X-0.475000X-0.250000X0*%
%ADD17R,1.320800X0.558800*%
%ADD18RoundRect,0.250000X-0.250000X-0.475000X0.250000X-0.475000X0.250000X0.475000X-0.250000X0.475000X0*%
%ADD19RoundRect,0.250000X-0.450000X0.262500X-0.450000X-0.262500X0.450000X-0.262500X0.450000X0.262500X0*%
%ADD20RoundRect,0.150000X-0.835000X-0.150000X0.835000X-0.150000X0.835000X0.150000X-0.835000X0.150000X0*%
%ADD21RoundRect,0.250000X0.325000X0.650000X-0.325000X0.650000X-0.325000X-0.650000X0.325000X-0.650000X0*%
%ADD22RoundRect,0.250000X-0.475000X0.250000X-0.475000X-0.250000X0.475000X-0.250000X0.475000X0.250000X0*%
%ADD23R,0.660000X0.320000*%
%ADD24RoundRect,0.125000X-0.125000X-0.125000X0.125000X-0.125000X0.125000X0.125000X-0.125000X0.125000X0*%
%ADD25RoundRect,0.250000X-0.650000X0.325000X-0.650000X-0.325000X0.650000X-0.325000X0.650000X0.325000X0*%
%ADD26RoundRect,0.150000X-0.512500X-0.150000X0.512500X-0.150000X0.512500X0.150000X-0.512500X0.150000X0*%
%ADD27RoundRect,0.250000X-0.325000X-0.650000X0.325000X-0.650000X0.325000X0.650000X-0.325000X0.650000X0*%
%ADD28RoundRect,0.150000X0.512500X0.150000X-0.512500X0.150000X-0.512500X-0.150000X0.512500X-0.150000X0*%
%ADD29R,0.249999X0.599999*%
%ADD30R,0.599999X0.249999*%
%ADD31R,0.431800X1.651000*%
G04 APERTURE END LIST*
D10*
%TO.C,U3*%
G36*
X70749000Y-79742000D02*
G01*
X70749000Y-80612000D01*
X70699000Y-80662000D01*
X69828999Y-80662000D01*
X69778999Y-80612000D01*
X69778999Y-79742000D01*
X69828999Y-79692000D01*
X70699000Y-79692000D01*
X70749000Y-79742000D01*
G37*
G36*
X70749000Y-82082000D02*
G01*
X70749000Y-82952001D01*
X70699000Y-83002001D01*
X69828999Y-83002001D01*
X69778999Y-82952001D01*
X69778999Y-82082000D01*
X69828999Y-82032000D01*
X70699000Y-82032000D01*
X70749000Y-82082000D01*
G37*
G36*
X70749000Y-80912000D02*
G01*
X70749000Y-81782000D01*
X70699000Y-81832000D01*
X69828999Y-81832000D01*
X69778999Y-81782000D01*
X69778999Y-80912000D01*
X69828999Y-80862000D01*
X70699000Y-80862000D01*
X70749000Y-80912000D01*
G37*
G36*
X70749000Y-78571999D02*
G01*
X70749000Y-79442000D01*
X70699000Y-79492000D01*
X69828999Y-79492000D01*
X69778999Y-79442000D01*
X69778999Y-78571999D01*
X69828999Y-78521999D01*
X70699000Y-78521999D01*
X70749000Y-78571999D01*
G37*
G36*
X71919000Y-82082000D02*
G01*
X71919000Y-82952001D01*
X71869000Y-83002001D01*
X70999000Y-83002001D01*
X70949000Y-82952001D01*
X70949000Y-82082000D01*
X70999000Y-82032000D01*
X71869000Y-82032000D01*
X71919000Y-82082000D01*
G37*
G36*
X71919000Y-79742000D02*
G01*
X71919000Y-80612000D01*
X71869000Y-80662000D01*
X70999000Y-80662000D01*
X70949000Y-80612000D01*
X70949000Y-79742000D01*
X70999000Y-79692000D01*
X71869000Y-79692000D01*
X71919000Y-79742000D01*
G37*
G36*
X71919000Y-80912000D02*
G01*
X71919000Y-81782000D01*
X71869000Y-81832000D01*
X70999000Y-81832000D01*
X70949000Y-81782000D01*
X70949000Y-80912000D01*
X70999000Y-80862000D01*
X71869000Y-80862000D01*
X71919000Y-80912000D01*
G37*
G36*
X71919000Y-78571999D02*
G01*
X71919000Y-79442000D01*
X71869000Y-79492000D01*
X70999000Y-79492000D01*
X70949000Y-79442000D01*
X70949000Y-78571999D01*
X70999000Y-78521999D01*
X71869000Y-78521999D01*
X71919000Y-78571999D01*
G37*
G36*
X73089000Y-78571999D02*
G01*
X73089000Y-79442000D01*
X73039000Y-79492000D01*
X72169000Y-79492000D01*
X72119000Y-79442000D01*
X72119000Y-78571999D01*
X72169000Y-78521999D01*
X73039000Y-78521999D01*
X73089000Y-78571999D01*
G37*
G36*
X73089000Y-82082000D02*
G01*
X73089000Y-82952001D01*
X73039000Y-83002001D01*
X72169000Y-83002001D01*
X72119000Y-82952001D01*
X72119000Y-82082000D01*
X72169000Y-82032000D01*
X73039000Y-82032000D01*
X73089000Y-82082000D01*
G37*
G36*
X73089000Y-79742000D02*
G01*
X73089000Y-80612000D01*
X73039000Y-80662000D01*
X72169000Y-80662000D01*
X72119000Y-80612000D01*
X72119000Y-79742000D01*
X72169000Y-79692000D01*
X73039000Y-79692000D01*
X73089000Y-79742000D01*
G37*
G36*
X73089000Y-80912000D02*
G01*
X73089000Y-81782000D01*
X73039000Y-81832000D01*
X72169000Y-81832000D01*
X72119000Y-81782000D01*
X72119000Y-80912000D01*
X72169000Y-80862000D01*
X73039000Y-80862000D01*
X73089000Y-80912000D01*
G37*
G36*
X74259001Y-78571999D02*
G01*
X74259001Y-79442000D01*
X74209001Y-79492000D01*
X73339000Y-79492000D01*
X73289000Y-79442000D01*
X73289000Y-78571999D01*
X73339000Y-78521999D01*
X74209001Y-78521999D01*
X74259001Y-78571999D01*
G37*
G36*
X74259001Y-79742000D02*
G01*
X74259001Y-80612000D01*
X74209001Y-80662000D01*
X73339000Y-80662000D01*
X73289000Y-80612000D01*
X73289000Y-79742000D01*
X73339000Y-79692000D01*
X74209001Y-79692000D01*
X74259001Y-79742000D01*
G37*
G36*
X74259001Y-80912000D02*
G01*
X74259001Y-81782000D01*
X74209001Y-81832000D01*
X73339000Y-81832000D01*
X73289000Y-81782000D01*
X73289000Y-80912000D01*
X73339000Y-80862000D01*
X74209001Y-80862000D01*
X74259001Y-80912000D01*
G37*
G36*
X74259001Y-82082000D02*
G01*
X74259001Y-82952001D01*
X74209001Y-83002001D01*
X73339000Y-83002001D01*
X73289000Y-82952001D01*
X73289000Y-82082000D01*
X73339000Y-82032000D01*
X74209001Y-82032000D01*
X74259001Y-82082000D01*
G37*
%TD*%
D11*
%TO.C,R59*%
X42799000Y-152273000D03*
X44299000Y-152273000D03*
%TD*%
D12*
%TO.C,C26*%
X64384000Y-49784000D03*
X62484000Y-49784000D03*
%TD*%
D13*
%TO.C,D10*%
X70612000Y-165164002D03*
X70612000Y-163564000D03*
%TD*%
D11*
%TO.C,R54*%
X55626000Y-152285000D03*
X55626000Y-153785000D03*
%TD*%
%TO.C,R72*%
X82931000Y-96254000D03*
X82931000Y-94754000D03*
%TD*%
%TO.C,R32*%
X55753000Y-160655000D03*
X55753000Y-162155000D03*
%TD*%
%TO.C,R60*%
X77875000Y-152273000D03*
X79375000Y-152273000D03*
%TD*%
%TO.C,R12*%
X82550000Y-111887000D03*
X81050000Y-111887000D03*
%TD*%
%TO.C,R19*%
X54483000Y-41251000D03*
X54483000Y-39751000D03*
%TD*%
D14*
%TO.C,C9*%
X45466000Y-80420000D03*
X45466000Y-77470000D03*
%TD*%
D11*
%TO.C,R64*%
X89928000Y-152273000D03*
X91428000Y-152273000D03*
%TD*%
D15*
%TO.C,C11*%
X58801000Y-76327000D03*
X53801000Y-76327000D03*
%TD*%
D12*
%TO.C,C30*%
X66797000Y-121539000D03*
X64897000Y-121539000D03*
%TD*%
D11*
%TO.C,R36*%
X85344000Y-160655000D03*
X85344000Y-162155000D03*
%TD*%
D13*
%TO.C,D1*%
X33197998Y-165544500D03*
X34798000Y-165544500D03*
%TD*%
D11*
%TO.C,R33*%
X68580000Y-162193001D03*
X68580000Y-160693001D03*
%TD*%
D16*
%TO.C,C5*%
X47752000Y-85405000D03*
X47752000Y-83505000D03*
%TD*%
D14*
%TO.C,C10*%
X47879000Y-80420000D03*
X47879000Y-77470000D03*
%TD*%
D11*
%TO.C,R11*%
X82931000Y-78359000D03*
X82931000Y-76859000D03*
%TD*%
D12*
%TO.C,C24*%
X82804000Y-107950000D03*
X80904000Y-107950000D03*
%TD*%
D11*
%TO.C,R61*%
X72529000Y-152273000D03*
X74029000Y-152273000D03*
%TD*%
D13*
%TO.C,D9*%
X68580000Y-165164002D03*
X68580000Y-163564000D03*
%TD*%
D11*
%TO.C,R69*%
X87261000Y-152273000D03*
X88761000Y-152273000D03*
%TD*%
D17*
%TO.C,U1*%
X48920400Y-89408000D03*
X48920400Y-90358001D03*
X48920400Y-91308002D03*
X51308000Y-91308002D03*
X51308000Y-89408000D03*
%TD*%
D11*
%TO.C,R74*%
X44958000Y-102108000D03*
X44958000Y-100608000D03*
%TD*%
%TO.C,R39*%
X61468000Y-127254000D03*
X59968000Y-127254000D03*
%TD*%
D18*
%TO.C,C22*%
X74935000Y-85291000D03*
X76835000Y-85291000D03*
%TD*%
D11*
%TO.C,R76*%
X44958000Y-114820000D03*
X44958000Y-116320000D03*
%TD*%
%TO.C,R67*%
X70273500Y-125887500D03*
X71773500Y-125887500D03*
%TD*%
D13*
%TO.C,D19*%
X83312000Y-156756001D03*
X83312000Y-155155999D03*
%TD*%
D14*
%TO.C,C6*%
X55499000Y-85803000D03*
X55499000Y-82853000D03*
%TD*%
D11*
%TO.C,R63*%
X57555000Y-152273000D03*
X59055000Y-152273000D03*
%TD*%
D19*
%TO.C,R5*%
X47044000Y-69087500D03*
X47044000Y-70912500D03*
%TD*%
D11*
%TO.C,R28*%
X60349000Y-160655000D03*
X61849000Y-160655000D03*
%TD*%
D20*
%TO.C,U6*%
X53089000Y-123444000D03*
X53089000Y-124714000D03*
X53089000Y-125984000D03*
X53089000Y-127254000D03*
X53089000Y-128524000D03*
X53089000Y-129794000D03*
X53089000Y-131064000D03*
X58039000Y-131064000D03*
X58039000Y-129794000D03*
X58039000Y-128524000D03*
X58039000Y-127254000D03*
X58039000Y-125984000D03*
X58039000Y-124714000D03*
X58039000Y-123444000D03*
%TD*%
D11*
%TO.C,R30*%
X89940000Y-160655000D03*
X91440000Y-160655000D03*
%TD*%
D13*
%TO.C,D6*%
X40767000Y-165126001D03*
X40767000Y-163525999D03*
%TD*%
D12*
%TO.C,C19*%
X65908000Y-89916000D03*
X64008000Y-89916000D03*
%TD*%
D11*
%TO.C,R66*%
X85344000Y-152285000D03*
X85344000Y-153785000D03*
%TD*%
%TO.C,R75*%
X44958000Y-111240000D03*
X44958000Y-109740000D03*
%TD*%
D21*
%TO.C,C16*%
X66421000Y-86360000D03*
X63471000Y-86360000D03*
%TD*%
D13*
%TO.C,D16*%
X70612000Y-156756001D03*
X70612000Y-155155999D03*
%TD*%
D22*
%TO.C,C2*%
X53340000Y-89286000D03*
X53340000Y-91186000D03*
%TD*%
D11*
%TO.C,R62*%
X62992000Y-152273000D03*
X64492000Y-152273000D03*
%TD*%
%TO.C,R56*%
X59956000Y-128524000D03*
X61456000Y-128524000D03*
%TD*%
%TO.C,R47*%
X75196000Y-152273000D03*
X76696000Y-152273000D03*
%TD*%
D18*
%TO.C,C13*%
X51943000Y-58674000D03*
X53843000Y-58674000D03*
%TD*%
D11*
%TO.C,R68*%
X92595000Y-152273000D03*
X94095000Y-152273000D03*
%TD*%
%TO.C,R2*%
X50800000Y-86372000D03*
X50800000Y-87872000D03*
%TD*%
%TO.C,R71*%
X82931000Y-91972000D03*
X82931000Y-93472000D03*
%TD*%
%TO.C,R17*%
X82579000Y-114300000D03*
X81079000Y-114300000D03*
%TD*%
%TO.C,R49*%
X38862000Y-153785000D03*
X38862000Y-152285000D03*
%TD*%
D23*
%TO.C,U2*%
X49457000Y-83717000D03*
X49457000Y-84217000D03*
X49457000Y-84717000D03*
X49457000Y-85217000D03*
X50927000Y-85217000D03*
X50927000Y-84717000D03*
X50927000Y-84217000D03*
X50927000Y-83717000D03*
%TD*%
D11*
%TO.C,R73*%
X44958000Y-106160000D03*
X44958000Y-104660000D03*
%TD*%
%TO.C,R4*%
X60337000Y-60706000D03*
X61837000Y-60706000D03*
%TD*%
D13*
%TO.C,D12*%
X85344000Y-165126001D03*
X85344000Y-163525999D03*
%TD*%
D12*
%TO.C,C29*%
X56449000Y-121539000D03*
X54549000Y-121539000D03*
%TD*%
D13*
%TO.C,D4*%
X58166000Y-39751000D03*
X58166000Y-41351002D03*
%TD*%
%TO.C,D15*%
X68580000Y-156756001D03*
X68580000Y-155155999D03*
%TD*%
D24*
%TO.C,D2*%
X80731000Y-109982000D03*
X82931000Y-109982000D03*
%TD*%
D18*
%TO.C,C14*%
X68077000Y-59944000D03*
X69977000Y-59944000D03*
%TD*%
D11*
%TO.C,R24*%
X80264000Y-101612000D03*
X80264000Y-103112000D03*
%TD*%
%TO.C,R3*%
X52209000Y-60706000D03*
X53709000Y-60706000D03*
%TD*%
%TO.C,R45*%
X87261000Y-160655000D03*
X88761000Y-160655000D03*
%TD*%
%TO.C,R50*%
X40894000Y-152285000D03*
X40894000Y-153785000D03*
%TD*%
D12*
%TO.C,C27*%
X82804000Y-118237000D03*
X80904000Y-118237000D03*
%TD*%
D25*
%TO.C,C1*%
X45466000Y-87679000D03*
X45466000Y-90629000D03*
%TD*%
D19*
%TO.C,R6*%
X42044000Y-69087500D03*
X42044000Y-70912500D03*
%TD*%
D13*
%TO.C,D20*%
X85344000Y-156756001D03*
X85344000Y-155155999D03*
%TD*%
D11*
%TO.C,R41*%
X57682000Y-160655000D03*
X59182000Y-160655000D03*
%TD*%
%TO.C,R22*%
X44450000Y-161036000D03*
X42950000Y-161036000D03*
%TD*%
%TO.C,R34*%
X70612000Y-160693001D03*
X70612000Y-162193001D03*
%TD*%
%TO.C,R31*%
X53721000Y-162155000D03*
X53721000Y-160655000D03*
%TD*%
D13*
%TO.C,D14*%
X40894000Y-156756001D03*
X40894000Y-155155999D03*
%TD*%
D11*
%TO.C,R29*%
X75196000Y-160655000D03*
X76696000Y-160655000D03*
%TD*%
D13*
%TO.C,D8*%
X55753000Y-165126001D03*
X55753000Y-163525999D03*
%TD*%
D11*
%TO.C,R46*%
X45466000Y-152273000D03*
X46966000Y-152273000D03*
%TD*%
%TO.C,R9*%
X44958000Y-138164000D03*
X44958000Y-136664000D03*
%TD*%
%TO.C,R52*%
X70612000Y-152273000D03*
X70612000Y-153773000D03*
%TD*%
D20*
%TO.C,U7*%
X63373000Y-123444000D03*
X63373000Y-124714000D03*
X63373000Y-125984000D03*
X63373000Y-127254000D03*
X63373000Y-128524000D03*
X63373000Y-129794000D03*
X63373000Y-131064000D03*
X68323000Y-131064000D03*
X68323000Y-129794000D03*
X68323000Y-128524000D03*
X68323000Y-127254000D03*
X68323000Y-125984000D03*
X68323000Y-124714000D03*
X68323000Y-123444000D03*
%TD*%
D19*
%TO.C,R8*%
X32044000Y-69087500D03*
X32044000Y-70912500D03*
%TD*%
D11*
%TO.C,R37*%
X49681000Y-123444000D03*
X51181000Y-123444000D03*
%TD*%
D24*
%TO.C,D5*%
X80731000Y-116205000D03*
X82931000Y-116205000D03*
%TD*%
D13*
%TO.C,D13*%
X38862000Y-156756001D03*
X38862000Y-155155999D03*
%TD*%
D21*
%TO.C,C17*%
X66421000Y-77597000D03*
X63471000Y-77597000D03*
%TD*%
D26*
%TO.C,U8*%
X73950000Y-126588500D03*
X73950000Y-127538500D03*
X73950000Y-128488500D03*
X76225000Y-128488500D03*
X76225000Y-127538500D03*
X76225000Y-126588500D03*
%TD*%
D13*
%TO.C,D11*%
X83312000Y-165126001D03*
X83312000Y-163525999D03*
%TD*%
D27*
%TO.C,C15*%
X75438000Y-76327000D03*
X78388000Y-76327000D03*
%TD*%
D11*
%TO.C,R23*%
X69469000Y-98830000D03*
X69469000Y-100330000D03*
%TD*%
%TO.C,R48*%
X60337000Y-152273000D03*
X61837000Y-152273000D03*
%TD*%
D12*
%TO.C,C20*%
X65913000Y-81989000D03*
X64013000Y-81989000D03*
%TD*%
D28*
%TO.C,U4*%
X60573500Y-51684000D03*
X60573500Y-50734000D03*
X60573500Y-49784000D03*
X58298500Y-49784000D03*
X58298500Y-50734000D03*
X58298500Y-51684000D03*
%TD*%
D11*
%TO.C,R58*%
X48145000Y-152273000D03*
X49645000Y-152273000D03*
%TD*%
D12*
%TO.C,C31*%
X76037500Y-124617500D03*
X74137500Y-124617500D03*
%TD*%
D11*
%TO.C,R13*%
X54761000Y-52451000D03*
X56261000Y-52451000D03*
%TD*%
%TO.C,R51*%
X68580000Y-153773000D03*
X68580000Y-152273000D03*
%TD*%
%TO.C,R20*%
X56134000Y-39751000D03*
X56134000Y-41251000D03*
%TD*%
%TO.C,R26*%
X40767000Y-160794000D03*
X40767000Y-162294000D03*
%TD*%
D25*
%TO.C,C3*%
X55626000Y-88744000D03*
X55626000Y-91694000D03*
%TD*%
D22*
%TO.C,C28*%
X70358000Y-93726000D03*
X70358000Y-95626000D03*
%TD*%
D13*
%TO.C,D3*%
X60706000Y-39751000D03*
X60706000Y-41351002D03*
%TD*%
D11*
%TO.C,R55*%
X59968000Y-123444000D03*
X61468000Y-123444000D03*
%TD*%
%TO.C,R53*%
X53594000Y-153785000D03*
X53594000Y-152285000D03*
%TD*%
%TO.C,R57*%
X71755000Y-127508000D03*
X70255000Y-127508000D03*
%TD*%
D12*
%TO.C,C21*%
X65908000Y-84201000D03*
X64008000Y-84201000D03*
%TD*%
D15*
%TO.C,C12*%
X58801000Y-98425000D03*
X53801000Y-98425000D03*
%TD*%
D11*
%TO.C,R70*%
X82931000Y-90678000D03*
X82931000Y-89178000D03*
%TD*%
%TO.C,R40*%
X63016000Y-160655000D03*
X64516000Y-160655000D03*
%TD*%
%TO.C,R10*%
X33286000Y-167386000D03*
X34786000Y-167386000D03*
%TD*%
%TO.C,R38*%
X49681000Y-128524000D03*
X51181000Y-128524000D03*
%TD*%
D19*
%TO.C,R7*%
X37044000Y-69087500D03*
X37044000Y-70912500D03*
%TD*%
D11*
%TO.C,R35*%
X83312000Y-162155000D03*
X83312000Y-160655000D03*
%TD*%
D14*
%TO.C,C4*%
X45466000Y-85979000D03*
X45466000Y-83029000D03*
%TD*%
D11*
%TO.C,R1*%
X49530000Y-87860000D03*
X49530000Y-86360000D03*
%TD*%
D29*
%TO.C,U3*%
X69768999Y-83661999D03*
X70269001Y-83661999D03*
X70769000Y-83661999D03*
X71268999Y-83661999D03*
X71769000Y-83661999D03*
X72269000Y-83661999D03*
X72769001Y-83661999D03*
X73269000Y-83661999D03*
X73768999Y-83661999D03*
X74269001Y-83661999D03*
D30*
X74918999Y-83012001D03*
X74918999Y-82511999D03*
X74918999Y-82012000D03*
X74918999Y-81512001D03*
X74918999Y-81012000D03*
X74918999Y-80512000D03*
X74918999Y-80011999D03*
X74918999Y-79512000D03*
X74918999Y-79012001D03*
X74918999Y-78511999D03*
D29*
X74269001Y-77862001D03*
X73768999Y-77862001D03*
X73269000Y-77862001D03*
X72769001Y-77862001D03*
X72269000Y-77862001D03*
X71769000Y-77862001D03*
X71268999Y-77862001D03*
X70769000Y-77862001D03*
X70269001Y-77862001D03*
X69768999Y-77862001D03*
D30*
X69119001Y-78511999D03*
X69119001Y-79012001D03*
X69119001Y-79512000D03*
X69119001Y-80011999D03*
X69119001Y-80512000D03*
X69119001Y-81012000D03*
X69119001Y-81512001D03*
X69119001Y-82012000D03*
X69119001Y-82511999D03*
X69119001Y-83012001D03*
%TD*%
D11*
%TO.C,R25*%
X79375000Y-94349000D03*
X79375000Y-92849000D03*
%TD*%
D13*
%TO.C,D18*%
X55626000Y-156756001D03*
X55626000Y-155155999D03*
%TD*%
D12*
%TO.C,C18*%
X65847000Y-79756000D03*
X63947000Y-79756000D03*
%TD*%
D11*
%TO.C,R15*%
X64262000Y-41251000D03*
X64262000Y-39751000D03*
%TD*%
%TO.C,R14*%
X44958000Y-96151000D03*
X44958000Y-97651000D03*
%TD*%
D12*
%TO.C,C23*%
X64389000Y-51816000D03*
X62489000Y-51816000D03*
%TD*%
%TO.C,C25*%
X56515000Y-50800000D03*
X54615000Y-50800000D03*
%TD*%
D11*
%TO.C,R44*%
X92595000Y-160655000D03*
X94095000Y-160655000D03*
%TD*%
%TO.C,R16*%
X62687999Y-41251000D03*
X62687999Y-39751000D03*
%TD*%
D16*
%TO.C,C7*%
X53213000Y-85405000D03*
X53213000Y-83505000D03*
%TD*%
D13*
%TO.C,D7*%
X53721000Y-165126001D03*
X53721000Y-163525999D03*
%TD*%
D11*
%TO.C,R18*%
X54761000Y-49149000D03*
X56261000Y-49149000D03*
%TD*%
%TO.C,R43*%
X72541000Y-160655000D03*
X74041000Y-160655000D03*
%TD*%
D16*
%TO.C,C8*%
X50165000Y-82291000D03*
X50165000Y-80391000D03*
%TD*%
D11*
%TO.C,R27*%
X47903000Y-161036000D03*
X49403000Y-161036000D03*
%TD*%
D31*
%TO.C,U5*%
X72390000Y-101422200D03*
X73025000Y-101422200D03*
X73685400Y-101422200D03*
X74345800Y-101422200D03*
X74980800Y-101422200D03*
X75641200Y-101422200D03*
X76276200Y-101422200D03*
X76936600Y-101422200D03*
X77597000Y-101422200D03*
X78232000Y-101422200D03*
X78232000Y-94157800D03*
X77597000Y-94157800D03*
X76936600Y-94157800D03*
X76276200Y-94157800D03*
X75641200Y-94157800D03*
X74980800Y-94157800D03*
X74345800Y-94157800D03*
X73685400Y-94157800D03*
X73025000Y-94157800D03*
X72390000Y-94157800D03*
%TD*%
D13*
%TO.C,D17*%
X53594000Y-156756001D03*
X53594000Y-155155999D03*
%TD*%
D11*
%TO.C,R65*%
X83312000Y-153785000D03*
X83312000Y-152285000D03*
%TD*%
%TO.C,R21*%
X44958000Y-93968000D03*
X44958000Y-92468000D03*
%TD*%
%TO.C,R42*%
X77851000Y-160655000D03*
X79351000Y-160655000D03*
%TD*%
M02*
