%TF.GenerationSoftware,KiCad,Pcbnew,9.0.7*%
%TF.CreationDate,2026-02-22T09:06:12+01:00*%
%TF.ProjectId,STM32 Nucleo RS232 & RS485 Expansion Board (ST Zio Compatible) V2,53544d33-3220-44e7-9563-6c656f205253,rev?*%
%TF.SameCoordinates,Original*%
%TF.FileFunction,Copper,L1,Top*%
%TF.FilePolarity,Positive*%
%FSLAX46Y46*%
G04 Gerber Fmt 4.6, Leading zero omitted, Abs format (unit mm)*
G04 Created by KiCad (PCBNEW 9.0.7) date 2026-02-22 09:06:12*
%MOMM*%
%LPD*%
G01*
G04 APERTURE LIST*
G04 Aperture macros list*
%AMRoundRect*
0 Rectangle with rounded corners*
0 $1 Rounding radius*
0 $2 $3 $4 $5 $6 $7 $8 $9 X,Y pos of 4 corners*
0 Add a 4 corners polygon primitive as box body*
4,1,4,$2,$3,$4,$5,$6,$7,$8,$9,$2,$3,0*
0 Add four circle primitives for the rounded corners*
1,1,$1+$1,$2,$3*
1,1,$1+$1,$4,$5*
1,1,$1+$1,$6,$7*
1,1,$1+$1,$8,$9*
0 Add four rect primitives between the rounded corners*
20,1,$1+$1,$2,$3,$4,$5,0*
20,1,$1+$1,$4,$5,$6,$7,0*
20,1,$1+$1,$6,$7,$8,$9,0*
20,1,$1+$1,$8,$9,$2,$3,0*%
G04 Aperture macros list end*
%TA.AperFunction,SMDPad,CuDef*%
%ADD10R,0.800000X0.800000*%
%TD*%
%TA.AperFunction,SMDPad,CuDef*%
%ADD11RoundRect,0.250000X0.250000X0.475000X-0.250000X0.475000X-0.250000X-0.475000X0.250000X-0.475000X0*%
%TD*%
%TA.AperFunction,SMDPad,CuDef*%
%ADD12R,0.799998X0.799998*%
%TD*%
%TA.AperFunction,ComponentPad*%
%ADD13C,2.400000*%
%TD*%
%TA.AperFunction,SMDPad,CuDef*%
%ADD14RoundRect,0.250000X0.650000X-0.325000X0.650000X0.325000X-0.650000X0.325000X-0.650000X-0.325000X0*%
%TD*%
%TA.AperFunction,ComponentPad*%
%ADD15C,1.397000*%
%TD*%
%TA.AperFunction,SMDPad,CuDef*%
%ADD16R,3.200000X1.600000*%
%TD*%
%TA.AperFunction,SMDPad,CuDef*%
%ADD17RoundRect,0.250000X0.475000X-0.250000X0.475000X0.250000X-0.475000X0.250000X-0.475000X-0.250000X0*%
%TD*%
%TA.AperFunction,SMDPad,CuDef*%
%ADD18R,1.320800X0.558800*%
%TD*%
%TA.AperFunction,SMDPad,CuDef*%
%ADD19RoundRect,0.250000X-0.250000X-0.475000X0.250000X-0.475000X0.250000X0.475000X-0.250000X0.475000X0*%
%TD*%
%TA.AperFunction,SMDPad,CuDef*%
%ADD20RoundRect,0.250000X-0.450000X0.262500X-0.450000X-0.262500X0.450000X-0.262500X0.450000X0.262500X0*%
%TD*%
%TA.AperFunction,SMDPad,CuDef*%
%ADD21RoundRect,0.150000X-0.835000X-0.150000X0.835000X-0.150000X0.835000X0.150000X-0.835000X0.150000X0*%
%TD*%
%TA.AperFunction,SMDPad,CuDef*%
%ADD22RoundRect,0.250000X0.325000X0.650000X-0.325000X0.650000X-0.325000X-0.650000X0.325000X-0.650000X0*%
%TD*%
%TA.AperFunction,SMDPad,CuDef*%
%ADD23RoundRect,0.250000X-0.475000X0.250000X-0.475000X-0.250000X0.475000X-0.250000X0.475000X0.250000X0*%
%TD*%
%TA.AperFunction,ComponentPad*%
%ADD24C,1.950000*%
%TD*%
%TA.AperFunction,SMDPad,CuDef*%
%ADD25R,0.660000X0.320000*%
%TD*%
%TA.AperFunction,SMDPad,CuDef*%
%ADD26RoundRect,0.125000X-0.125000X-0.125000X0.125000X-0.125000X0.125000X0.125000X-0.125000X0.125000X0*%
%TD*%
%TA.AperFunction,SMDPad,CuDef*%
%ADD27RoundRect,0.250000X-0.650000X0.325000X-0.650000X-0.325000X0.650000X-0.325000X0.650000X0.325000X0*%
%TD*%
%TA.AperFunction,SMDPad,CuDef*%
%ADD28RoundRect,0.150000X-0.512500X-0.150000X0.512500X-0.150000X0.512500X0.150000X-0.512500X0.150000X0*%
%TD*%
%TA.AperFunction,SMDPad,CuDef*%
%ADD29RoundRect,0.250000X-0.325000X-0.650000X0.325000X-0.650000X0.325000X0.650000X-0.325000X0.650000X0*%
%TD*%
%TA.AperFunction,ComponentPad*%
%ADD30C,1.498600*%
%TD*%
%TA.AperFunction,SMDPad,CuDef*%
%ADD31RoundRect,0.150000X0.512500X0.150000X-0.512500X0.150000X-0.512500X-0.150000X0.512500X-0.150000X0*%
%TD*%
%TA.AperFunction,SMDPad,CuDef*%
%ADD32R,0.249999X0.599999*%
%TD*%
%TA.AperFunction,SMDPad,CuDef*%
%ADD33R,0.599999X0.249999*%
%TD*%
%TA.AperFunction,ComponentPad*%
%ADD34C,0.499999*%
%TD*%
%TA.AperFunction,SMDPad,CuDef*%
%ADD35R,4.650001X4.650001*%
%TD*%
%TA.AperFunction,SMDPad,CuDef*%
%ADD36R,0.431800X1.651000*%
%TD*%
%TA.AperFunction,ComponentPad*%
%ADD37R,1.390000X1.390000*%
%TD*%
%TA.AperFunction,ComponentPad*%
%ADD38C,1.390000*%
%TD*%
%TA.AperFunction,ComponentPad*%
%ADD39R,1.562100X1.562100*%
%TD*%
%TA.AperFunction,ComponentPad*%
%ADD40C,1.562100*%
%TD*%
%TA.AperFunction,ViaPad*%
%ADD41C,0.600000*%
%TD*%
%TA.AperFunction,Conductor*%
%ADD42C,0.500000*%
%TD*%
%TA.AperFunction,Conductor*%
%ADD43C,0.250000*%
%TD*%
%TA.AperFunction,Conductor*%
%ADD44C,0.400000*%
%TD*%
%TA.AperFunction,Conductor*%
%ADD45C,0.304800*%
%TD*%
%TA.AperFunction,Conductor*%
%ADD46C,0.200000*%
%TD*%
%TA.AperFunction,Conductor*%
%ADD47C,0.600000*%
%TD*%
G04 APERTURE END LIST*
D10*
%TO.P,R59,1*%
%TO.N,GND*%
X42799000Y-152273000D03*
%TO.P,R59,2*%
%TO.N,Net-(J14-Pin_1)*%
X44299000Y-152273000D03*
%TD*%
D11*
%TO.P,C26,1*%
%TO.N,GND*%
X64384000Y-49784000D03*
%TO.P,C26,2*%
%TO.N,/Rx & Tx LED/RX_RC*%
X62484000Y-49784000D03*
%TD*%
D12*
%TO.P,D10,1,K*%
%TO.N,Net-(D10-K)*%
X70612000Y-165164002D03*
%TO.P,D10,2,A*%
%TO.N,Net-(D10-A)*%
X70612000Y-163564000D03*
%TD*%
D10*
%TO.P,R54,1*%
%TO.N,3V3_SYS*%
X55626000Y-152285000D03*
%TO.P,R54,2*%
%TO.N,Net-(D18-A)*%
X55626000Y-153785000D03*
%TD*%
%TO.P,R72,1*%
%TO.N,MCU_DIR*%
X82931000Y-96254000D03*
%TO.P,R72,2*%
%TO.N,Net-(CN10-Pin_2)*%
X82931000Y-94754000D03*
%TD*%
D13*
%TO.P,TP7,TP*%
%TO.N,Net-(U2-PR1)*%
X34163000Y-106934000D03*
%TD*%
%TO.P,TP13,TP*%
%TO.N,TX+*%
X93472000Y-71120000D03*
%TD*%
D10*
%TO.P,R32,1*%
%TO.N,3V3_SYS*%
X55753000Y-160655000D03*
%TO.P,R32,2*%
%TO.N,Net-(D8-A)*%
X55753000Y-162155000D03*
%TD*%
%TO.P,R60,1*%
%TO.N,3V3_SYS*%
X77875000Y-152273000D03*
%TO.P,R60,2*%
%TO.N,Net-(J15-Pin_3)*%
X79375000Y-152273000D03*
%TD*%
%TO.P,R12,1*%
%TO.N,L3-TXD*%
X82550000Y-111887000D03*
%TO.P,R12,2*%
%TO.N,Net-(D2-K)*%
X81050000Y-111887000D03*
%TD*%
D13*
%TO.P,TP2,TP*%
%TO.N,ARDUINO_5V*%
X34163000Y-112903000D03*
%TD*%
D10*
%TO.P,R19,1*%
%TO.N,GND*%
X54483000Y-41251000D03*
%TO.P,R19,2*%
%TO.N,Net-(J9-Pin_2)*%
X54483000Y-39751000D03*
%TD*%
D14*
%TO.P,C9,1*%
%TO.N,3V3_SYS*%
X45466000Y-80420000D03*
%TO.P,C9,2*%
%TO.N,GND*%
X45466000Y-77470000D03*
%TD*%
D15*
%TO.P,J7,1,Pin_1*%
%TO.N,3V3_SYS*%
X34036000Y-157607000D03*
%TO.P,J7,2,Pin_2*%
%TO.N,/RS232 & RS485 Tranceiver/THVD_SHDN_N*%
X34036000Y-160147000D03*
%TO.P,J7,3,Pin_3*%
%TO.N,Net-(J7-Pin_3)*%
X34036000Y-162687000D03*
%TD*%
D10*
%TO.P,R64,1*%
%TO.N,SLR*%
X89928000Y-152273000D03*
%TO.P,R64,2*%
%TO.N,3V3_SYS*%
X91428000Y-152273000D03*
%TD*%
D16*
%TO.P,C11,1*%
%TO.N,3V3_SYS*%
X58801000Y-76327000D03*
%TO.P,C11,2*%
%TO.N,GND*%
X53801000Y-76327000D03*
%TD*%
D13*
%TO.P,TP1,TP*%
%TO.N,GND*%
X34163000Y-119126000D03*
%TD*%
D11*
%TO.P,C30,1*%
%TO.N,3V3_SYS*%
X66797000Y-121539000D03*
%TO.P,C30,2*%
%TO.N,GND*%
X64897000Y-121539000D03*
%TD*%
D10*
%TO.P,R36,1*%
%TO.N,3V3_SYS*%
X85344000Y-160655000D03*
%TO.P,R36,2*%
%TO.N,Net-(D12-A)*%
X85344000Y-162155000D03*
%TD*%
D12*
%TO.P,D1,1,K*%
%TO.N,GND*%
X33197998Y-165544500D03*
%TO.P,D1,2,A*%
%TO.N,Net-(D1-A)*%
X34798000Y-165544500D03*
%TD*%
D10*
%TO.P,R33,1*%
%TO.N,Net-(D9-A)*%
X68580000Y-162193001D03*
%TO.P,R33,2*%
%TO.N,3V3_SYS*%
X68580000Y-160693001D03*
%TD*%
D17*
%TO.P,C5,1*%
%TO.N,NUCLEO_3V3*%
X47752000Y-85405000D03*
%TO.P,C5,2*%
%TO.N,GND*%
X47752000Y-83505000D03*
%TD*%
D14*
%TO.P,C10,1*%
%TO.N,3V3_SYS*%
X47879000Y-80420000D03*
%TO.P,C10,2*%
%TO.N,GND*%
X47879000Y-77470000D03*
%TD*%
D10*
%TO.P,R11,1*%
%TO.N,/RS232 & RS485 Tranceiver/THVD_SHDN_N*%
X82931000Y-78359000D03*
%TO.P,R11,2*%
%TO.N,GND*%
X82931000Y-76859000D03*
%TD*%
D11*
%TO.P,C24,1*%
%TO.N,/Rx & Tx LED/TX_RC*%
X82804000Y-107950000D03*
%TO.P,C24,2*%
%TO.N,GND*%
X80904000Y-107950000D03*
%TD*%
D10*
%TO.P,R61,1*%
%TO.N,GND*%
X72529000Y-152273000D03*
%TO.P,R61,2*%
%TO.N,Net-(J15-Pin_1)*%
X74029000Y-152273000D03*
%TD*%
D13*
%TO.P,TP23,TP*%
%TO.N,L6-RTS*%
X93472000Y-143064817D03*
%TD*%
%TO.P,TP14,TP*%
%TO.N,TX+ (Y)*%
X37592000Y-61595000D03*
%TD*%
D12*
%TO.P,D9,1,K*%
%TO.N,Net-(D9-K)*%
X68580000Y-165164002D03*
%TO.P,D9,2,A*%
%TO.N,Net-(D9-A)*%
X68580000Y-163564000D03*
%TD*%
D10*
%TO.P,R69,1*%
%TO.N,GND*%
X87261000Y-152273000D03*
%TO.P,R69,2*%
%TO.N,Net-(J17-Pin_1)*%
X88761000Y-152273000D03*
%TD*%
D13*
%TO.P,TP27,TP*%
%TO.N,L5-DSR*%
X93472000Y-131126817D03*
%TD*%
D18*
%TO.P,U1,1,IN*%
%TO.N,ARDUINO_5V*%
X48920400Y-89408000D03*
%TO.P,U1,2,GND*%
%TO.N,GND*%
X48920400Y-90358001D03*
%TO.P,U1,3,EN*%
%TO.N,ARDUINO_5V*%
X48920400Y-91308002D03*
%TO.P,U1,4,NC*%
%TO.N,unconnected-(U1-NC-Pad4)*%
X51308000Y-91308002D03*
%TO.P,U1,5,OUT*%
%TO.N,3V3_LDO*%
X51308000Y-89408000D03*
%TD*%
D15*
%TO.P,J9,1,Pin_1*%
%TO.N,/Rx & Tx LED/RX_ACT*%
X56896000Y-45720000D03*
%TO.P,J9,2,Pin_2*%
%TO.N,Net-(J9-Pin_2)*%
X59436000Y-45720000D03*
%TO.P,J9,3,Pin_3*%
%TO.N,Net-(J9-Pin_3)*%
X61976000Y-45720000D03*
%TD*%
D10*
%TO.P,R74,1*%
%TO.N,Net-(CN9-Pin_1)*%
X44958000Y-102108000D03*
%TO.P,R74,2*%
%TO.N,MCU_MODE1*%
X44958000Y-100608000D03*
%TD*%
%TO.P,R39,1*%
%TO.N,MODE2*%
X61468000Y-127254000D03*
%TO.P,R39,2*%
%TO.N,Net-(U6E-5A)*%
X59968000Y-127254000D03*
%TD*%
D19*
%TO.P,C22,1*%
%TO.N,3V3_SYS*%
X74935000Y-85291000D03*
%TO.P,C22,2*%
%TO.N,GND*%
X76835000Y-85291000D03*
%TD*%
D10*
%TO.P,R76,1*%
%TO.N,MCU_MODE2*%
X44958000Y-114820000D03*
%TO.P,R76,2*%
%TO.N,Net-(CN9-Pin_9)*%
X44958000Y-116320000D03*
%TD*%
%TO.P,R67,1*%
%TO.N,SLR*%
X70273500Y-125887500D03*
%TO.P,R67,2*%
%TO.N,Net-(U8-1A)*%
X71773500Y-125887500D03*
%TD*%
D13*
%TO.P,TP20,TP*%
%TO.N,RX- (B)*%
X47498000Y-61849000D03*
%TD*%
D12*
%TO.P,D19,1,K*%
%TO.N,Net-(D19-K)*%
X83312000Y-156756001D03*
%TO.P,D19,2,A*%
%TO.N,Net-(D19-A)*%
X83312000Y-155155999D03*
%TD*%
D14*
%TO.P,C6,1*%
%TO.N,3V3_LDO*%
X55499000Y-85803000D03*
%TO.P,C6,2*%
%TO.N,GND*%
X55499000Y-82853000D03*
%TD*%
D10*
%TO.P,R63,1*%
%TO.N,GND*%
X57555000Y-152273000D03*
%TO.P,R63,2*%
%TO.N,Net-(J16-Pin_1)*%
X59055000Y-152273000D03*
%TD*%
D13*
%TO.P,TP5,TP*%
%TO.N,NUCLEO_3V3*%
X34163000Y-76835000D03*
%TD*%
D20*
%TO.P,R5,1*%
%TO.N,RX- (B)*%
X47498000Y-56515000D03*
%TO.P,R5,2*%
%TO.N,RX-*%
X47498000Y-58340000D03*
%TD*%
D10*
%TO.P,R28,1*%
%TO.N,MODE0*%
X60349000Y-160655000D03*
%TO.P,R28,2*%
%TO.N,3V3_SYS*%
X61849000Y-160655000D03*
%TD*%
D21*
%TO.P,U6,1,1A*%
%TO.N,Net-(U6A-1A)*%
X53089000Y-123444000D03*
%TO.P,U6,2,1Y*%
%TO.N,Net-(D7-K)*%
X53089000Y-124714000D03*
%TO.P,U6,3,2A*%
X53089000Y-125984000D03*
%TO.P,U6,4,2Y*%
%TO.N,Net-(D8-K)*%
X53089000Y-127254000D03*
%TO.P,U6,5,3A*%
%TO.N,Net-(U6C-3A)*%
X53089000Y-128524000D03*
%TO.P,U6,6,3Y*%
%TO.N,Net-(D9-K)*%
X53089000Y-129794000D03*
%TO.P,U6,7,GND*%
%TO.N,GND*%
X53089000Y-131064000D03*
%TO.P,U6,8,4Y*%
%TO.N,Net-(D10-K)*%
X58039000Y-131064000D03*
%TO.P,U6,9,4A*%
%TO.N,Net-(D9-K)*%
X58039000Y-129794000D03*
%TO.P,U6,10,5Y*%
%TO.N,Net-(D11-K)*%
X58039000Y-128524000D03*
%TO.P,U6,11,5A*%
%TO.N,Net-(U6E-5A)*%
X58039000Y-127254000D03*
%TO.P,U6,12,6Y*%
%TO.N,Net-(D12-K)*%
X58039000Y-125984000D03*
%TO.P,U6,13,6A*%
%TO.N,Net-(D11-K)*%
X58039000Y-124714000D03*
%TO.P,U6,14,VCC*%
%TO.N,3V3_SYS*%
X58039000Y-123444000D03*
%TD*%
D10*
%TO.P,R30,1*%
%TO.N,MODE2*%
X89940000Y-160655000D03*
%TO.P,R30,2*%
%TO.N,3V3_SYS*%
X91440000Y-160655000D03*
%TD*%
D13*
%TO.P,TP19,TP*%
%TO.N,RX-*%
X93472000Y-83058000D03*
%TD*%
%TO.P,TP26,TP*%
%TO.N,RTSBus*%
X93472000Y-101219000D03*
%TD*%
%TO.P,TP4,TP*%
%TO.N,GND*%
X34163000Y-82804000D03*
%TD*%
D12*
%TO.P,D6,1,K*%
%TO.N,GND*%
X40767000Y-165126001D03*
%TO.P,D6,2,A*%
%TO.N,Net-(D6-A)*%
X40767000Y-163525999D03*
%TD*%
D11*
%TO.P,C19,1*%
%TO.N,Net-(U3-V+)*%
X65908000Y-89916000D03*
%TO.P,C19,2*%
%TO.N,GND*%
X64008000Y-89916000D03*
%TD*%
D10*
%TO.P,R66,1*%
%TO.N,3V3_SYS*%
X85344000Y-152285000D03*
%TO.P,R66,2*%
%TO.N,Net-(D20-A)*%
X85344000Y-153785000D03*
%TD*%
%TO.P,R75,1*%
%TO.N,Net-(CN9-Pin_7)*%
X44958000Y-111240000D03*
%TO.P,R75,2*%
%TO.N,MCU_TERM_TX*%
X44958000Y-109740000D03*
%TD*%
D15*
%TO.P,J12,1,Pin_1*%
%TO.N,Net-(J12-Pin_1)*%
X73406000Y-164326000D03*
%TO.P,J12,2,Pin_2*%
%TO.N,MODE1*%
X75946000Y-164326000D03*
%TO.P,J12,3,Pin_3*%
%TO.N,Net-(J12-Pin_3)*%
X78486000Y-164326000D03*
%TD*%
%TO.P,J3,1,Pin_1*%
%TO.N,unconnected-(J3-Pin_1-Pad1)*%
X53074000Y-68453000D03*
%TO.P,J3,2,Pin_2*%
%TO.N,Net-(J3-Pin_2)*%
X53074000Y-65913000D03*
%TO.P,J3,3,Pin_3*%
%TO.N,RX- (B)*%
X53074000Y-63373000D03*
%TD*%
D22*
%TO.P,C16,1*%
%TO.N,3V3_SYS*%
X66421000Y-86360000D03*
%TO.P,C16,2*%
%TO.N,GND*%
X63471000Y-86360000D03*
%TD*%
D12*
%TO.P,D16,1,K*%
%TO.N,Net-(D16-K)*%
X70612000Y-156756001D03*
%TO.P,D16,2,A*%
%TO.N,Net-(D16-A)*%
X70612000Y-155155999D03*
%TD*%
D15*
%TO.P,J2,1,Pin_1*%
%TO.N,unconnected-(J2-Pin_1-Pad1)*%
X69088000Y-68453000D03*
%TO.P,J2,2,Pin_2*%
%TO.N,TX- (Z)*%
X69088000Y-65913000D03*
%TO.P,J2,3,Pin_3*%
%TO.N,RX- (B)*%
X69088000Y-63373000D03*
%TD*%
D13*
%TO.P,TP17,TP*%
%TO.N,RX+ (A)*%
X42672000Y-61722000D03*
%TD*%
%TO.P,TP9,TP*%
%TO.N,L1-DCD*%
X34163000Y-131191000D03*
%TD*%
D23*
%TO.P,C2,1*%
%TO.N,3V3_LDO*%
X53340000Y-89286000D03*
%TO.P,C2,2*%
%TO.N,GND*%
X53340000Y-91186000D03*
%TD*%
D10*
%TO.P,R62,1*%
%TO.N,3V3_SYS*%
X62992000Y-152273000D03*
%TO.P,R62,2*%
%TO.N,Net-(J16-Pin_3)*%
X64492000Y-152273000D03*
%TD*%
D24*
%TO.P,J5,1_1,1_1*%
%TO.N,RX- (B)*%
X49544000Y-52269000D03*
%TO.P,J5,1_2,1_2*%
X49544000Y-44069000D03*
%TO.P,J5,2_1,2_1*%
%TO.N,RX+ (A)*%
X44544000Y-52269000D03*
%TO.P,J5,2_2,2_2*%
X44544000Y-44069000D03*
%TO.P,J5,3_1,3_1*%
%TO.N,TX+ (Y)*%
X39544000Y-52269000D03*
%TO.P,J5,3_2,3_2*%
X39544000Y-44069000D03*
%TO.P,J5,4_1,4_1*%
%TO.N,TX- (Z)*%
X34544000Y-52269000D03*
%TO.P,J5,4_2,4_2*%
X34544000Y-44069000D03*
%TD*%
D10*
%TO.P,R56,1*%
%TO.N,TERM_TX*%
X59956000Y-128524000D03*
%TO.P,R56,2*%
%TO.N,Net-(U7C-3A)*%
X61456000Y-128524000D03*
%TD*%
%TO.P,R47,1*%
%TO.N,TERM_TX*%
X75196000Y-152273000D03*
%TO.P,R47,2*%
%TO.N,3V3_SYS*%
X76696000Y-152273000D03*
%TD*%
D15*
%TO.P,J10,1,Pin_1*%
%TO.N,Net-(J10-Pin_1)*%
X43688000Y-164326000D03*
%TO.P,J10,2,Pin_2*%
%TO.N,Net-(J10-Pin_2)*%
X46228000Y-164326000D03*
%TO.P,J10,3,Pin_3*%
%TO.N,MCU_OE*%
X48768000Y-164326000D03*
%TD*%
D19*
%TO.P,C13,1*%
%TO.N,RX+ (A)*%
X51943000Y-58674000D03*
%TO.P,C13,2*%
%TO.N,Net-(J3-Pin_2)*%
X53843000Y-58674000D03*
%TD*%
D10*
%TO.P,R68,1*%
%TO.N,3V3_SYS*%
X92595000Y-152273000D03*
%TO.P,R68,2*%
%TO.N,Net-(J17-Pin_3)*%
X94095000Y-152273000D03*
%TD*%
%TO.P,R2,1*%
%TO.N,Net-(U2-PR1)*%
X50800000Y-86372000D03*
%TO.P,R2,2*%
%TO.N,GND*%
X50800000Y-87872000D03*
%TD*%
%TO.P,R71,1*%
%TO.N,MCU_MODE0*%
X82931000Y-91972000D03*
%TO.P,R71,2*%
%TO.N,Net-(CN7-Pin_20)*%
X82931000Y-93472000D03*
%TD*%
%TO.P,R17,1*%
%TO.N,L2-RXD*%
X82579000Y-114300000D03*
%TO.P,R17,2*%
%TO.N,Net-(D5-K)*%
X81079000Y-114300000D03*
%TD*%
D13*
%TO.P,TP3,TP*%
%TO.N,3V3_LDO*%
X34163000Y-100965000D03*
%TD*%
%TO.P,TP25,TP*%
%TO.N,L7-CTS*%
X93472000Y-137095817D03*
%TD*%
D15*
%TO.P,J13,1,Pin_1*%
%TO.N,Net-(J13-Pin_1)*%
X88138000Y-164326000D03*
%TO.P,J13,2,Pin_2*%
%TO.N,MODE2*%
X90678000Y-164326000D03*
%TO.P,J13,3,Pin_3*%
%TO.N,Net-(J13-Pin_3)*%
X93218000Y-164326000D03*
%TD*%
D10*
%TO.P,R49,1*%
%TO.N,Net-(D13-A)*%
X38862000Y-153785000D03*
%TO.P,R49,2*%
%TO.N,3V3_SYS*%
X38862000Y-152285000D03*
%TD*%
D25*
%TO.P,U2,1,GND*%
%TO.N,GND*%
X49457000Y-83717000D03*
%TO.P,U2,2,VOUT*%
%TO.N,3V3_SYS*%
X49457000Y-84217000D03*
%TO.P,U2,3,VIN1*%
%TO.N,NUCLEO_3V3*%
X49457000Y-84717000D03*
%TO.P,U2,4,PR1*%
%TO.N,Net-(U2-PR1)*%
X49457000Y-85217000D03*
%TO.P,U2,5,MODE*%
%TO.N,NUCLEO_3V3*%
X50927000Y-85217000D03*
%TO.P,U2,6,VIN2*%
%TO.N,3V3_LDO*%
X50927000Y-84717000D03*
%TO.P,U2,7,VOUT__1*%
%TO.N,3V3_SYS*%
X50927000Y-84217000D03*
%TO.P,U2,8,ST*%
%TO.N,Net-(U2-ST)*%
X50927000Y-83717000D03*
%TD*%
D10*
%TO.P,R73,1*%
%TO.N,Net-(CN9-Pin_5)*%
X44958000Y-106160000D03*
%TO.P,R73,2*%
%TO.N,MCU_TERM_RX*%
X44958000Y-104660000D03*
%TD*%
%TO.P,R4,1*%
%TO.N,TX+ (Y)*%
X60337000Y-60706000D03*
%TO.P,R4,2*%
%TO.N,Net-(J4-Pin_2)*%
X61837000Y-60706000D03*
%TD*%
D12*
%TO.P,D12,1,K*%
%TO.N,Net-(D12-K)*%
X85344000Y-165126001D03*
%TO.P,D12,2,A*%
%TO.N,Net-(D12-A)*%
X85344000Y-163525999D03*
%TD*%
D11*
%TO.P,C29,1*%
%TO.N,3V3_SYS*%
X56449000Y-121539000D03*
%TO.P,C29,2*%
%TO.N,GND*%
X54549000Y-121539000D03*
%TD*%
D12*
%TO.P,D4,1,K*%
%TO.N,GND*%
X58166000Y-39751000D03*
%TO.P,D4,2,A*%
%TO.N,Net-(D4-A)*%
X58166000Y-41351002D03*
%TD*%
D13*
%TO.P,TP6,TP*%
%TO.N,3V3_SYS*%
X34163000Y-88773000D03*
%TD*%
D12*
%TO.P,D15,1,K*%
%TO.N,Net-(D15-K)*%
X68580000Y-156756001D03*
%TO.P,D15,2,A*%
%TO.N,Net-(D15-A)*%
X68580000Y-155155999D03*
%TD*%
D26*
%TO.P,D2,1,K*%
%TO.N,Net-(D2-K)*%
X80731000Y-109982000D03*
%TO.P,D2,2,A*%
%TO.N,/Rx & Tx LED/TX_RC*%
X82931000Y-109982000D03*
%TD*%
D19*
%TO.P,C14,1*%
%TO.N,TX+ (Y)*%
X68077000Y-59944000D03*
%TO.P,C14,2*%
%TO.N,Net-(J4-Pin_2)*%
X69977000Y-59944000D03*
%TD*%
D10*
%TO.P,R24,1*%
%TO.N,Net-(U5-A8)*%
X80264000Y-101612000D03*
%TO.P,R24,2*%
%TO.N,GND*%
X80264000Y-103112000D03*
%TD*%
%TO.P,R3,1*%
%TO.N,RX+ (A)*%
X52209000Y-60706000D03*
%TO.P,R3,2*%
%TO.N,Net-(J3-Pin_2)*%
X53709000Y-60706000D03*
%TD*%
%TO.P,R45,1*%
%TO.N,GND*%
X87261000Y-160655000D03*
%TO.P,R45,2*%
%TO.N,Net-(J13-Pin_1)*%
X88761000Y-160655000D03*
%TD*%
%TO.P,R50,1*%
%TO.N,3V3_SYS*%
X40894000Y-152285000D03*
%TO.P,R50,2*%
%TO.N,Net-(D14-A)*%
X40894000Y-153785000D03*
%TD*%
D11*
%TO.P,C27,1*%
%TO.N,/Rx & Tx LED/RX_RC*%
X82804000Y-118237000D03*
%TO.P,C27,2*%
%TO.N,GND*%
X80904000Y-118237000D03*
%TD*%
D27*
%TO.P,C1,1*%
%TO.N,ARDUINO_5V*%
X45466000Y-87679000D03*
%TO.P,C1,2*%
%TO.N,GND*%
X45466000Y-90629000D03*
%TD*%
D20*
%TO.P,R6,1*%
%TO.N,RX+ (A)*%
X42545000Y-56515000D03*
%TO.P,R6,2*%
%TO.N,RX+*%
X42545000Y-58340000D03*
%TD*%
D15*
%TO.P,J11,1,Pin_1*%
%TO.N,Net-(J11-Pin_1)*%
X58547000Y-164326000D03*
%TO.P,J11,2,Pin_2*%
%TO.N,MODE0*%
X61087000Y-164326000D03*
%TO.P,J11,3,Pin_3*%
%TO.N,Net-(J11-Pin_3)*%
X63627000Y-164326000D03*
%TD*%
D13*
%TO.P,TP24,TP*%
%TO.N,DSRBus*%
X93472000Y-95250000D03*
%TD*%
%TO.P,TP16,TP*%
%TO.N,RX+*%
X93472000Y-77089000D03*
%TD*%
D12*
%TO.P,D20,1,K*%
%TO.N,Net-(D20-K)*%
X85344000Y-156756001D03*
%TO.P,D20,2,A*%
%TO.N,Net-(D20-A)*%
X85344000Y-155155999D03*
%TD*%
D10*
%TO.P,R41,1*%
%TO.N,GND*%
X57682000Y-160655000D03*
%TO.P,R41,2*%
%TO.N,Net-(J11-Pin_1)*%
X59182000Y-160655000D03*
%TD*%
D15*
%TO.P,J15,1,Pin_1*%
%TO.N,Net-(J15-Pin_1)*%
X73406000Y-155956000D03*
%TO.P,J15,2,Pin_2*%
%TO.N,TERM_TX*%
X75946000Y-155956000D03*
%TO.P,J15,3,Pin_3*%
%TO.N,Net-(J15-Pin_3)*%
X78486000Y-155956000D03*
%TD*%
D10*
%TO.P,R22,1*%
%TO.N,3V3_SYS*%
X44450000Y-161036000D03*
%TO.P,R22,2*%
%TO.N,Net-(J10-Pin_1)*%
X42950000Y-161036000D03*
%TD*%
%TO.P,R34,1*%
%TO.N,3V3_SYS*%
X70612000Y-160693001D03*
%TO.P,R34,2*%
%TO.N,Net-(D10-A)*%
X70612000Y-162193001D03*
%TD*%
D13*
%TO.P,TP11,TP*%
%TO.N,TX- (Z)*%
X32512000Y-61722000D03*
%TD*%
D10*
%TO.P,R31,1*%
%TO.N,Net-(D7-A)*%
X53721000Y-162155000D03*
%TO.P,R31,2*%
%TO.N,3V3_SYS*%
X53721000Y-160655000D03*
%TD*%
D12*
%TO.P,D14,1,K*%
%TO.N,Net-(D14-K)*%
X40894000Y-156756001D03*
%TO.P,D14,2,A*%
%TO.N,Net-(D14-A)*%
X40894000Y-155155999D03*
%TD*%
D10*
%TO.P,R29,1*%
%TO.N,MODE1*%
X75196000Y-160655000D03*
%TO.P,R29,2*%
%TO.N,3V3_SYS*%
X76696000Y-160655000D03*
%TD*%
D12*
%TO.P,D8,1,K*%
%TO.N,Net-(D8-K)*%
X55753000Y-165126001D03*
%TO.P,D8,2,A*%
%TO.N,Net-(D8-A)*%
X55753000Y-163525999D03*
%TD*%
D10*
%TO.P,R46,1*%
%TO.N,DIR*%
X45466000Y-152273000D03*
%TO.P,R46,2*%
%TO.N,3V3_SYS*%
X46966000Y-152273000D03*
%TD*%
%TO.P,R9,1*%
%TO.N,Net-(J7-Pin_3)*%
X44958000Y-138164000D03*
%TO.P,R9,2*%
%TO.N,MCU_SHDN*%
X44958000Y-136664000D03*
%TD*%
%TO.P,R52,1*%
%TO.N,3V3_SYS*%
X70612000Y-152273000D03*
%TO.P,R52,2*%
%TO.N,Net-(D16-A)*%
X70612000Y-153773000D03*
%TD*%
D21*
%TO.P,U7,1,1A*%
%TO.N,Net-(U7A-1A)*%
X63373000Y-123444000D03*
%TO.P,U7,2,1Y*%
%TO.N,Net-(D13-K)*%
X63373000Y-124714000D03*
%TO.P,U7,3,2A*%
X63373000Y-125984000D03*
%TO.P,U7,4,2Y*%
%TO.N,Net-(D14-K)*%
X63373000Y-127254000D03*
%TO.P,U7,5,3A*%
%TO.N,Net-(U7C-3A)*%
X63373000Y-128524000D03*
%TO.P,U7,6,3Y*%
%TO.N,Net-(D15-K)*%
X63373000Y-129794000D03*
%TO.P,U7,7,GND*%
%TO.N,GND*%
X63373000Y-131064000D03*
%TO.P,U7,8,4Y*%
%TO.N,Net-(D16-K)*%
X68323000Y-131064000D03*
%TO.P,U7,9,4A*%
%TO.N,Net-(D15-K)*%
X68323000Y-129794000D03*
%TO.P,U7,10,5Y*%
%TO.N,Net-(D17-K)*%
X68323000Y-128524000D03*
%TO.P,U7,11,5A*%
%TO.N,Net-(U7E-5A)*%
X68323000Y-127254000D03*
%TO.P,U7,12,6Y*%
%TO.N,Net-(D18-K)*%
X68323000Y-125984000D03*
%TO.P,U7,13,6A*%
%TO.N,Net-(D17-K)*%
X68323000Y-124714000D03*
%TO.P,U7,14,VCC*%
%TO.N,3V3_SYS*%
X68323000Y-123444000D03*
%TD*%
D13*
%TO.P,TP15,TP*%
%TO.N,L3-TXD*%
X34163000Y-143129000D03*
%TD*%
D20*
%TO.P,R8,1*%
%TO.N,TX- (Z)*%
X32512000Y-56515000D03*
%TO.P,R8,2*%
%TO.N,TX-*%
X32512000Y-58340000D03*
%TD*%
D10*
%TO.P,R37,1*%
%TO.N,MODE0*%
X49681000Y-123444000D03*
%TO.P,R37,2*%
%TO.N,Net-(U6A-1A)*%
X51181000Y-123444000D03*
%TD*%
D26*
%TO.P,D5,1,K*%
%TO.N,Net-(D5-K)*%
X80731000Y-116205000D03*
%TO.P,D5,2,A*%
%TO.N,/Rx & Tx LED/RX_RC*%
X82931000Y-116205000D03*
%TD*%
D12*
%TO.P,D13,1,K*%
%TO.N,Net-(D13-K)*%
X38862000Y-156756001D03*
%TO.P,D13,2,A*%
%TO.N,Net-(D13-A)*%
X38862000Y-155155999D03*
%TD*%
D22*
%TO.P,C17,1*%
%TO.N,3V3_SYS*%
X66421000Y-77597000D03*
%TO.P,C17,2*%
%TO.N,GND*%
X63471000Y-77597000D03*
%TD*%
D28*
%TO.P,U8,1,1A*%
%TO.N,Net-(U8-1A)*%
X73950000Y-126588500D03*
%TO.P,U8,2,GND*%
%TO.N,GND*%
X73950000Y-127538500D03*
%TO.P,U8,3,2A*%
%TO.N,Net-(D19-K)*%
X73950000Y-128488500D03*
%TO.P,U8,4,2Y*%
%TO.N,Net-(D20-K)*%
X76225000Y-128488500D03*
%TO.P,U8,5,V_{CC}*%
%TO.N,3V3_SYS*%
X76225000Y-127538500D03*
%TO.P,U8,6,1Y*%
%TO.N,Net-(D19-K)*%
X76225000Y-126588500D03*
%TD*%
D12*
%TO.P,D11,1,K*%
%TO.N,Net-(D11-K)*%
X83312000Y-165126001D03*
%TO.P,D11,2,A*%
%TO.N,Net-(D11-A)*%
X83312000Y-163525999D03*
%TD*%
D29*
%TO.P,C15,1*%
%TO.N,3V3_SYS*%
X75438000Y-76327000D03*
%TO.P,C15,2*%
%TO.N,GND*%
X78388000Y-76327000D03*
%TD*%
D10*
%TO.P,R23,1*%
%TO.N,3V3_SYS*%
X69469000Y-98830000D03*
%TO.P,R23,2*%
%TO.N,Net-(U5-DIR)*%
X69469000Y-100330000D03*
%TD*%
%TO.P,R48,1*%
%TO.N,TERM_RX*%
X60337000Y-152273000D03*
%TO.P,R48,2*%
%TO.N,3V3_SYS*%
X61837000Y-152273000D03*
%TD*%
D11*
%TO.P,C20,1*%
%TO.N,Net-(U3-C2-)*%
X65913000Y-81989000D03*
%TO.P,C20,2*%
%TO.N,Net-(U3-C2+)*%
X64013000Y-81989000D03*
%TD*%
D13*
%TO.P,TP10,TP*%
%TO.N,TX-*%
X93472000Y-65151000D03*
%TD*%
D30*
%TO.P,J6,1,1*%
%TO.N,TX-*%
X86624099Y-56387797D03*
%TO.P,J6,2,2*%
%TO.N,TX+*%
X83844100Y-56387797D03*
%TO.P,J6,3,3*%
%TO.N,RX+*%
X81064100Y-56387797D03*
%TO.P,J6,4,4*%
%TO.N,RX-*%
X78284100Y-56387797D03*
%TO.P,J6,5,5*%
%TO.N,GND*%
X75504101Y-56387797D03*
%TO.P,J6,6,6*%
%TO.N,DSRBus*%
X85234099Y-53847797D03*
%TO.P,J6,7,7*%
%TO.N,RTSBus*%
X82454100Y-53847797D03*
%TO.P,J6,8,8*%
%TO.N,CTSBus*%
X79674100Y-53847797D03*
%TO.P,J6,9,9*%
%TO.N,RIBus*%
X76894101Y-53847797D03*
%TD*%
D31*
%TO.P,U4,1,1A*%
%TO.N,/Rx & Tx LED/TX_RC*%
X60573500Y-51684000D03*
%TO.P,U4,2,GND*%
%TO.N,GND*%
X60573500Y-50734000D03*
%TO.P,U4,3,2A*%
%TO.N,/Rx & Tx LED/RX_RC*%
X60573500Y-49784000D03*
%TO.P,U4,4,2Y*%
%TO.N,/Rx & Tx LED/RX_ACT*%
X58298500Y-49784000D03*
%TO.P,U4,5,V_{CC}*%
%TO.N,3V3_SYS*%
X58298500Y-50734000D03*
%TO.P,U4,6,1Y*%
%TO.N,/Rx & Tx LED/TX_ACT*%
X58298500Y-51684000D03*
%TD*%
D10*
%TO.P,R58,1*%
%TO.N,3V3_SYS*%
X48145000Y-152273000D03*
%TO.P,R58,2*%
%TO.N,Net-(J14-Pin_3)*%
X49645000Y-152273000D03*
%TD*%
D13*
%TO.P,TP22,TP*%
%TO.N,GND*%
X93472000Y-89027000D03*
%TD*%
D11*
%TO.P,C31,1*%
%TO.N,3V3_SYS*%
X76037500Y-124617500D03*
%TO.P,C31,2*%
%TO.N,GND*%
X74137500Y-124617500D03*
%TD*%
D10*
%TO.P,R13,1*%
%TO.N,3V3_SYS*%
X54761000Y-52451000D03*
%TO.P,R13,2*%
%TO.N,/Rx & Tx LED/TX_RC*%
X56261000Y-52451000D03*
%TD*%
%TO.P,R51,1*%
%TO.N,Net-(D15-A)*%
X68580000Y-153773000D03*
%TO.P,R51,2*%
%TO.N,3V3_SYS*%
X68580000Y-152273000D03*
%TD*%
%TO.P,R20,1*%
%TO.N,Net-(D4-A)*%
X56134000Y-39751000D03*
%TO.P,R20,2*%
%TO.N,Net-(J9-Pin_2)*%
X56134000Y-41251000D03*
%TD*%
%TO.P,R26,1*%
%TO.N,Net-(J10-Pin_2)*%
X40767000Y-160794000D03*
%TO.P,R26,2*%
%TO.N,Net-(D6-A)*%
X40767000Y-162294000D03*
%TD*%
D13*
%TO.P,TP30,TP*%
%TO.N,RIBus*%
X93472000Y-113157000D03*
%TD*%
D15*
%TO.P,J8,1,Pin_1*%
%TO.N,/Rx & Tx LED/TX_ACT*%
X56896000Y-55880000D03*
%TO.P,J8,2,Pin_2*%
%TO.N,Net-(J8-Pin_2)*%
X59436000Y-55880000D03*
%TO.P,J8,3,Pin_3*%
%TO.N,Net-(J8-Pin_3)*%
X61976000Y-55880000D03*
%TD*%
D27*
%TO.P,C3,1*%
%TO.N,3V3_LDO*%
X55626000Y-88744000D03*
%TO.P,C3,2*%
%TO.N,GND*%
X55626000Y-91694000D03*
%TD*%
D15*
%TO.P,J17,1,Pin_1*%
%TO.N,Net-(J17-Pin_1)*%
X88138000Y-155956000D03*
%TO.P,J17,2,Pin_2*%
%TO.N,SLR*%
X90678000Y-155956000D03*
%TO.P,J17,3,Pin_3*%
%TO.N,Net-(J17-Pin_3)*%
X93218000Y-155956000D03*
%TD*%
D23*
%TO.P,C28,1*%
%TO.N,3V3_SYS*%
X70358000Y-93726000D03*
%TO.P,C28,2*%
%TO.N,GND*%
X70358000Y-95626000D03*
%TD*%
D15*
%TO.P,J4,1,Pin_1*%
%TO.N,unconnected-(J4-Pin_1-Pad1)*%
X61087000Y-68453000D03*
%TO.P,J4,2,Pin_2*%
%TO.N,Net-(J4-Pin_2)*%
X61087000Y-65913000D03*
%TO.P,J4,3,Pin_3*%
%TO.N,TX- (Z)*%
X61087000Y-63373000D03*
%TD*%
D12*
%TO.P,D3,1,K*%
%TO.N,GND*%
X60706000Y-39751000D03*
%TO.P,D3,2,A*%
%TO.N,Net-(D3-A)*%
X60706000Y-41351002D03*
%TD*%
D13*
%TO.P,TP21,TP*%
%TO.N,L8-RI*%
X93472000Y-149033817D03*
%TD*%
D10*
%TO.P,R55,1*%
%TO.N,DIR*%
X59968000Y-123444000D03*
%TO.P,R55,2*%
%TO.N,Net-(U7A-1A)*%
X61468000Y-123444000D03*
%TD*%
%TO.P,R53,1*%
%TO.N,Net-(D17-A)*%
X53594000Y-153785000D03*
%TO.P,R53,2*%
%TO.N,3V3_SYS*%
X53594000Y-152285000D03*
%TD*%
D13*
%TO.P,TP18,TP*%
%TO.N,L4-DTR*%
X34163000Y-149098000D03*
%TD*%
D10*
%TO.P,R57,1*%
%TO.N,TERM_RX*%
X71755000Y-127508000D03*
%TO.P,R57,2*%
%TO.N,Net-(U7E-5A)*%
X70255000Y-127508000D03*
%TD*%
D11*
%TO.P,C21,1*%
%TO.N,Net-(U3-C1+)*%
X65908000Y-84201000D03*
%TO.P,C21,2*%
%TO.N,Net-(U3-C1-)*%
X64008000Y-84201000D03*
%TD*%
D16*
%TO.P,C12,1*%
%TO.N,3V3_SYS*%
X58801000Y-98425000D03*
%TO.P,C12,2*%
%TO.N,GND*%
X53801000Y-98425000D03*
%TD*%
D10*
%TO.P,R70,1*%
%TO.N,MCU_SLR*%
X82931000Y-90678000D03*
%TO.P,R70,2*%
%TO.N,Net-(CN7-Pin_10)*%
X82931000Y-89178000D03*
%TD*%
%TO.P,R40,1*%
%TO.N,3V3_SYS*%
X63016000Y-160655000D03*
%TO.P,R40,2*%
%TO.N,Net-(J11-Pin_3)*%
X64516000Y-160655000D03*
%TD*%
%TO.P,R10,1*%
%TO.N,/RS232 & RS485 Tranceiver/THVD_SHDN_N*%
X33286000Y-167386000D03*
%TO.P,R10,2*%
%TO.N,Net-(D1-A)*%
X34786000Y-167386000D03*
%TD*%
%TO.P,R38,1*%
%TO.N,MODE1*%
X49681000Y-128524000D03*
%TO.P,R38,2*%
%TO.N,Net-(U6C-3A)*%
X51181000Y-128524000D03*
%TD*%
D20*
%TO.P,R7,1*%
%TO.N,TX+ (Y)*%
X37592000Y-56515000D03*
%TO.P,R7,2*%
%TO.N,TX+*%
X37592000Y-58340000D03*
%TD*%
D15*
%TO.P,J1,1,Pin_1*%
%TO.N,unconnected-(J1-Pin_1-Pad1)*%
X77089000Y-68453000D03*
%TO.P,J1,2,Pin_2*%
%TO.N,TX+ (Y)*%
X77089000Y-65913000D03*
%TO.P,J1,3,Pin_3*%
%TO.N,RX+ (A)*%
X77089000Y-63373000D03*
%TD*%
D13*
%TO.P,TP8,TP*%
%TO.N,Net-(U2-ST)*%
X34163000Y-94869000D03*
%TD*%
D10*
%TO.P,R35,1*%
%TO.N,Net-(D11-A)*%
X83312000Y-162155000D03*
%TO.P,R35,2*%
%TO.N,3V3_SYS*%
X83312000Y-160655000D03*
%TD*%
D14*
%TO.P,C4,1*%
%TO.N,NUCLEO_3V3*%
X45466000Y-85979000D03*
%TO.P,C4,2*%
%TO.N,GND*%
X45466000Y-83029000D03*
%TD*%
D10*
%TO.P,R1,1*%
%TO.N,NUCLEO_3V3*%
X49530000Y-87860000D03*
%TO.P,R1,2*%
%TO.N,Net-(U2-PR1)*%
X49530000Y-86360000D03*
%TD*%
D32*
%TO.P,U3,1,L1*%
%TO.N,L1-DCD*%
X69768999Y-83661999D03*
%TO.P,U3,2,L2*%
%TO.N,L2-RXD*%
X70269001Y-83661999D03*
%TO.P,U3,3,L3*%
%TO.N,L3-TXD*%
X70769000Y-83661999D03*
%TO.P,U3,4,L4*%
%TO.N,L4-DTR*%
X71268999Y-83661999D03*
%TO.P,U3,5,L5*%
%TO.N,L5-DSR*%
X71769000Y-83661999D03*
%TO.P,U3,6,L6*%
%TO.N,L6-RTS*%
X72269000Y-83661999D03*
%TO.P,U3,7,L7*%
%TO.N,L7-CTS*%
X72769001Y-83661999D03*
%TO.P,U3,8,L8*%
%TO.N,L8-RI*%
X73269000Y-83661999D03*
%TO.P,U3,9,VIO*%
%TO.N,3V3_SYS*%
X73768999Y-83661999D03*
%TO.P,U3,10,GND*%
%TO.N,GND*%
X74269001Y-83661999D03*
D33*
%TO.P,U3,11,SLR*%
%TO.N,SLR*%
X74918999Y-83012001D03*
%TO.P,U3,12,DIR*%
%TO.N,DIR*%
X74918999Y-82511999D03*
%TO.P,U3,13,MODE2*%
%TO.N,MODE2*%
X74918999Y-82012000D03*
%TO.P,U3,14,MODE0*%
%TO.N,MODE0*%
X74918999Y-81512001D03*
%TO.P,U3,15,MODE1*%
%TO.N,MODE1*%
X74918999Y-81012000D03*
%TO.P,U3,16,NC*%
%TO.N,unconnected-(U3-NC-Pad16)*%
X74918999Y-80512000D03*
%TO.P,U3,17,TERM_TX*%
%TO.N,TERM_TX*%
X74918999Y-80011999D03*
%TO.P,U3,18,TERM_RX*%
%TO.N,TERM_RX*%
X74918999Y-79512000D03*
%TO.P,U3,19,SHDN_N*%
%TO.N,/RS232 & RS485 Tranceiver/THVD_SHDN_N*%
X74918999Y-79012001D03*
%TO.P,U3,20,VCC*%
%TO.N,3V3_SYS*%
X74918999Y-78511999D03*
D32*
%TO.P,U3,21,R8*%
%TO.N,RIBus*%
X74269001Y-77862001D03*
%TO.P,U3,22,R7*%
%TO.N,CTSBus*%
X73768999Y-77862001D03*
%TO.P,U3,23,GND*%
%TO.N,GND*%
X73269000Y-77862001D03*
%TO.P,U3,24,R6*%
%TO.N,RTSBus*%
X72769001Y-77862001D03*
%TO.P,U3,25,R5*%
%TO.N,DSRBus*%
X72269000Y-77862001D03*
%TO.P,U3,26,GND*%
%TO.N,GND*%
X71769000Y-77862001D03*
%TO.P,U3,27,R4*%
%TO.N,RX-*%
X71268999Y-77862001D03*
%TO.P,U3,28,R3*%
%TO.N,RX+*%
X70769000Y-77862001D03*
%TO.P,U3,29,GND*%
%TO.N,GND*%
X70269001Y-77862001D03*
%TO.P,U3,30,R2*%
%TO.N,TX+*%
X69768999Y-77862001D03*
D33*
%TO.P,U3,31,R1*%
%TO.N,TX-*%
X69119001Y-78511999D03*
%TO.P,U3,32,VCC*%
%TO.N,3V3_SYS*%
X69119001Y-79012001D03*
%TO.P,U3,33,V-*%
%TO.N,Net-(U3-V-)*%
X69119001Y-79512000D03*
%TO.P,U3,34,C2-*%
%TO.N,Net-(U3-C2-)*%
X69119001Y-80011999D03*
%TO.P,U3,35,C1-*%
%TO.N,Net-(U3-C1-)*%
X69119001Y-80512000D03*
%TO.P,U3,36,NC*%
%TO.N,unconnected-(U3-NC-Pad36)*%
X69119001Y-81012000D03*
%TO.P,U3,37,C1+*%
%TO.N,Net-(U3-C1+)*%
X69119001Y-81512001D03*
%TO.P,U3,38,VCC*%
%TO.N,3V3_SYS*%
X69119001Y-82012000D03*
%TO.P,U3,39,C2+*%
%TO.N,Net-(U3-C2+)*%
X69119001Y-82511999D03*
%TO.P,U3,40,V+*%
%TO.N,Net-(U3-V+)*%
X69119001Y-83012001D03*
D34*
%TO.P,U3,41,EP*%
%TO.N,GND*%
X70849000Y-82837000D03*
X72019000Y-82837000D03*
X73189000Y-82837000D03*
X69944000Y-81932000D03*
X70849000Y-81932000D03*
X72019000Y-81932000D03*
X73189000Y-81932000D03*
X74094000Y-81932000D03*
X69944000Y-80762000D03*
X70849000Y-80762000D03*
D35*
X72019000Y-80762000D03*
D34*
X73189000Y-80762000D03*
X74094000Y-80762000D03*
X72019000Y-80736600D03*
X69944000Y-79592000D03*
X70849000Y-79592000D03*
X72019000Y-79592000D03*
X73189000Y-79592000D03*
X74094000Y-79592000D03*
X70849000Y-78687000D03*
X72019000Y-78687000D03*
X73189000Y-78687000D03*
%TD*%
D13*
%TO.P,TP29,TP*%
%TO.N,GND*%
X93472000Y-119126000D03*
%TD*%
D10*
%TO.P,R25,1*%
%TO.N,Net-(U5-B8)*%
X79375000Y-94349000D03*
%TO.P,R25,2*%
%TO.N,GND*%
X79375000Y-92849000D03*
%TD*%
D12*
%TO.P,D18,1,K*%
%TO.N,Net-(D18-K)*%
X55626000Y-156756001D03*
%TO.P,D18,2,A*%
%TO.N,Net-(D18-A)*%
X55626000Y-155155999D03*
%TD*%
D11*
%TO.P,C18,1*%
%TO.N,Net-(U3-V-)*%
X65847000Y-79756000D03*
%TO.P,C18,2*%
%TO.N,GND*%
X63947000Y-79756000D03*
%TD*%
D15*
%TO.P,J14,1,Pin_1*%
%TO.N,Net-(J14-Pin_1)*%
X43688000Y-155956000D03*
%TO.P,J14,2,Pin_2*%
%TO.N,DIR*%
X46228000Y-155956000D03*
%TO.P,J14,3,Pin_3*%
%TO.N,Net-(J14-Pin_3)*%
X48768000Y-155956000D03*
%TD*%
D10*
%TO.P,R15,1*%
%TO.N,Net-(J8-Pin_2)*%
X64262000Y-41251000D03*
%TO.P,R15,2*%
%TO.N,GND*%
X64262000Y-39751000D03*
%TD*%
%TO.P,R14,1*%
%TO.N,MCU_TXLED_GPIO*%
X44958000Y-96151000D03*
%TO.P,R14,2*%
%TO.N,Net-(J8-Pin_3)*%
X44958000Y-97651000D03*
%TD*%
D11*
%TO.P,C23,1*%
%TO.N,GND*%
X64389000Y-51816000D03*
%TO.P,C23,2*%
%TO.N,/Rx & Tx LED/TX_RC*%
X62489000Y-51816000D03*
%TD*%
%TO.P,C25,1*%
%TO.N,3V3_SYS*%
X56515000Y-50800000D03*
%TO.P,C25,2*%
%TO.N,GND*%
X54615000Y-50800000D03*
%TD*%
D10*
%TO.P,R44,1*%
%TO.N,3V3_SYS*%
X92595000Y-160655000D03*
%TO.P,R44,2*%
%TO.N,Net-(J13-Pin_3)*%
X94095000Y-160655000D03*
%TD*%
%TO.P,R16,1*%
%TO.N,Net-(J8-Pin_2)*%
X62687999Y-41251000D03*
%TO.P,R16,2*%
%TO.N,Net-(D3-A)*%
X62687999Y-39751000D03*
%TD*%
D17*
%TO.P,C7,1*%
%TO.N,3V3_LDO*%
X53213000Y-85405000D03*
%TO.P,C7,2*%
%TO.N,GND*%
X53213000Y-83505000D03*
%TD*%
D12*
%TO.P,D7,1,K*%
%TO.N,Net-(D7-K)*%
X53721000Y-165126001D03*
%TO.P,D7,2,A*%
%TO.N,Net-(D7-A)*%
X53721000Y-163525999D03*
%TD*%
D15*
%TO.P,J16,1,Pin_1*%
%TO.N,Net-(J16-Pin_1)*%
X58547000Y-155956000D03*
%TO.P,J16,2,Pin_2*%
%TO.N,TERM_RX*%
X61087000Y-155956000D03*
%TO.P,J16,3,Pin_3*%
%TO.N,Net-(J16-Pin_3)*%
X63627000Y-155956000D03*
%TD*%
D10*
%TO.P,R18,1*%
%TO.N,3V3_SYS*%
X54761000Y-49149000D03*
%TO.P,R18,2*%
%TO.N,/Rx & Tx LED/RX_RC*%
X56261000Y-49149000D03*
%TD*%
D13*
%TO.P,TP28,TP*%
%TO.N,CTSBus*%
X93472000Y-107188000D03*
%TD*%
D10*
%TO.P,R43,1*%
%TO.N,GND*%
X72541000Y-160655000D03*
%TO.P,R43,2*%
%TO.N,Net-(J12-Pin_1)*%
X74041000Y-160655000D03*
%TD*%
D17*
%TO.P,C8,1*%
%TO.N,3V3_SYS*%
X50165000Y-82291000D03*
%TO.P,C8,2*%
%TO.N,GND*%
X50165000Y-80391000D03*
%TD*%
D10*
%TO.P,R27,1*%
%TO.N,Net-(J10-Pin_2)*%
X47903000Y-161036000D03*
%TO.P,R27,2*%
%TO.N,GND*%
X49403000Y-161036000D03*
%TD*%
D36*
%TO.P,U5,1,DIR*%
%TO.N,Net-(U5-DIR)*%
X72390000Y-101422200D03*
%TO.P,U5,2,A1*%
%TO.N,MCU_SLR*%
X73025000Y-101422200D03*
%TO.P,U5,3,A2*%
%TO.N,MCU_TERM_TX*%
X73685400Y-101422200D03*
%TO.P,U5,4,A3*%
%TO.N,MCU_TERM_RX*%
X74345800Y-101422200D03*
%TO.P,U5,5,A4*%
%TO.N,MCU_DIR*%
X74980800Y-101422200D03*
%TO.P,U5,6,A5*%
%TO.N,MCU_MODE0*%
X75641200Y-101422200D03*
%TO.P,U5,7,A6*%
%TO.N,MCU_MODE1*%
X76276200Y-101422200D03*
%TO.P,U5,8,A7*%
%TO.N,MCU_MODE2*%
X76936600Y-101422200D03*
%TO.P,U5,9,A8*%
%TO.N,Net-(U5-A8)*%
X77597000Y-101422200D03*
%TO.P,U5,10,GND*%
%TO.N,GND*%
X78232000Y-101422200D03*
%TO.P,U5,11,B8*%
%TO.N,Net-(U5-B8)*%
X78232000Y-94157800D03*
%TO.P,U5,12,B7*%
%TO.N,MODE2*%
X77597000Y-94157800D03*
%TO.P,U5,13,B6*%
%TO.N,MODE1*%
X76936600Y-94157800D03*
%TO.P,U5,14,B5*%
%TO.N,MODE0*%
X76276200Y-94157800D03*
%TO.P,U5,15,B4*%
%TO.N,DIR*%
X75641200Y-94157800D03*
%TO.P,U5,16,B3*%
%TO.N,TERM_RX*%
X74980800Y-94157800D03*
%TO.P,U5,17,B2*%
%TO.N,TERM_TX*%
X74345800Y-94157800D03*
%TO.P,U5,18,B1*%
%TO.N,SLR*%
X73685400Y-94157800D03*
%TO.P,U5,19,\u002AOE*%
%TO.N,Net-(J10-Pin_2)*%
X73025000Y-94157800D03*
%TO.P,U5,20,VCC*%
%TO.N,3V3_SYS*%
X72390000Y-94157800D03*
%TD*%
D12*
%TO.P,D17,1,K*%
%TO.N,Net-(D17-K)*%
X53594000Y-156756001D03*
%TO.P,D17,2,A*%
%TO.N,Net-(D17-A)*%
X53594000Y-155155999D03*
%TD*%
D10*
%TO.P,R65,1*%
%TO.N,Net-(D19-A)*%
X83312000Y-153785000D03*
%TO.P,R65,2*%
%TO.N,3V3_SYS*%
X83312000Y-152285000D03*
%TD*%
%TO.P,R21,1*%
%TO.N,MCU_RXLED_GPIO*%
X44958000Y-93968000D03*
%TO.P,R21,2*%
%TO.N,Net-(J9-Pin_3)*%
X44958000Y-92468000D03*
%TD*%
D13*
%TO.P,TP12,TP*%
%TO.N,L2-RXD*%
X34163000Y-137160000D03*
%TD*%
D10*
%TO.P,R42,1*%
%TO.N,3V3_SYS*%
X77851000Y-160655000D03*
%TO.P,R42,2*%
%TO.N,Net-(J12-Pin_3)*%
X79351000Y-160655000D03*
%TD*%
D37*
%TO.P,CN10,01,Pin_1*%
%TO.N,unconnected-(CN10-Pin_1-Pad01)*%
X85459000Y-96500000D03*
D38*
%TO.P,CN10,02,Pin_2*%
%TO.N,Net-(CN10-Pin_2)*%
X87999000Y-96500000D03*
%TO.P,CN10,03,Pin_3*%
%TO.N,unconnected-(CN10-Pin_3-Pad03)*%
X85459000Y-99040000D03*
%TO.P,CN10,04,Pin_4*%
%TO.N,unconnected-(CN10-Pin_4-Pad04)*%
X87999000Y-99040000D03*
%TO.P,CN10,05,Pin_5*%
%TO.N,unconnected-(CN10-Pin_5-Pad05)*%
X85459000Y-101580000D03*
%TO.P,CN10,06,Pin_6*%
%TO.N,unconnected-(CN10-Pin_6-Pad06)*%
X87999000Y-101580000D03*
%TO.P,CN10,07,Pin_7*%
%TO.N,unconnected-(CN10-Pin_7-Pad07)*%
X85459000Y-104120000D03*
%TO.P,CN10,08,Pin_8*%
%TO.N,L7-CTS*%
X87999000Y-104120000D03*
%TO.P,CN10,09,Pin_9*%
%TO.N,unconnected-(CN10-Pin_9-Pad09)*%
X85459000Y-106660000D03*
%TO.P,CN10,10,Pin_10*%
%TO.N,unconnected-(CN10-Pin_10-Pad10)*%
X87999000Y-106660000D03*
%TO.P,CN10,11,Pin_11*%
%TO.N,unconnected-(CN10-Pin_11-Pad11)*%
X85459000Y-109200000D03*
%TO.P,CN10,12,Pin_12*%
%TO.N,L6-RTS*%
X87999000Y-109200000D03*
%TO.P,CN10,13,Pin_13*%
%TO.N,unconnected-(CN10-Pin_13-Pad13)*%
X85459000Y-111740000D03*
%TO.P,CN10,14,Pin_14*%
%TO.N,L3-TXD*%
X87999000Y-111740000D03*
%TO.P,CN10,15,Pin_15*%
%TO.N,unconnected-(CN10-Pin_15-Pad15)*%
X85459000Y-114280000D03*
%TO.P,CN10,16,Pin_16*%
%TO.N,L2-RXD*%
X87999000Y-114280000D03*
%TO.P,CN10,17,Pin_17*%
%TO.N,unconnected-(CN10-Pin_17-Pad17)*%
X85459000Y-116820000D03*
%TO.P,CN10,18,Pin_18*%
%TO.N,unconnected-(CN10-Pin_18-Pad18)*%
X87999000Y-116820000D03*
%TO.P,CN10,19,Pin_19*%
%TO.N,unconnected-(CN10-Pin_19-Pad19)*%
X85459000Y-119360000D03*
%TO.P,CN10,20,Pin_20*%
%TO.N,unconnected-(CN10-Pin_20-Pad20)*%
X87999000Y-119360000D03*
%TO.P,CN10,21,Pin_21*%
%TO.N,unconnected-(CN10-Pin_21-Pad21)*%
X85459000Y-121900000D03*
%TO.P,CN10,22,Pin_22*%
%TO.N,unconnected-(CN10-Pin_22-Pad22)*%
X87999000Y-121900000D03*
%TO.P,CN10,23,Pin_23*%
%TO.N,unconnected-(CN10-Pin_23-Pad23)*%
X85459000Y-124440000D03*
%TO.P,CN10,24,Pin_24*%
%TO.N,unconnected-(CN10-Pin_24-Pad24)*%
X87999000Y-124440000D03*
%TO.P,CN10,25,Pin_25*%
%TO.N,unconnected-(CN10-Pin_25-Pad25)*%
X85459000Y-126980000D03*
%TO.P,CN10,26,Pin_26*%
%TO.N,unconnected-(CN10-Pin_26-Pad26)*%
X87999000Y-126980000D03*
%TO.P,CN10,27,Pin_27*%
%TO.N,unconnected-(CN10-Pin_27-Pad27)*%
X85459000Y-129520000D03*
%TO.P,CN10,28,Pin_28*%
%TO.N,unconnected-(CN10-Pin_28-Pad28)*%
X87999000Y-129520000D03*
%TO.P,CN10,29,Pin_29*%
%TO.N,unconnected-(CN10-Pin_29-Pad29)*%
X85459000Y-132060000D03*
%TO.P,CN10,30,Pin_30*%
%TO.N,unconnected-(CN10-Pin_30-Pad30)*%
X87999000Y-132060000D03*
%TO.P,CN10,31,Pin_31*%
%TO.N,unconnected-(CN10-Pin_31-Pad31)*%
X85459000Y-134600000D03*
%TO.P,CN10,32,Pin_32*%
%TO.N,unconnected-(CN10-Pin_32-Pad32)*%
X87999000Y-134600000D03*
%TO.P,CN10,33,Pin_33*%
%TO.N,unconnected-(CN10-Pin_33-Pad33)*%
X85459000Y-137140000D03*
%TO.P,CN10,34,Pin_34*%
%TO.N,unconnected-(CN10-Pin_34-Pad34)*%
X87999000Y-137140000D03*
%TD*%
D39*
%TO.P,CN7,01,Pin_1*%
%TO.N,unconnected-(CN7-Pin_1-Pad01)*%
X85459000Y-69596000D03*
D40*
%TO.P,CN7,02,Pin_2*%
%TO.N,L8-RI*%
X87999000Y-69596000D03*
%TO.P,CN7,03,Pin_3*%
%TO.N,unconnected-(CN7-Pin_3-Pad03)*%
X85459000Y-72136000D03*
%TO.P,CN7,04,Pin_4*%
%TO.N,L5-DSR*%
X87999000Y-72136000D03*
%TO.P,CN7,05,Pin_5*%
%TO.N,unconnected-(CN7-Pin_5-Pad05)*%
X85459000Y-74676000D03*
%TO.P,CN7,06,Pin_6*%
%TO.N,unconnected-(CN7-Pin_6-Pad06)*%
X87999000Y-74676000D03*
%TO.P,CN7,07,Pin_7*%
%TO.N,unconnected-(CN7-Pin_7-Pad07)*%
X85459000Y-77216000D03*
%TO.P,CN7,08,Pin_8*%
%TO.N,unconnected-(CN7-Pin_8-Pad08)*%
X87999000Y-77216000D03*
%TO.P,CN7,09,Pin_9*%
%TO.N,unconnected-(CN7-Pin_9-Pad09)*%
X85459000Y-79756000D03*
%TO.P,CN7,10,Pin_10*%
%TO.N,Net-(CN7-Pin_10)*%
X87999000Y-79756000D03*
%TO.P,CN7,11,Pin_11*%
%TO.N,unconnected-(CN7-Pin_11-Pad11)*%
X85459000Y-82296000D03*
%TO.P,CN7,12,Pin_12*%
%TO.N,L4-DTR*%
X87999000Y-82296000D03*
%TO.P,CN7,13,Pin_13*%
%TO.N,unconnected-(CN7-Pin_13-Pad13)*%
X85459000Y-84836000D03*
%TO.P,CN7,14,Pin_14*%
%TO.N,L1-DCD*%
X87999000Y-84836000D03*
%TO.P,CN7,15,Pin_15*%
%TO.N,unconnected-(CN7-Pin_15-Pad15)*%
X85459000Y-87376000D03*
%TO.P,CN7,16,Pin_16*%
%TO.N,unconnected-(CN7-Pin_16-Pad16)*%
X87999000Y-87376000D03*
%TO.P,CN7,17,Pin_17*%
%TO.N,unconnected-(CN7-Pin_17-Pad17)*%
X85459000Y-89916000D03*
%TO.P,CN7,18,Pin_18*%
%TO.N,unconnected-(CN7-Pin_18-Pad18)*%
X87999000Y-89916000D03*
%TO.P,CN7,19,Pin_19*%
%TO.N,unconnected-(CN7-Pin_19-Pad19)*%
X85459000Y-92456000D03*
%TO.P,CN7,20,Pin_20*%
%TO.N,Net-(CN7-Pin_20)*%
X87999000Y-92456000D03*
%TD*%
D37*
%TO.P,CN8,01,Pin_1*%
%TO.N,unconnected-(CN8-Pin_1-Pad01)*%
X39739000Y-78740000D03*
D38*
%TO.P,CN8,02,Pin_2*%
%TO.N,unconnected-(CN8-Pin_2-Pad02)*%
X42279000Y-78740000D03*
%TO.P,CN8,03,Pin_3*%
%TO.N,unconnected-(CN8-Pin_3-Pad03)*%
X39739000Y-81280000D03*
%TO.P,CN8,04,Pin_4*%
%TO.N,unconnected-(CN8-Pin_4-Pad04)*%
X42279000Y-81280000D03*
%TO.P,CN8,05,Pin_5*%
%TO.N,unconnected-(CN8-Pin_5-Pad05)*%
X39739000Y-83820000D03*
%TO.P,CN8,06,Pin_6*%
%TO.N,unconnected-(CN8-Pin_6-Pad06)*%
X42279000Y-83820000D03*
%TO.P,CN8,07,Pin_7*%
%TO.N,NUCLEO_3V3*%
X39739000Y-86360000D03*
%TO.P,CN8,08,Pin_8*%
%TO.N,unconnected-(CN8-Pin_8-Pad08)*%
X42279000Y-86360000D03*
%TO.P,CN8,09,Pin_9*%
%TO.N,ARDUINO_5V*%
X39739000Y-88900000D03*
%TO.P,CN8,10,Pin_10*%
%TO.N,unconnected-(CN8-Pin_10-Pad10)*%
X42279000Y-88900000D03*
%TO.P,CN8,11,Pin_11*%
%TO.N,GND*%
X39739000Y-91440000D03*
%TO.P,CN8,12,Pin_12*%
%TO.N,unconnected-(CN8-Pin_12-Pad12)*%
X42279000Y-91440000D03*
%TO.P,CN8,13,Pin_13*%
%TO.N,GND*%
X39739000Y-93980000D03*
%TO.P,CN8,14,Pin_14*%
%TO.N,MCU_RXLED_GPIO*%
X42279000Y-93980000D03*
%TO.P,CN8,15,Pin_15*%
%TO.N,unconnected-(CN8-Pin_15-Pad15)*%
X39739000Y-96520000D03*
%TO.P,CN8,16,Pin_16*%
%TO.N,MCU_TXLED_GPIO*%
X42279000Y-96520000D03*
%TD*%
D37*
%TO.P,CN9,01,Pin_1*%
%TO.N,Net-(CN9-Pin_1)*%
X39739000Y-101600000D03*
D38*
%TO.P,CN9,02,Pin_2*%
%TO.N,unconnected-(CN9-Pin_2-Pad02)*%
X42279000Y-101600000D03*
%TO.P,CN9,03,Pin_3*%
%TO.N,MCU_OE*%
X39739000Y-104140000D03*
%TO.P,CN9,04,Pin_4*%
%TO.N,unconnected-(CN9-Pin_4-Pad04)*%
X42279000Y-104140000D03*
%TO.P,CN9,05,Pin_5*%
%TO.N,Net-(CN9-Pin_5)*%
X39739000Y-106680000D03*
%TO.P,CN9,06,Pin_6*%
%TO.N,unconnected-(CN9-Pin_6-Pad06)*%
X42279000Y-106680000D03*
%TO.P,CN9,07,Pin_7*%
%TO.N,Net-(CN9-Pin_7)*%
X39739000Y-109220000D03*
%TO.P,CN9,08,Pin_8*%
%TO.N,unconnected-(CN9-Pin_8-Pad08)*%
X42279000Y-109220000D03*
%TO.P,CN9,09,Pin_9*%
%TO.N,Net-(CN9-Pin_9)*%
X39739000Y-111760000D03*
%TO.P,CN9,10,Pin_10*%
%TO.N,unconnected-(CN9-Pin_10-Pad10)*%
X42279000Y-111760000D03*
%TO.P,CN9,11,Pin_11*%
%TO.N,unconnected-(CN9-Pin_11-Pad11)*%
X39739000Y-114300000D03*
%TO.P,CN9,12,Pin_12*%
%TO.N,unconnected-(CN9-Pin_12-Pad12)*%
X42279000Y-114300000D03*
%TO.P,CN9,13,Pin_13*%
%TO.N,unconnected-(CN9-Pin_13-Pad13)*%
X39739000Y-116840000D03*
%TO.P,CN9,14,Pin_14*%
%TO.N,unconnected-(CN9-Pin_14-Pad14)*%
X42279000Y-116840000D03*
%TO.P,CN9,15,Pin_15*%
%TO.N,unconnected-(CN9-Pin_15-Pad15)*%
X39739000Y-119380000D03*
%TO.P,CN9,16,Pin_16*%
%TO.N,unconnected-(CN9-Pin_16-Pad16)*%
X42279000Y-119380000D03*
%TO.P,CN9,17,Pin_17*%
%TO.N,unconnected-(CN9-Pin_17-Pad17)*%
X39739000Y-121920000D03*
%TO.P,CN9,18,Pin_18*%
%TO.N,unconnected-(CN9-Pin_18-Pad18)*%
X42279000Y-121920000D03*
%TO.P,CN9,19,Pin_19*%
%TO.N,unconnected-(CN9-Pin_19-Pad19)*%
X39739000Y-124460000D03*
%TO.P,CN9,20,Pin_20*%
%TO.N,unconnected-(CN9-Pin_20-Pad20)*%
X42279000Y-124460000D03*
%TO.P,CN9,21,Pin_21*%
%TO.N,unconnected-(CN9-Pin_21-Pad21)*%
X39739000Y-127000000D03*
%TO.P,CN9,22,Pin_22*%
%TO.N,unconnected-(CN9-Pin_22-Pad22)*%
X42279000Y-127000000D03*
%TO.P,CN9,23,Pin_23*%
%TO.N,unconnected-(CN9-Pin_23-Pad23)*%
X39739000Y-129540000D03*
%TO.P,CN9,24,Pin_24*%
%TO.N,unconnected-(CN9-Pin_24-Pad24)*%
X42279000Y-129540000D03*
%TO.P,CN9,25,Pin_25*%
%TO.N,unconnected-(CN9-Pin_25-Pad25)*%
X39739000Y-132080000D03*
%TO.P,CN9,26,Pin_26*%
%TO.N,unconnected-(CN9-Pin_26-Pad26)*%
X42279000Y-132080000D03*
%TO.P,CN9,27,Pin_27*%
%TO.N,unconnected-(CN9-Pin_27-Pad27)*%
X39739000Y-134620000D03*
%TO.P,CN9,28,Pin_28*%
%TO.N,unconnected-(CN9-Pin_28-Pad28)*%
X42279000Y-134620000D03*
%TO.P,CN9,29,Pin_29*%
%TO.N,unconnected-(CN9-Pin_29-Pad29)*%
X39739000Y-137160000D03*
%TO.P,CN9,30,Pin_30*%
%TO.N,MCU_SHDN*%
X42279000Y-137160000D03*
%TD*%
D41*
%TO.N,GND*%
X55499000Y-81661000D03*
X53848000Y-76708000D03*
X53848000Y-75946000D03*
X54991000Y-75946000D03*
X32004000Y-165608000D03*
X64389000Y-85852000D03*
X73055500Y-124236500D03*
X71628000Y-160655000D03*
X54991000Y-76708000D03*
X80010000Y-107950000D03*
X45974000Y-89662000D03*
X62992000Y-89916000D03*
X47244000Y-76200000D03*
X54864000Y-98806000D03*
X65786000Y-122047000D03*
X65024000Y-130683000D03*
X53721000Y-98806000D03*
X79375000Y-91948000D03*
X53467000Y-122047000D03*
X47371000Y-90297000D03*
X61595000Y-50800000D03*
X64426000Y-77216000D03*
X44831000Y-76200000D03*
X59436000Y-39751000D03*
X53721000Y-98044000D03*
X53594000Y-51308000D03*
X62992000Y-79248000D03*
X50546000Y-79375000D03*
X52705000Y-75946000D03*
X41910000Y-152273000D03*
X55626000Y-92964000D03*
X49657000Y-79375000D03*
X82931000Y-75819000D03*
X65786000Y-121031000D03*
X49403000Y-162052000D03*
X77421000Y-75819000D03*
X64389000Y-48514000D03*
X55118000Y-130810000D03*
X65151000Y-39751000D03*
X76835000Y-86868000D03*
X64214000Y-52959000D03*
X52705000Y-76708000D03*
X53467000Y-121158000D03*
X46101000Y-84201000D03*
X45974000Y-76200000D03*
X86360000Y-152273000D03*
X80264000Y-104140000D03*
X64389000Y-86868000D03*
X81661000Y-120142000D03*
X48133000Y-84328000D03*
X86360000Y-160655000D03*
X64426000Y-77978000D03*
X56642000Y-152273000D03*
X53594000Y-50292000D03*
X75087500Y-129062500D03*
X71628000Y-152273000D03*
X68956000Y-95626000D03*
X78232000Y-99949000D03*
X52578000Y-98806000D03*
X47244000Y-84328000D03*
X72801500Y-127538500D03*
X77421000Y-76835000D03*
X56769000Y-160655000D03*
X54483000Y-42164000D03*
X44958000Y-89662000D03*
X54864000Y-98044000D03*
X40767000Y-166116000D03*
X44831000Y-84201000D03*
X62992000Y-80264000D03*
X51816000Y-87757000D03*
X48387000Y-76200000D03*
X52578000Y-98044000D03*
X73055500Y-124998500D03*
%TO.N,3V3_SYS*%
X76405000Y-76835000D03*
X61849000Y-151257000D03*
X76405000Y-75819000D03*
X48260000Y-79375000D03*
X55626000Y-50419000D03*
X45974000Y-79375000D03*
X57912000Y-76708000D03*
X46990000Y-151130000D03*
X58928000Y-75946000D03*
X47371000Y-79375000D03*
X59944000Y-75946000D03*
X49784000Y-81407000D03*
X57658000Y-98044000D03*
X67945000Y-121031000D03*
X57912000Y-75946000D03*
X68580000Y-93919000D03*
X74930000Y-86868000D03*
X57658000Y-98806000D03*
X39878000Y-152273000D03*
X44958000Y-79375000D03*
X57531000Y-121920000D03*
X59944000Y-76708000D03*
X77119500Y-124998500D03*
X61849000Y-159639000D03*
X76708000Y-151003000D03*
X53848000Y-52451000D03*
X59944000Y-98806000D03*
X67945000Y-122047000D03*
X76708000Y-159639000D03*
X91440000Y-159639000D03*
X91440000Y-151003000D03*
X58928000Y-76708000D03*
X54737000Y-160655000D03*
X44450000Y-162052000D03*
X69596000Y-152273000D03*
X55626000Y-51181000D03*
X84328000Y-160655000D03*
X77119500Y-124236500D03*
X53848000Y-49149000D03*
X59944000Y-98044000D03*
X50546000Y-81407000D03*
X54610000Y-152273000D03*
X58801000Y-98806000D03*
X69596000Y-160655000D03*
X68580000Y-98806000D03*
X65405000Y-77978000D03*
X65405000Y-86868000D03*
X65405000Y-85852000D03*
X84328000Y-152273000D03*
X58801000Y-98044000D03*
X65405000Y-77216000D03*
X57531000Y-121158000D03*
%TO.N,3V3_LDO*%
X55499000Y-84328000D03*
%TO.N,/Rx & Tx LED/TX_RC*%
X82169000Y-116967000D03*
X68580000Y-40513000D03*
X57150000Y-52451000D03*
X60579000Y-52578000D03*
%TO.N,/Rx & Tx LED/RX_RC*%
X70231000Y-40259000D03*
X60579000Y-48895000D03*
X57150000Y-49149000D03*
X82677000Y-119380000D03*
%TO.N,Net-(D10-K)*%
X53848000Y-132969000D03*
X57404000Y-132588000D03*
%TO.N,Net-(D11-K)*%
X56642000Y-133477000D03*
X56642000Y-128524000D03*
%TO.N,Net-(D12-K)*%
X56007000Y-130810000D03*
X59690000Y-125984000D03*
%TO.N,L3-TXD*%
X71628000Y-88392000D03*
%TO.N,L2-RXD*%
X71628000Y-89408000D03*
%TO.N,MODE0*%
X67818000Y-95631000D03*
X48514000Y-123444000D03*
%TO.N,Net-(J7-Pin_3)*%
X44958000Y-139065000D03*
%TO.N,MCU_SLR*%
X81915000Y-90678000D03*
X73025000Y-99695000D03*
%TO.N,MCU_MODE0*%
X75438000Y-98806000D03*
X80010000Y-96901000D03*
%TO.N,MCU_DIR*%
X74422000Y-98806000D03*
X77216000Y-98425000D03*
%TO.N,MODE1*%
X67818000Y-96774000D03*
X49784000Y-132080000D03*
%TO.N,Net-(J8-Pin_3)*%
X46355000Y-97663000D03*
%TO.N,MODE2*%
X61468000Y-134874000D03*
X67818000Y-97663000D03*
X61468000Y-126365000D03*
X77216000Y-82169000D03*
X77216000Y-80264000D03*
%TO.N,Net-(J9-Pin_3)*%
X46228000Y-92456000D03*
%TO.N,DIR*%
X75692000Y-91186000D03*
X66167000Y-102997000D03*
X58928000Y-120396000D03*
%TO.N,TERM_TX*%
X59944000Y-129794000D03*
X79629000Y-90932000D03*
X59944000Y-134874000D03*
X65659000Y-98933000D03*
X74803000Y-95885000D03*
%TO.N,TERM_RX*%
X60325000Y-150622000D03*
X70231000Y-92583000D03*
X80391000Y-91440000D03*
X74930000Y-92583000D03*
X73025000Y-92583000D03*
X75946000Y-95885000D03*
X71247000Y-132334000D03*
%TO.N,SLR*%
X69469000Y-91821000D03*
X70739000Y-123190000D03*
%TO.N,L7-CTS*%
X73660000Y-86233000D03*
%TO.N,L4-DTR*%
X71628000Y-87376000D03*
%TO.N,L8-RI*%
X88138000Y-64135000D03*
X73660000Y-85344000D03*
%TO.N,L1-DCD*%
X69088000Y-88011000D03*
%TO.N,L6-RTS*%
X72771000Y-86360000D03*
%TO.N,L5-DSR*%
X72771000Y-87376000D03*
%TO.N,RX+ (A)*%
X44577000Y-39624000D03*
%TO.N,TX+ (Y)*%
X65659000Y-59182000D03*
%TO.N,Net-(J4-Pin_2)*%
X61849000Y-61595000D03*
%TO.N,Net-(D15-K)*%
X58547000Y-132588000D03*
X58547000Y-134874000D03*
%TO.N,Net-(D16-K)*%
X71247000Y-131064000D03*
X72263000Y-156591000D03*
%TO.N,Net-(D17-K)*%
X53086000Y-150876000D03*
X70104000Y-128524000D03*
%TO.N,Net-(D18-K)*%
X66421000Y-125984000D03*
X52705000Y-149733000D03*
%TO.N,Net-(D19-K)*%
X77373500Y-126649500D03*
X72801500Y-128554500D03*
%TO.N,Net-(U2-PR1)*%
X51816000Y-86360000D03*
%TO.N,Net-(U2-ST)*%
X51816000Y-83693000D03*
%TO.N,Net-(J3-Pin_2)*%
X54737000Y-60706000D03*
%TO.N,Net-(J10-Pin_2)*%
X73025000Y-95885000D03*
X81788000Y-95377000D03*
%TO.N,RTSBus*%
X82423000Y-48514000D03*
%TO.N,TX-*%
X30861000Y-56515000D03*
%TO.N,TX+*%
X36195000Y-56515000D03*
%TO.N,CTSBus*%
X79756000Y-47244000D03*
%TO.N,RX+*%
X41148000Y-56515000D03*
%TO.N,RX-*%
X46101000Y-56515000D03*
%TO.N,RIBus*%
X76835000Y-45847000D03*
%TD*%
D42*
%TO.N,GND*%
X64384000Y-49784000D02*
X64384000Y-48519000D01*
D43*
X45466000Y-77470000D02*
X45720000Y-77470000D01*
D44*
X54549000Y-121854000D02*
X54356000Y-122047000D01*
D43*
X48133000Y-83886000D02*
X47752000Y-83505000D01*
D42*
X58166000Y-39751000D02*
X59436000Y-39751000D01*
D45*
X71769000Y-80512000D02*
X72019000Y-80762000D01*
D43*
X63947000Y-79756000D02*
X63947000Y-80071000D01*
D44*
X54615000Y-50551000D02*
X54483000Y-50419000D01*
D43*
X63947000Y-79441000D02*
X63881000Y-79375000D01*
D44*
X48920400Y-90358001D02*
X47432001Y-90358001D01*
D43*
X70269001Y-77862001D02*
X70269001Y-79012001D01*
D44*
X45818000Y-83029000D02*
X46101000Y-83312000D01*
X73055500Y-124236500D02*
X73944500Y-124236500D01*
D43*
X47752000Y-83505000D02*
X47432000Y-83505000D01*
D44*
X54615000Y-50800000D02*
X54615000Y-51176000D01*
D42*
X64426000Y-77216000D02*
X63852000Y-77216000D01*
D43*
X54864000Y-131064000D02*
X55118000Y-130810000D01*
X74579500Y-127538500D02*
X75087500Y-128046500D01*
X63754000Y-80264000D02*
X62992000Y-80264000D01*
D44*
X55118000Y-91186000D02*
X55626000Y-91694000D01*
X78388000Y-76503000D02*
X78056000Y-76835000D01*
D43*
X49657000Y-80264000D02*
X49657000Y-79375000D01*
X63471000Y-86458000D02*
X63881000Y-86868000D01*
X50546000Y-80137000D02*
X50546000Y-79375000D01*
X80904000Y-107950000D02*
X80010000Y-107950000D01*
D44*
X74137500Y-124805500D02*
X73944500Y-124998500D01*
D43*
X33197998Y-165544500D02*
X32067500Y-165544500D01*
D44*
X46101000Y-83312000D02*
X46101000Y-84201000D01*
X74137500Y-124617500D02*
X74137500Y-124805500D01*
D43*
X45212000Y-77470000D02*
X44831000Y-77089000D01*
D44*
X54549000Y-121224000D02*
X54483000Y-121158000D01*
X44958000Y-90424000D02*
X44958000Y-89662000D01*
D43*
X45720000Y-77470000D02*
X45974000Y-77216000D01*
D44*
X54356000Y-50292000D02*
X53594000Y-50292000D01*
D43*
X72541000Y-160655000D02*
X71628000Y-160655000D01*
X47879000Y-77470000D02*
X47371000Y-77470000D01*
D44*
X53340000Y-91186000D02*
X55118000Y-91186000D01*
X54356000Y-122047000D02*
X53467000Y-122047000D01*
D43*
X63947000Y-79756000D02*
X63947000Y-79441000D01*
D44*
X54549000Y-121539000D02*
X54549000Y-121854000D01*
X76835000Y-85291000D02*
X76835000Y-86868000D01*
D43*
X87261000Y-152273000D02*
X86360000Y-152273000D01*
D44*
X45642000Y-90629000D02*
X45974000Y-90297000D01*
D43*
X63471000Y-86360000D02*
X63471000Y-86458000D01*
D44*
X45466000Y-83029000D02*
X45564000Y-83029000D01*
D43*
X80904000Y-119385000D02*
X81661000Y-120142000D01*
X63947000Y-80071000D02*
X63754000Y-80264000D01*
X49403000Y-161036000D02*
X49403000Y-162052000D01*
X57682000Y-160655000D02*
X56769000Y-160655000D01*
X57797000Y-152273000D02*
X56642000Y-152273000D01*
X50165000Y-80391000D02*
X50419000Y-80137000D01*
D42*
X63852000Y-77216000D02*
X63471000Y-77597000D01*
D44*
X45114000Y-83029000D02*
X44958000Y-83185000D01*
D43*
X50419000Y-80137000D02*
X50546000Y-80137000D01*
D44*
X78388000Y-76327000D02*
X78388000Y-76024000D01*
X45974000Y-90297000D02*
X45974000Y-89662000D01*
D43*
X78232000Y-101422200D02*
X78232000Y-99949000D01*
D44*
X44831000Y-83312000D02*
X44831000Y-84201000D01*
X54615000Y-50800000D02*
X54615000Y-50551000D01*
X54483000Y-121158000D02*
X53467000Y-121158000D01*
D42*
X64426000Y-77978000D02*
X63852000Y-77978000D01*
D43*
X80264000Y-103112000D02*
X80264000Y-104140000D01*
D44*
X78388000Y-76327000D02*
X78388000Y-76503000D01*
D43*
X74269001Y-83661999D02*
X74269001Y-83012001D01*
D42*
X64214000Y-52959000D02*
X64214000Y-51991000D01*
D45*
X73269000Y-79512000D02*
X72019000Y-80762000D01*
D44*
X47244000Y-83693000D02*
X47244000Y-84328000D01*
X45466000Y-83029000D02*
X45818000Y-83029000D01*
X55626000Y-91694000D02*
X55626000Y-92964000D01*
D43*
X63881000Y-79375000D02*
X63754000Y-79248000D01*
D44*
X45466000Y-90629000D02*
X45642000Y-90629000D01*
D43*
X48387000Y-77089000D02*
X48387000Y-76200000D01*
D44*
X73944500Y-124236500D02*
X74137500Y-124429500D01*
D43*
X74269001Y-83012001D02*
X72019000Y-80762000D01*
D42*
X64214000Y-51991000D02*
X64389000Y-51816000D01*
D43*
X79375000Y-92849000D02*
X79375000Y-91948000D01*
D44*
X54483000Y-50419000D02*
X54356000Y-50292000D01*
D43*
X63754000Y-79248000D02*
X62992000Y-79248000D01*
X63471000Y-86262000D02*
X63881000Y-85852000D01*
X65151000Y-121031000D02*
X65786000Y-121031000D01*
D44*
X78183000Y-75819000D02*
X77421000Y-75819000D01*
X54483000Y-51308000D02*
X53594000Y-51308000D01*
D43*
X45466000Y-77470000D02*
X45212000Y-77470000D01*
D44*
X45466000Y-83029000D02*
X45368000Y-83029000D01*
X44958000Y-83185000D02*
X44831000Y-83312000D01*
X53213000Y-83505000D02*
X54847000Y-83505000D01*
X47432001Y-90358001D02*
X47371000Y-90297000D01*
X55499000Y-82853000D02*
X55499000Y-81661000D01*
D43*
X73269000Y-77862001D02*
X73269000Y-79512000D01*
D42*
X64384000Y-48519000D02*
X64389000Y-48514000D01*
D43*
X50165000Y-80391000D02*
X49784000Y-80391000D01*
D44*
X54549000Y-121539000D02*
X54549000Y-121224000D01*
D43*
X65151000Y-121285000D02*
X65151000Y-121031000D01*
X32067500Y-165544500D02*
X32004000Y-165608000D01*
X60573500Y-50734000D02*
X61529000Y-50734000D01*
D46*
X50800000Y-87872000D02*
X51701000Y-87872000D01*
D43*
X47371000Y-77470000D02*
X47244000Y-77343000D01*
X44831000Y-77089000D02*
X44831000Y-76200000D01*
D44*
X78388000Y-76024000D02*
X78183000Y-75819000D01*
D43*
X64262000Y-39751000D02*
X65151000Y-39751000D01*
D44*
X54847000Y-83505000D02*
X55499000Y-82853000D01*
D43*
X63471000Y-86360000D02*
X63471000Y-86262000D01*
X64897000Y-121539000D02*
X65151000Y-121285000D01*
D44*
X78056000Y-76835000D02*
X77421000Y-76835000D01*
D43*
X80904000Y-118237000D02*
X80904000Y-119385000D01*
X48072000Y-83505000D02*
X48260000Y-83693000D01*
D44*
X54615000Y-51176000D02*
X54483000Y-51308000D01*
D43*
X65151000Y-121793000D02*
X65151000Y-122047000D01*
X47752000Y-83505000D02*
X48072000Y-83505000D01*
D44*
X45466000Y-83029000D02*
X45114000Y-83029000D01*
X45466000Y-90629000D02*
X45163000Y-90629000D01*
D43*
X71769000Y-77862001D02*
X71769000Y-80512000D01*
X48260000Y-77089000D02*
X48387000Y-77089000D01*
X45974000Y-77216000D02*
X45974000Y-76200000D01*
X72529000Y-152273000D02*
X71628000Y-152273000D01*
D42*
X63852000Y-77978000D02*
X63471000Y-77597000D01*
D43*
X47244000Y-77343000D02*
X47244000Y-76200000D01*
D44*
X73944500Y-124998500D02*
X73055500Y-124998500D01*
D43*
X87261000Y-160655000D02*
X86360000Y-160655000D01*
D46*
X51701000Y-87872000D02*
X51816000Y-87757000D01*
D42*
X63881000Y-86868000D02*
X64389000Y-86868000D01*
D44*
X64008000Y-89916000D02*
X62992000Y-89916000D01*
D43*
X61529000Y-50734000D02*
X61595000Y-50800000D01*
D42*
X60706000Y-39751000D02*
X59436000Y-39751000D01*
D46*
X49245000Y-83505000D02*
X47752000Y-83505000D01*
D44*
X45163000Y-90629000D02*
X44958000Y-90424000D01*
D43*
X47879000Y-77470000D02*
X48260000Y-77089000D01*
D44*
X74137500Y-124429500D02*
X74137500Y-124617500D01*
D45*
X70269001Y-79012001D02*
X72019000Y-80762000D01*
D43*
X65151000Y-122047000D02*
X65786000Y-122047000D01*
D46*
X49457000Y-83717000D02*
X49245000Y-83505000D01*
D43*
X42799000Y-152273000D02*
X41910000Y-152273000D01*
X73950000Y-127538500D02*
X72801500Y-127538500D01*
X64897000Y-121539000D02*
X65151000Y-121793000D01*
X40767000Y-165126001D02*
X40767000Y-166116000D01*
X49784000Y-80391000D02*
X49657000Y-80264000D01*
X73950000Y-127538500D02*
X74579500Y-127538500D01*
D42*
X54483000Y-41251000D02*
X54483000Y-42164000D01*
X63881000Y-85852000D02*
X64389000Y-85852000D01*
D43*
X75087500Y-128046500D02*
X75087500Y-129062500D01*
D44*
X82931000Y-76859000D02*
X82931000Y-75819000D01*
X68956000Y-95626000D02*
X70358000Y-95626000D01*
X48133000Y-84328000D02*
X48133000Y-83886000D01*
D43*
X64643000Y-131064000D02*
X65024000Y-130683000D01*
X63373000Y-131064000D02*
X64643000Y-131064000D01*
X53086000Y-131064000D02*
X54864000Y-131064000D01*
D42*
%TO.N,3V3_SYS*%
X66040000Y-77978000D02*
X66421000Y-77597000D01*
D44*
X67945000Y-121031000D02*
X66929000Y-121031000D01*
D43*
X48145000Y-152273000D02*
X48145000Y-151650000D01*
X62992000Y-151765000D02*
X62484000Y-151257000D01*
X45466000Y-80420000D02*
X45114000Y-80420000D01*
X91440000Y-160655000D02*
X91440000Y-159639000D01*
X91428000Y-152273000D02*
X91428000Y-151015000D01*
X67183000Y-123444000D02*
X66802000Y-123063000D01*
X74918999Y-77989001D02*
X75438000Y-77470000D01*
X66797000Y-121163000D02*
X66797000Y-121539000D01*
X56261000Y-51181000D02*
X55626000Y-51181000D01*
D44*
X74935000Y-85291000D02*
X74935000Y-86863000D01*
X56642000Y-121920000D02*
X57531000Y-121920000D01*
D43*
X66802000Y-121544000D02*
X66797000Y-121539000D01*
D42*
X75946000Y-75819000D02*
X76405000Y-75819000D01*
D43*
X50165000Y-82291000D02*
X50668000Y-82291000D01*
D44*
X69469000Y-98830000D02*
X68604000Y-98830000D01*
D43*
X77851000Y-160020000D02*
X77470000Y-159639000D01*
D44*
X56449000Y-121351000D02*
X56642000Y-121158000D01*
D46*
X67945000Y-82550000D02*
X67945000Y-85979000D01*
D44*
X56769000Y-123444000D02*
X58039000Y-123444000D01*
X56449000Y-121539000D02*
X56449000Y-123124000D01*
D43*
X74918999Y-78511999D02*
X74918999Y-77989001D01*
X47625000Y-151130000D02*
X46990000Y-151130000D01*
X62484000Y-151257000D02*
X61849000Y-151257000D01*
X56515000Y-50800000D02*
X56134000Y-50419000D01*
X63016000Y-160655000D02*
X63016000Y-160044000D01*
X77875000Y-152273000D02*
X77875000Y-151535000D01*
D44*
X74935000Y-86863000D02*
X74930000Y-86868000D01*
D43*
X45466000Y-80420000D02*
X45691000Y-80420000D01*
D46*
X68483000Y-82012000D02*
X67945000Y-82550000D01*
D43*
X76037500Y-124617500D02*
X76037500Y-124429500D01*
X48387000Y-80137000D02*
X48260000Y-80010000D01*
D44*
X68646000Y-93985000D02*
X68580000Y-93919000D01*
D43*
X50165000Y-82804000D02*
X50165000Y-84074000D01*
X77470000Y-159639000D02*
X76708000Y-159639000D01*
X56134000Y-50419000D02*
X55626000Y-50419000D01*
X77851000Y-160655000D02*
X77851000Y-160020000D01*
X46966000Y-152273000D02*
X46966000Y-151154000D01*
X45114000Y-80420000D02*
X44958000Y-80264000D01*
X68580000Y-160693001D02*
X69557999Y-160693001D01*
X68471001Y-79012001D02*
X68199000Y-78740000D01*
X76696000Y-151015000D02*
X76708000Y-151003000D01*
X92595000Y-160032000D02*
X92202000Y-159639000D01*
D46*
X69119001Y-82012000D02*
X68483000Y-82012000D01*
D43*
X39890000Y-152285000D02*
X39878000Y-152273000D01*
X40894000Y-152285000D02*
X39890000Y-152285000D01*
X75438000Y-76327000D02*
X75946000Y-75819000D01*
X48260000Y-80010000D02*
X48260000Y-79375000D01*
X63016000Y-160044000D02*
X62611000Y-159639000D01*
X38862000Y-152285000D02*
X39866000Y-152285000D01*
X45974000Y-80137000D02*
X45974000Y-79375000D01*
X76696000Y-152273000D02*
X76696000Y-151015000D01*
D44*
X56642000Y-121158000D02*
X57531000Y-121158000D01*
D43*
X61849000Y-160655000D02*
X61849000Y-159639000D01*
X66421000Y-86487000D02*
X66421000Y-86360000D01*
X75341500Y-124617500D02*
X75087500Y-124871500D01*
X53594000Y-152285000D02*
X54598000Y-152285000D01*
X47879000Y-80420000D02*
X47527000Y-80420000D01*
X76037500Y-124617500D02*
X75341500Y-124617500D01*
D42*
X65913000Y-85852000D02*
X65405000Y-85852000D01*
X65405000Y-86868000D02*
X66040000Y-86868000D01*
D43*
X72339200Y-94107000D02*
X72390000Y-94157800D01*
X85344000Y-160655000D02*
X84328000Y-160655000D01*
X83312000Y-152285000D02*
X84316000Y-152285000D01*
X76037500Y-124805500D02*
X76230500Y-124998500D01*
X58232500Y-50800000D02*
X58298500Y-50734000D01*
X70739000Y-94107000D02*
X72339200Y-94107000D01*
X50673000Y-82296000D02*
X50165000Y-82804000D01*
X66797000Y-121539000D02*
X66797000Y-121788000D01*
X47879000Y-80420000D02*
X48104000Y-80420000D01*
X92595000Y-152273000D02*
X92595000Y-151523000D01*
X48145000Y-151650000D02*
X47625000Y-151130000D01*
X46966000Y-151154000D02*
X46990000Y-151130000D01*
X55753000Y-160655000D02*
X54737000Y-160655000D01*
D44*
X54761000Y-49149000D02*
X53848000Y-49149000D01*
D43*
X69119001Y-79012001D02*
X68471001Y-79012001D01*
X75087500Y-127284500D02*
X75341500Y-127538500D01*
X68580000Y-152273000D02*
X69596000Y-152273000D01*
X54622000Y-152285000D02*
X54610000Y-152273000D01*
X77875000Y-151535000D02*
X77343000Y-151003000D01*
X77343000Y-151003000D02*
X76708000Y-151003000D01*
X92595000Y-160655000D02*
X92595000Y-160032000D01*
X39866000Y-152285000D02*
X39878000Y-152273000D01*
D44*
X56449000Y-121539000D02*
X56449000Y-121351000D01*
D43*
X84316000Y-152285000D02*
X84328000Y-152273000D01*
X50165000Y-82291000D02*
X50033000Y-82291000D01*
X76037500Y-124429500D02*
X76230500Y-124236500D01*
X73768999Y-84473999D02*
X74586000Y-85291000D01*
X54598000Y-152285000D02*
X54610000Y-152273000D01*
X66802000Y-123063000D02*
X66802000Y-121544000D01*
X69634001Y-160693001D02*
X69596000Y-160655000D01*
X66797000Y-121788000D02*
X67056000Y-122047000D01*
X62992000Y-152273000D02*
X62992000Y-151765000D01*
D44*
X68604000Y-98830000D02*
X68580000Y-98806000D01*
D43*
X75087500Y-124871500D02*
X75087500Y-127284500D01*
X68199000Y-78740000D02*
X68199000Y-77978000D01*
D42*
X75770000Y-76835000D02*
X76405000Y-76835000D01*
D44*
X76230500Y-124998500D02*
X77119500Y-124998500D01*
D43*
X73768999Y-83661999D02*
X73768999Y-84473999D01*
X83312000Y-160655000D02*
X84328000Y-160655000D01*
X66929000Y-121031000D02*
X66797000Y-121163000D01*
X55626000Y-152285000D02*
X54622000Y-152285000D01*
X66421000Y-86360000D02*
X65913000Y-85852000D01*
X49457000Y-84217000D02*
X50022000Y-84217000D01*
D44*
X56449000Y-123124000D02*
X56769000Y-123444000D01*
D43*
X70612000Y-160693001D02*
X69634001Y-160693001D01*
X67818000Y-77597000D02*
X66421000Y-77597000D01*
X68199000Y-77978000D02*
X67818000Y-77597000D01*
D42*
X65405000Y-77978000D02*
X66040000Y-77978000D01*
D43*
X47371000Y-80264000D02*
X47371000Y-79375000D01*
X85344000Y-152285000D02*
X84340000Y-152285000D01*
X56515000Y-50800000D02*
X58232500Y-50800000D01*
X53721000Y-160655000D02*
X54737000Y-160655000D01*
X45691000Y-80420000D02*
X45974000Y-80137000D01*
D44*
X70358000Y-93985000D02*
X68646000Y-93985000D01*
D43*
X50022000Y-84217000D02*
X50165000Y-84074000D01*
D44*
X54761000Y-52451000D02*
X53848000Y-52451000D01*
D43*
X75438000Y-77470000D02*
X75438000Y-76327000D01*
X44450000Y-161036000D02*
X44450000Y-162052000D01*
D42*
X66040000Y-77216000D02*
X66421000Y-77597000D01*
D43*
X44958000Y-80264000D02*
X44958000Y-79375000D01*
X50668000Y-82291000D02*
X50673000Y-82296000D01*
D44*
X67056000Y-122047000D02*
X67945000Y-122047000D01*
D43*
X68323000Y-123444000D02*
X67183000Y-123444000D01*
X70612000Y-152273000D02*
X69596000Y-152273000D01*
X50308000Y-84217000D02*
X50165000Y-84074000D01*
X47527000Y-80420000D02*
X47371000Y-80264000D01*
X50170000Y-82291000D02*
X50546000Y-81915000D01*
X76696000Y-159651000D02*
X76708000Y-159639000D01*
D46*
X67564000Y-86360000D02*
X66421000Y-86360000D01*
D43*
X76696000Y-160655000D02*
X76696000Y-159651000D01*
D44*
X76230500Y-124236500D02*
X77119500Y-124236500D01*
D43*
X50165000Y-82291000D02*
X50170000Y-82291000D01*
X61837000Y-151269000D02*
X61849000Y-151257000D01*
D46*
X67945000Y-85979000D02*
X67564000Y-86360000D01*
D43*
X91428000Y-151015000D02*
X91440000Y-151003000D01*
X69557999Y-160693001D02*
X69596000Y-160655000D01*
X92202000Y-159639000D02*
X91440000Y-159639000D01*
X61837000Y-152273000D02*
X61837000Y-151269000D01*
D42*
X65405000Y-77216000D02*
X66040000Y-77216000D01*
D43*
X66040000Y-86868000D02*
X66421000Y-86487000D01*
X49784000Y-82042000D02*
X49784000Y-81407000D01*
X56261000Y-51054000D02*
X56261000Y-51181000D01*
X50546000Y-81915000D02*
X50546000Y-81407000D01*
X56515000Y-50800000D02*
X56261000Y-51054000D01*
X92595000Y-151523000D02*
X92075000Y-151003000D01*
X84340000Y-152285000D02*
X84328000Y-152273000D01*
X62611000Y-159639000D02*
X61849000Y-159639000D01*
X76037500Y-124617500D02*
X76037500Y-124805500D01*
X75341500Y-127538500D02*
X76225000Y-127538500D01*
X92075000Y-151003000D02*
X91440000Y-151003000D01*
X50927000Y-84217000D02*
X50308000Y-84217000D01*
X48104000Y-80420000D02*
X48387000Y-80137000D01*
X75438000Y-76503000D02*
X75770000Y-76835000D01*
X50033000Y-82291000D02*
X49784000Y-82042000D01*
D44*
%TO.N,3V3_LDO*%
X53340000Y-89286000D02*
X53589000Y-89286000D01*
X53589000Y-89286000D02*
X54229000Y-88646000D01*
X55626000Y-88744000D02*
X55626000Y-85930000D01*
X53218000Y-89408000D02*
X53340000Y-89286000D01*
X55499000Y-84328000D02*
X55499000Y-85803000D01*
X54229000Y-88646000D02*
X55528000Y-88646000D01*
D43*
X52525000Y-84717000D02*
X53213000Y-85405000D01*
D44*
X53611000Y-85803000D02*
X53213000Y-85405000D01*
X55626000Y-85930000D02*
X55499000Y-85803000D01*
X51308000Y-89408000D02*
X53218000Y-89408000D01*
X55499000Y-85803000D02*
X53611000Y-85803000D01*
D43*
X50927000Y-84717000D02*
X52525000Y-84717000D01*
D44*
X55528000Y-88646000D02*
X55626000Y-88744000D01*
%TO.N,ARDUINO_5V*%
X50165000Y-89916000D02*
X49657000Y-89408000D01*
X48920400Y-91308002D02*
X49788998Y-91308002D01*
X45417000Y-87630000D02*
X45466000Y-87679000D01*
X38100000Y-104775000D02*
X38100000Y-90539000D01*
X50165000Y-90932000D02*
X50165000Y-89916000D01*
D47*
X39878000Y-88900000D02*
X41148000Y-87630000D01*
D44*
X39739000Y-88900000D02*
X39878000Y-88900000D01*
X48920400Y-89408000D02*
X48260000Y-89408000D01*
X45544000Y-87757000D02*
X45466000Y-87679000D01*
X46609000Y-87757000D02*
X45544000Y-87757000D01*
X36322000Y-106553000D02*
X38100000Y-104775000D01*
X49657000Y-89408000D02*
X48920400Y-89408000D01*
X49788998Y-91308002D02*
X50165000Y-90932000D01*
X48260000Y-89408000D02*
X46609000Y-87757000D01*
X34163000Y-112903000D02*
X36322000Y-110744000D01*
X36322000Y-110744000D02*
X36322000Y-106553000D01*
X38100000Y-90539000D02*
X39739000Y-88900000D01*
D47*
X41148000Y-87630000D02*
X45417000Y-87630000D01*
D46*
%TO.N,NUCLEO_3V3*%
X48387000Y-87376000D02*
X48387000Y-86040000D01*
X48871000Y-87860000D02*
X48387000Y-87376000D01*
D47*
X47178000Y-85979000D02*
X47752000Y-85405000D01*
D46*
X49449000Y-84709000D02*
X49022000Y-84709000D01*
X48326000Y-85405000D02*
X47752000Y-85405000D01*
D44*
X36703000Y-76835000D02*
X38354000Y-78486000D01*
D46*
X49457000Y-84717000D02*
X49449000Y-84709000D01*
X49465000Y-84709000D02*
X49973210Y-84709000D01*
D47*
X39739000Y-86360000D02*
X39751000Y-86360000D01*
D46*
X48387000Y-86040000D02*
X47752000Y-85405000D01*
D47*
X39751000Y-86360000D02*
X41021000Y-85090000D01*
X43942000Y-85979000D02*
X45466000Y-85979000D01*
D46*
X49530000Y-87860000D02*
X48871000Y-87860000D01*
D47*
X45466000Y-85979000D02*
X47178000Y-85979000D01*
D46*
X49457000Y-84717000D02*
X49465000Y-84709000D01*
X49973210Y-84709000D02*
X50481210Y-85217000D01*
X50481210Y-85217000D02*
X50927000Y-85217000D01*
D44*
X34163000Y-76835000D02*
X36703000Y-76835000D01*
D46*
X49022000Y-84709000D02*
X48326000Y-85405000D01*
D44*
X38354000Y-84975000D02*
X39739000Y-86360000D01*
D47*
X43053000Y-85090000D02*
X43942000Y-85979000D01*
D44*
X38354000Y-78486000D02*
X38354000Y-84975000D01*
D47*
X41021000Y-85090000D02*
X43053000Y-85090000D01*
D43*
%TO.N,/Rx & Tx LED/TX_RC*%
X82073000Y-106680000D02*
X82629000Y-107236000D01*
X60579000Y-53340000D02*
X61214000Y-53975000D01*
X60705500Y-51816000D02*
X60573500Y-51684000D01*
X68580000Y-49728302D02*
X68580000Y-40513000D01*
X61214000Y-53975000D02*
X64333302Y-53975000D01*
X79375000Y-107188000D02*
X79883000Y-106680000D01*
X82629000Y-107236000D02*
X82629000Y-107950000D01*
X82169000Y-116967000D02*
X80010000Y-116967000D01*
X79375000Y-116332000D02*
X79375000Y-107188000D01*
X79883000Y-106680000D02*
X82073000Y-106680000D01*
X64333302Y-53975000D02*
X68580000Y-49728302D01*
X62489000Y-51816000D02*
X60705500Y-51816000D01*
X82931000Y-109982000D02*
X82931000Y-108077000D01*
X82931000Y-108077000D02*
X82804000Y-107950000D01*
X60579000Y-52578000D02*
X60579000Y-51689500D01*
X80010000Y-116967000D02*
X79375000Y-116332000D01*
X60579000Y-52578000D02*
X60579000Y-53340000D01*
X60579000Y-51689500D02*
X60573500Y-51684000D01*
X56261000Y-52451000D02*
X57150000Y-52451000D01*
%TO.N,/Rx & Tx LED/RX_RC*%
X66167000Y-46482000D02*
X65278000Y-47371000D01*
X66167000Y-40513000D02*
X66167000Y-46482000D01*
X56261000Y-49149000D02*
X57150000Y-49149000D01*
D44*
X82629000Y-119332000D02*
X82629000Y-118237000D01*
D43*
X70231000Y-40259000D02*
X69469000Y-39497000D01*
X65278000Y-47371000D02*
X61341000Y-47371000D01*
X61341000Y-47371000D02*
X60579000Y-48133000D01*
X67183000Y-39497000D02*
X66167000Y-40513000D01*
X69469000Y-39497000D02*
X67183000Y-39497000D01*
D44*
X82677000Y-119380000D02*
X82629000Y-119332000D01*
D43*
X60579000Y-48895000D02*
X60579000Y-49778500D01*
X62484000Y-49784000D02*
X60573500Y-49784000D01*
X82931000Y-118110000D02*
X82931000Y-116205000D01*
X82804000Y-118237000D02*
X82931000Y-118110000D01*
X60579000Y-48133000D02*
X60579000Y-48895000D01*
X60579000Y-49778500D02*
X60573500Y-49784000D01*
D42*
%TO.N,Net-(D1-A)*%
X34786000Y-165556500D02*
X34798000Y-165544500D01*
X34786000Y-167005000D02*
X34786000Y-165556500D01*
D45*
%TO.N,Net-(D4-A)*%
X56692001Y-39801001D02*
X57023000Y-40132000D01*
X57480002Y-41351002D02*
X58166000Y-41351002D01*
X56134000Y-39801001D02*
X56692001Y-39801001D01*
X57023000Y-40894000D02*
X57480002Y-41351002D01*
X57023000Y-40132000D02*
X57023000Y-40894000D01*
D43*
%TO.N,Net-(D7-A)*%
X53721000Y-162155000D02*
X53721000Y-163525999D01*
%TO.N,Net-(D8-K)*%
X55753000Y-165608000D02*
X55753000Y-165126001D01*
X54737000Y-127254000D02*
X54864000Y-127127000D01*
X53089000Y-127254000D02*
X54737000Y-127254000D01*
X55499000Y-165862000D02*
X55753000Y-165608000D01*
X52578000Y-165862000D02*
X55499000Y-165862000D01*
X51181000Y-164465000D02*
X52578000Y-165862000D01*
X51181000Y-135255000D02*
X51181000Y-164465000D01*
X48387000Y-132461000D02*
X51181000Y-135255000D01*
X54483000Y-124079000D02*
X52058566Y-124079000D01*
X54864000Y-124460000D02*
X54483000Y-124079000D01*
X54864000Y-127127000D02*
X54864000Y-124460000D01*
X48387000Y-125349000D02*
X48387000Y-132461000D01*
X49530000Y-124206000D02*
X48387000Y-125349000D01*
X51931566Y-124206000D02*
X49530000Y-124206000D01*
X52058566Y-124079000D02*
X51931566Y-124206000D01*
%TO.N,Net-(D8-A)*%
X55753000Y-162155000D02*
X55753000Y-163525999D01*
%TO.N,Net-(D9-A)*%
X68580000Y-162193001D02*
X68580000Y-163564000D01*
%TO.N,Net-(D9-K)*%
X54864000Y-134366000D02*
X54864000Y-132715000D01*
X67628002Y-165164002D02*
X66602800Y-164138800D01*
D44*
X53086000Y-129794000D02*
X58036000Y-129794000D01*
D43*
X68580000Y-165164002D02*
X67628002Y-165164002D01*
X54102000Y-131953000D02*
X51435000Y-131953000D01*
X50927000Y-131445000D02*
X50927000Y-130302000D01*
X57277000Y-136779000D02*
X54864000Y-134366000D01*
X50927000Y-130302000D02*
X51435000Y-129794000D01*
X65913000Y-136779000D02*
X57277000Y-136779000D01*
X66602800Y-164138800D02*
X66602800Y-137468800D01*
X54864000Y-132715000D02*
X54102000Y-131953000D01*
X51435000Y-131953000D02*
X50927000Y-131445000D01*
X51435000Y-129794000D02*
X53089000Y-129794000D01*
X66602800Y-137468800D02*
X65913000Y-136779000D01*
%TO.N,Net-(D10-A)*%
X70612000Y-162193001D02*
X70612000Y-163564000D01*
%TO.N,Net-(D10-K)*%
X57404000Y-131699000D02*
X58039000Y-131064000D01*
X53848000Y-134239000D02*
X56896000Y-137287000D01*
X57404000Y-132588000D02*
X57404000Y-131699000D01*
X66040000Y-138049000D02*
X65278000Y-137287000D01*
X66548000Y-165989000D02*
X66040000Y-165481000D01*
X66040000Y-165481000D02*
X66040000Y-138049000D01*
X70231000Y-165989000D02*
X66548000Y-165989000D01*
X70612000Y-165164002D02*
X70612000Y-165608000D01*
X65278000Y-137287000D02*
X56896000Y-137287000D01*
X53848000Y-134239000D02*
X53848000Y-132969000D01*
X70612000Y-165608000D02*
X70231000Y-165989000D01*
%TO.N,Net-(D11-A)*%
X83312000Y-162155000D02*
X83312000Y-163525999D01*
%TO.N,Net-(D11-K)*%
X81334800Y-163148801D02*
X81334800Y-135182800D01*
X79502000Y-133350000D02*
X56769000Y-133350000D01*
X56261000Y-128143000D02*
X56261000Y-125095000D01*
X81334800Y-135182800D02*
X79502000Y-133350000D01*
X56769000Y-133350000D02*
X56642000Y-133477000D01*
X56642000Y-128524000D02*
X56261000Y-128143000D01*
X56642000Y-124714000D02*
X58036000Y-124714000D01*
X83312000Y-165126001D02*
X81334800Y-163148801D01*
X56261000Y-125095000D02*
X56642000Y-124714000D01*
X58036000Y-128524000D02*
X56642000Y-128524000D01*
%TO.N,Net-(D12-K)*%
X56896000Y-134620000D02*
X56261000Y-134620000D01*
X56261000Y-134620000D02*
X55626000Y-133985000D01*
X78740000Y-133858000D02*
X57658000Y-133858000D01*
X85344000Y-165227000D02*
X84709000Y-165862000D01*
X55626000Y-131191000D02*
X56007000Y-130810000D01*
X84709000Y-165862000D02*
X82301922Y-165862000D01*
X80772000Y-135890000D02*
X78740000Y-133858000D01*
X55626000Y-133985000D02*
X55626000Y-131191000D01*
X80772000Y-164332078D02*
X80772000Y-135890000D01*
X85344000Y-165126001D02*
X85344000Y-165227000D01*
X57658000Y-133858000D02*
X56896000Y-134620000D01*
X58039000Y-125984000D02*
X59690000Y-125984000D01*
X82301922Y-165862000D02*
X80772000Y-164332078D01*
%TO.N,Net-(D12-A)*%
X85344000Y-162155000D02*
X85344000Y-163525999D01*
%TO.N,Net-(D13-K)*%
X38862000Y-144145000D02*
X43942000Y-144145000D01*
X46863000Y-121920000D02*
X49403000Y-119380000D01*
X60706000Y-120777000D02*
X60706000Y-124333000D01*
X60579000Y-120650000D02*
X60706000Y-120777000D01*
X43942000Y-144145000D02*
X46863000Y-141224000D01*
D42*
X63373000Y-124714000D02*
X63373000Y-125984000D01*
D43*
X49403000Y-119380000D02*
X60071000Y-119380000D01*
X38862000Y-156756001D02*
X38265001Y-156756001D01*
X61087000Y-124714000D02*
X63373000Y-124714000D01*
X46863000Y-141224000D02*
X46863000Y-121920000D01*
X60706000Y-124333000D02*
X61087000Y-124714000D01*
X38265001Y-156756001D02*
X37973000Y-156464000D01*
X60579000Y-119888000D02*
X60579000Y-120650000D01*
X60071000Y-119380000D02*
X60579000Y-119888000D01*
X37973000Y-156464000D02*
X37973000Y-145034000D01*
X37973000Y-145034000D02*
X38862000Y-144145000D01*
%TO.N,Net-(D13-A)*%
X38862000Y-153785000D02*
X38862000Y-155155999D01*
%TO.N,Net-(D14-A)*%
X40894000Y-153785000D02*
X40894000Y-155155999D01*
%TO.N,Net-(D15-A)*%
X68580000Y-153773000D02*
X68580000Y-155155999D01*
%TO.N,Net-(D16-A)*%
X70612000Y-153773000D02*
X70612000Y-155155999D01*
%TO.N,Net-(D17-A)*%
X53594000Y-153785000D02*
X53594000Y-155155999D01*
%TO.N,Net-(D18-A)*%
X55626000Y-153785000D02*
X55626000Y-155155999D01*
%TO.N,Net-(D19-A)*%
X83312000Y-153785000D02*
X83312000Y-155155999D01*
%TO.N,Net-(D20-K)*%
X85344000Y-157226000D02*
X84963000Y-157607000D01*
X76260500Y-128524000D02*
X76225000Y-128488500D01*
X81788000Y-156972000D02*
X81788000Y-129032000D01*
X84963000Y-157607000D02*
X82423000Y-157607000D01*
X82423000Y-157607000D02*
X81788000Y-156972000D01*
X81280000Y-128524000D02*
X76260500Y-128524000D01*
X81788000Y-129032000D02*
X81280000Y-128524000D01*
X85344000Y-156756001D02*
X85344000Y-157226000D01*
%TO.N,Net-(D20-A)*%
X85344000Y-153785000D02*
X85344000Y-155155999D01*
%TO.N,/RS232 & RS485 Tranceiver/THVD_SHDN_N*%
X89662000Y-106553000D02*
X89662000Y-144272000D01*
X75419999Y-79012001D02*
X76073000Y-78359000D01*
X96393000Y-166370000D02*
X94615000Y-168148000D01*
X33286000Y-167906000D02*
X33286000Y-167525000D01*
X91567000Y-146177000D02*
X95123000Y-146177000D01*
D45*
X31750000Y-160147000D02*
X31115000Y-160782000D01*
X31115000Y-160782000D02*
X31115000Y-166243000D01*
X32258000Y-167386000D02*
X32905000Y-167386000D01*
D43*
X89662000Y-144272000D02*
X91567000Y-146177000D01*
X74918999Y-79012001D02*
X75419999Y-79012001D01*
X33528000Y-168148000D02*
X33286000Y-167906000D01*
X89154000Y-78994000D02*
X89154000Y-106045000D01*
X95123000Y-146177000D02*
X96393000Y-147447000D01*
X76073000Y-78359000D02*
X88519000Y-78359000D01*
X94615000Y-168148000D02*
X33528000Y-168148000D01*
X96393000Y-147447000D02*
X96393000Y-166370000D01*
X88519000Y-78359000D02*
X89154000Y-78994000D01*
D45*
X34036000Y-160147000D02*
X31750000Y-160147000D01*
X31115000Y-166243000D02*
X32258000Y-167386000D01*
D43*
X89154000Y-106045000D02*
X89662000Y-106553000D01*
%TO.N,L3-TXD*%
X86749000Y-110490000D02*
X83947000Y-110490000D01*
X83947000Y-110490000D02*
X82550000Y-111887000D01*
X70769000Y-87533000D02*
X71628000Y-88392000D01*
X87999000Y-111740000D02*
X86749000Y-110490000D01*
X70769000Y-83661999D02*
X70769000Y-87533000D01*
D44*
%TO.N,MCU_TXLED_GPIO*%
X44946000Y-96139000D02*
X44958000Y-96151000D01*
X42545000Y-96520000D02*
X42926000Y-96139000D01*
X42279000Y-96520000D02*
X42545000Y-96520000D01*
X42926000Y-96139000D02*
X44946000Y-96139000D01*
D43*
%TO.N,L2-RXD*%
X83849000Y-113030000D02*
X82579000Y-114300000D01*
X70231000Y-88011000D02*
X70231000Y-83700000D01*
X70231000Y-83700000D02*
X70269001Y-83661999D01*
X86741000Y-113030000D02*
X83849000Y-113030000D01*
X87991000Y-114280000D02*
X86741000Y-113030000D01*
X87999000Y-114280000D02*
X87991000Y-114280000D01*
X71628000Y-89408000D02*
X70231000Y-88011000D01*
D44*
%TO.N,MCU_RXLED_GPIO*%
X42279000Y-93980000D02*
X44946000Y-93980000D01*
X44946000Y-93980000D02*
X44958000Y-93968000D01*
D43*
%TO.N,MCU_OE*%
X41529000Y-158750000D02*
X40894000Y-158115000D01*
X36957000Y-106922000D02*
X39739000Y-104140000D01*
X50219800Y-162874200D02*
X50219800Y-160147000D01*
X48822800Y-158750000D02*
X41529000Y-158750000D01*
X37719000Y-158115000D02*
X36957000Y-157353000D01*
X48768000Y-164326000D02*
X50219800Y-162874200D01*
X36957000Y-157353000D02*
X36957000Y-106922000D01*
X40894000Y-158115000D02*
X37719000Y-158115000D01*
X50219800Y-160147000D02*
X48822800Y-158750000D01*
%TO.N,MODE0*%
X48514000Y-123444000D02*
X49681000Y-123444000D01*
X60349000Y-163588000D02*
X61087000Y-164326000D01*
X76276200Y-91871800D02*
X79629000Y-88519000D01*
X60349000Y-160655000D02*
X60349000Y-163588000D01*
X52578000Y-166624000D02*
X50673000Y-164719000D01*
X61087000Y-164326000D02*
X61087000Y-165862000D01*
X79629000Y-83566000D02*
X77575001Y-81512001D01*
X61087000Y-165862000D02*
X60325000Y-166624000D01*
X67818000Y-95631000D02*
X68707000Y-96520000D01*
X77575001Y-81512001D02*
X74918999Y-81512001D01*
X79629000Y-88519000D02*
X79629000Y-83566000D01*
X50673000Y-164719000D02*
X50673000Y-135387922D01*
X68707000Y-96520000D02*
X76200000Y-96520000D01*
X76276200Y-94157800D02*
X76276200Y-91871800D01*
X47879000Y-132593922D02*
X47879000Y-124079000D01*
X47879000Y-124079000D02*
X48514000Y-123444000D01*
X60325000Y-166624000D02*
X52578000Y-166624000D01*
X76276200Y-94157800D02*
X76276200Y-95326200D01*
X50673000Y-135387922D02*
X47879000Y-132593922D01*
X76581000Y-96139000D02*
X76200000Y-96520000D01*
X76581000Y-95631000D02*
X76581000Y-96139000D01*
X76276200Y-95326200D02*
X76581000Y-95631000D01*
%TO.N,Net-(U3-V-)*%
X69119001Y-79512000D02*
X65789000Y-79512000D01*
X65789000Y-79512000D02*
X65672000Y-79629000D01*
%TO.N,Net-(J7-Pin_3)*%
X44958000Y-139065000D02*
X44958000Y-138164000D01*
%TO.N,Net-(CN7-Pin_10)*%
X86729000Y-81026000D02*
X84074000Y-81026000D01*
X87999000Y-79756000D02*
X86729000Y-81026000D01*
X84074000Y-81026000D02*
X82931000Y-82169000D01*
X82931000Y-82169000D02*
X82931000Y-89178000D01*
%TO.N,MCU_SLR*%
X73025000Y-99695000D02*
X73025000Y-101422200D01*
X82931000Y-90678000D02*
X81915000Y-90678000D01*
%TO.N,Net-(CN7-Pin_20)*%
X86729000Y-93726000D02*
X87999000Y-92456000D01*
X84201000Y-93472000D02*
X82931000Y-93472000D01*
X84455000Y-93726000D02*
X84201000Y-93472000D01*
X84455000Y-93726000D02*
X86729000Y-93726000D01*
%TO.N,MCU_MODE0*%
X82272000Y-91972000D02*
X81153000Y-93091000D01*
X75641200Y-99009200D02*
X75438000Y-98806000D01*
X75641200Y-101422200D02*
X75641200Y-99009200D01*
X81153000Y-95758000D02*
X80010000Y-96901000D01*
X81153000Y-93091000D02*
X81153000Y-95758000D01*
X82931000Y-91972000D02*
X82272000Y-91972000D01*
%TO.N,MCU_DIR*%
X74980800Y-99364800D02*
X74422000Y-98806000D01*
X82308000Y-96254000D02*
X80137000Y-98425000D01*
X74980800Y-101422200D02*
X74980800Y-99364800D01*
X82931000Y-96254000D02*
X82308000Y-96254000D01*
X80137000Y-98425000D02*
X77216000Y-98425000D01*
%TO.N,Net-(CN10-Pin_2)*%
X82931000Y-94754000D02*
X86253000Y-94754000D01*
X86253000Y-94754000D02*
X87999000Y-96500000D01*
%TO.N,MCU_TERM_RX*%
X44958000Y-103886000D02*
X46101000Y-102743000D01*
X67564000Y-100838000D02*
X47371000Y-100838000D01*
X74345800Y-101422200D02*
X74345800Y-99745800D01*
X46101000Y-102108000D02*
X46101000Y-102743000D01*
X73152000Y-98552000D02*
X72263000Y-98552000D01*
X71247000Y-99568000D02*
X68834000Y-99568000D01*
X74345800Y-99745800D02*
X73152000Y-98552000D01*
X72263000Y-98552000D02*
X71247000Y-99568000D01*
X44958000Y-103886000D02*
X44958000Y-104406000D01*
X47371000Y-100838000D02*
X46101000Y-102108000D01*
X68834000Y-99568000D02*
X67564000Y-100838000D01*
X44958000Y-104406000D02*
X45212000Y-104660000D01*
D45*
%TO.N,Net-(CN9-Pin_1)*%
X39878000Y-101600000D02*
X41148000Y-102870000D01*
X44958000Y-102616000D02*
X44958000Y-102108000D01*
X44704000Y-102870000D02*
X44958000Y-102616000D01*
X39739000Y-101600000D02*
X39878000Y-101600000D01*
X41148000Y-102870000D02*
X44704000Y-102870000D01*
D43*
%TO.N,MCU_MODE1*%
X76276200Y-98501200D02*
X75819000Y-98044000D01*
X45236000Y-100330000D02*
X44958000Y-100608000D01*
X76276200Y-101422200D02*
X76276200Y-98501200D01*
X75819000Y-98044000D02*
X68453000Y-98044000D01*
X44982000Y-100584000D02*
X44958000Y-100608000D01*
X66167000Y-100330000D02*
X46736000Y-100330000D01*
X46482000Y-100584000D02*
X44982000Y-100584000D01*
X46736000Y-100330000D02*
X46482000Y-100584000D01*
X68453000Y-98044000D02*
X66167000Y-100330000D01*
%TO.N,Net-(CN9-Pin_5)*%
X43815000Y-106172000D02*
X45200000Y-106172000D01*
X43053000Y-105410000D02*
X43815000Y-106172000D01*
X45200000Y-106172000D02*
X45212000Y-106160000D01*
X41021000Y-105410000D02*
X43053000Y-105410000D01*
X39751000Y-106680000D02*
X41021000Y-105410000D01*
X39739000Y-106680000D02*
X39751000Y-106680000D01*
%TO.N,MCU_TERM_TX*%
X44958000Y-108458000D02*
X44958000Y-109740000D01*
X68707000Y-101473000D02*
X48641000Y-101473000D01*
X73685400Y-101422200D02*
X73685400Y-102590600D01*
X48641000Y-101473000D02*
X47244000Y-102870000D01*
X73406000Y-102870000D02*
X70104000Y-102870000D01*
X70104000Y-102870000D02*
X68707000Y-101473000D01*
X47244000Y-106172000D02*
X44958000Y-108458000D01*
X73685400Y-102590600D02*
X73406000Y-102870000D01*
X47244000Y-102870000D02*
X47244000Y-106172000D01*
%TO.N,Net-(CN9-Pin_7)*%
X39751000Y-109220000D02*
X41021000Y-110490000D01*
X44946000Y-111252000D02*
X44958000Y-111240000D01*
X43815000Y-111252000D02*
X44946000Y-111252000D01*
X39739000Y-109220000D02*
X39751000Y-109220000D01*
X43053000Y-110490000D02*
X43815000Y-111252000D01*
X41021000Y-110490000D02*
X43053000Y-110490000D01*
%TO.N,MCU_MODE2*%
X45212000Y-114820000D02*
X44958000Y-114566000D01*
X47879000Y-103124000D02*
X48895000Y-102108000D01*
X76936600Y-103276400D02*
X76936600Y-101422200D01*
X44958000Y-114566000D02*
X44958000Y-113538000D01*
X48895000Y-102108000D02*
X68326000Y-102108000D01*
X68326000Y-102108000D02*
X69850000Y-103632000D01*
X69850000Y-103632000D02*
X76581000Y-103632000D01*
X47879000Y-110617000D02*
X47879000Y-103124000D01*
X44958000Y-113538000D02*
X47879000Y-110617000D01*
X76581000Y-103632000D02*
X76936600Y-103276400D01*
%TO.N,Net-(CN9-Pin_9)*%
X39739000Y-111760000D02*
X40386000Y-111760000D01*
X45200000Y-116332000D02*
X45212000Y-116320000D01*
X43688000Y-116332000D02*
X45200000Y-116332000D01*
X41529000Y-115570000D02*
X42926000Y-115570000D01*
X41021000Y-115062000D02*
X41529000Y-115570000D01*
X40386000Y-111760000D02*
X41021000Y-112395000D01*
X42926000Y-115570000D02*
X43688000Y-116332000D01*
X41021000Y-112395000D02*
X41021000Y-115062000D01*
%TO.N,MODE1*%
X75946000Y-164326000D02*
X75946000Y-165354000D01*
X80137000Y-83312000D02*
X80137000Y-88773000D01*
X77089000Y-96393000D02*
X76454000Y-97028000D01*
X50419000Y-132715000D02*
X49784000Y-132080000D01*
X74918999Y-81012000D02*
X77837000Y-81012000D01*
X80137000Y-88773000D02*
X76936600Y-91973400D01*
X76936600Y-91973400D02*
X76936600Y-94157800D01*
X64770000Y-137795000D02*
X56642000Y-137795000D01*
X49784000Y-132080000D02*
X49784000Y-128627000D01*
X66294000Y-166497000D02*
X65532000Y-165735000D01*
X65532000Y-138557000D02*
X64770000Y-137795000D01*
X77837000Y-81012000D02*
X80137000Y-83312000D01*
X56642000Y-137795000D02*
X51562000Y-132715000D01*
X75946000Y-165354000D02*
X74803000Y-166497000D01*
X49784000Y-128627000D02*
X49681000Y-128524000D01*
X75196000Y-160655000D02*
X75196000Y-163576000D01*
X65532000Y-165735000D02*
X65532000Y-138557000D01*
X51562000Y-132715000D02*
X50419000Y-132715000D01*
X76936600Y-94157800D02*
X76936600Y-95224600D01*
X77089000Y-95377000D02*
X77089000Y-96393000D01*
X68072000Y-97028000D02*
X76454000Y-97028000D01*
X67818000Y-96774000D02*
X68072000Y-97028000D01*
X74803000Y-166497000D02*
X66294000Y-166497000D01*
X75196000Y-163576000D02*
X75946000Y-164326000D01*
X76936600Y-95224600D02*
X77089000Y-95377000D01*
%TO.N,Net-(U3-V+)*%
X69119001Y-83012001D02*
X69119001Y-86836999D01*
X68072000Y-87884000D02*
X68072000Y-89408000D01*
X68072000Y-89408000D02*
X67564000Y-89916000D01*
X67564000Y-89916000D02*
X65908000Y-89916000D01*
X69119001Y-86836999D02*
X68072000Y-87884000D01*
D42*
%TO.N,Net-(J8-Pin_3)*%
X44970000Y-97663000D02*
X44958000Y-97651000D01*
X46355000Y-97663000D02*
X44970000Y-97663000D01*
D43*
%TO.N,MODE2*%
X90678000Y-164326000D02*
X90678000Y-165481000D01*
X77216000Y-80264000D02*
X78607078Y-80264000D01*
X80645000Y-82301922D02*
X80645000Y-89027000D01*
X80264000Y-136271000D02*
X78867000Y-134874000D01*
X67945000Y-97536000D02*
X67818000Y-97663000D01*
X82169000Y-166370000D02*
X80264000Y-164465000D01*
X77597000Y-92075000D02*
X77597000Y-94157800D01*
X80264000Y-164465000D02*
X80264000Y-136271000D01*
X80645000Y-89027000D02*
X77597000Y-92075000D01*
X89940000Y-163588000D02*
X90678000Y-164326000D01*
X78607078Y-80264000D02*
X80645000Y-82301922D01*
X89940000Y-160655000D02*
X89940000Y-163588000D01*
X77597000Y-94157800D02*
X77597000Y-96901000D01*
X90678000Y-165481000D02*
X89789000Y-166370000D01*
X89789000Y-166370000D02*
X82169000Y-166370000D01*
X78867000Y-134874000D02*
X61468000Y-134874000D01*
X77216000Y-82169000D02*
X77059000Y-82012000D01*
X77059000Y-82012000D02*
X74918999Y-82012000D01*
D45*
X61468000Y-127254000D02*
X61468000Y-126365000D01*
D43*
X67945000Y-97536000D02*
X76962000Y-97536000D01*
X77597000Y-96901000D02*
X76962000Y-97536000D01*
D42*
%TO.N,Net-(J9-Pin_3)*%
X46228000Y-92456000D02*
X44970000Y-92456000D01*
X44970000Y-92456000D02*
X44958000Y-92468000D01*
D43*
%TO.N,DIR*%
X39624000Y-144653000D02*
X44323000Y-144653000D01*
X45466000Y-151638000D02*
X44831000Y-151003000D01*
X39243000Y-151003000D02*
X38481000Y-150241000D01*
X45466000Y-152273000D02*
X45466000Y-151638000D01*
X44831000Y-151003000D02*
X39243000Y-151003000D01*
X79121000Y-87757000D02*
X75692000Y-91186000D01*
X59944000Y-121412000D02*
X59944000Y-123420000D01*
X44323000Y-144653000D02*
X47371000Y-141605000D01*
X58928000Y-120396000D02*
X59944000Y-121412000D01*
X38481000Y-145796000D02*
X39624000Y-144653000D01*
X59944000Y-123420000D02*
X59968000Y-123444000D01*
X75692000Y-91186000D02*
X75641200Y-91236800D01*
X47371000Y-141605000D02*
X47371000Y-122047000D01*
X45466000Y-152273000D02*
X45466000Y-155194000D01*
X45466000Y-155194000D02*
X46228000Y-155956000D01*
X76669999Y-82511999D02*
X79121000Y-84963000D01*
X47371000Y-122047000D02*
X49022000Y-120396000D01*
X79121000Y-84963000D02*
X79121000Y-87757000D01*
X38481000Y-150241000D02*
X38481000Y-145796000D01*
X75641200Y-91236800D02*
X75641200Y-94157800D01*
X74918999Y-82511999D02*
X76669999Y-82511999D01*
X49022000Y-120396000D02*
X58928000Y-120396000D01*
%TO.N,Net-(J10-Pin_1)*%
X42950000Y-161036000D02*
X42950000Y-163588000D01*
X42950000Y-163588000D02*
X43688000Y-164326000D01*
%TO.N,TERM_TX*%
X75196000Y-151523000D02*
X74803000Y-151130000D01*
X68779200Y-151130000D02*
X68017200Y-150368000D01*
X76454000Y-80011999D02*
X74918999Y-80011999D01*
X76836999Y-79629000D02*
X76454000Y-80011999D01*
X60706000Y-135636000D02*
X59944000Y-134874000D01*
X59944000Y-128536000D02*
X59956000Y-128524000D01*
X59944000Y-129794000D02*
X59944000Y-128536000D01*
X81153000Y-82169000D02*
X78613000Y-79629000D01*
X75196000Y-152273000D02*
X75196000Y-151523000D01*
X68017200Y-136597200D02*
X67056000Y-135636000D01*
X81153000Y-89535000D02*
X79756000Y-90932000D01*
X78613000Y-79629000D02*
X76836999Y-79629000D01*
X75196000Y-155206000D02*
X75946000Y-155956000D01*
X74803000Y-151130000D02*
X68779200Y-151130000D01*
X68017200Y-150368000D02*
X68017200Y-136597200D01*
X74803000Y-95885000D02*
X74345800Y-95427800D01*
X67056000Y-135636000D02*
X60706000Y-135636000D01*
X74345800Y-95427800D02*
X74345800Y-94157800D01*
X75196000Y-152273000D02*
X75196000Y-155206000D01*
X79756000Y-90932000D02*
X79629000Y-90932000D01*
X81153000Y-89535000D02*
X81153000Y-82169000D01*
%TO.N,Net-(J11-Pin_3)*%
X64516000Y-163437000D02*
X63627000Y-164326000D01*
X64516000Y-160655000D02*
X64516000Y-163437000D01*
%TO.N,Net-(J11-Pin_1)*%
X59182000Y-160655000D02*
X59182000Y-163691000D01*
X59182000Y-163691000D02*
X58547000Y-164326000D01*
D45*
%TO.N,TERM_RX*%
X71755000Y-129794000D02*
X72390000Y-130429000D01*
D43*
X75692000Y-95885000D02*
X74980800Y-95173800D01*
X75819000Y-79502000D02*
X74928999Y-79502000D01*
X75946000Y-95885000D02*
X75692000Y-95885000D01*
X60337000Y-152273000D02*
X60337000Y-155206000D01*
X80391000Y-91440000D02*
X80391000Y-90995500D01*
X80391000Y-90995500D02*
X81661000Y-89725500D01*
X60337000Y-155206000D02*
X61087000Y-155956000D01*
D45*
X60325000Y-152261000D02*
X60337000Y-152273000D01*
D43*
X74980800Y-95173800D02*
X74980800Y-94157800D01*
X78740000Y-78994000D02*
X76327000Y-78994000D01*
X76327000Y-78994000D02*
X75819000Y-79502000D01*
X74980800Y-92633800D02*
X74930000Y-92583000D01*
X81661000Y-89725500D02*
X81661000Y-81915000D01*
X74980800Y-94157800D02*
X74980800Y-92633800D01*
D45*
X60325000Y-150622000D02*
X60325000Y-152261000D01*
D43*
X81661000Y-81915000D02*
X78740000Y-78994000D01*
X74928999Y-79502000D02*
X74918999Y-79512000D01*
D45*
X73025000Y-92583000D02*
X70231000Y-92583000D01*
X72390000Y-130429000D02*
X72390000Y-131191000D01*
X72390000Y-131191000D02*
X71247000Y-132334000D01*
X71755000Y-127254000D02*
X71755000Y-129794000D01*
D43*
%TO.N,Net-(J12-Pin_3)*%
X79351000Y-160655000D02*
X79351000Y-163461000D01*
X79351000Y-163461000D02*
X78486000Y-164326000D01*
%TO.N,Net-(J12-Pin_1)*%
X74041000Y-163691000D02*
X73406000Y-164326000D01*
X74041000Y-160655000D02*
X74041000Y-163691000D01*
%TO.N,SLR*%
X73685400Y-94157800D02*
X73685400Y-91795600D01*
X70231000Y-125845000D02*
X70273500Y-125887500D01*
X89928000Y-152273000D02*
X89928000Y-155206000D01*
X78613000Y-86868000D02*
X78613000Y-85217000D01*
X73685400Y-91795600D02*
X78613000Y-86868000D01*
X76408001Y-83012001D02*
X74918999Y-83012001D01*
X78613000Y-85217000D02*
X76408001Y-83012001D01*
X73660000Y-91821000D02*
X73685400Y-91795600D01*
X82804000Y-124714000D02*
X81280000Y-123190000D01*
X89928000Y-151269000D02*
X89535000Y-150876000D01*
X89928000Y-155206000D02*
X90678000Y-155956000D01*
X70231000Y-123698000D02*
X70231000Y-125845000D01*
X70739000Y-123190000D02*
X70231000Y-123698000D01*
X89928000Y-152273000D02*
X89928000Y-151269000D01*
X69469000Y-91821000D02*
X73660000Y-91821000D01*
X82804000Y-150114000D02*
X82804000Y-124714000D01*
X89535000Y-150876000D02*
X83566000Y-150876000D01*
X81280000Y-123190000D02*
X70739000Y-123190000D01*
X83566000Y-150876000D02*
X82804000Y-150114000D01*
%TO.N,Net-(U3-C2+)*%
X61976000Y-87884000D02*
X61976000Y-83058000D01*
X62484000Y-88392000D02*
X61976000Y-87884000D01*
X68453000Y-82677000D02*
X68453000Y-86741000D01*
X68453000Y-86741000D02*
X66802000Y-88392000D01*
X63045000Y-81989000D02*
X64013000Y-81989000D01*
X68618001Y-82511999D02*
X68453000Y-82677000D01*
X61976000Y-83058000D02*
X63045000Y-81989000D01*
X66802000Y-88392000D02*
X62484000Y-88392000D01*
X69119001Y-82511999D02*
X68618001Y-82511999D01*
%TO.N,Net-(J13-Pin_3)*%
X94095000Y-160655000D02*
X94095000Y-163449000D01*
X94095000Y-163449000D02*
X93218000Y-164326000D01*
%TO.N,Net-(J13-Pin_1)*%
X88761000Y-160655000D02*
X88761000Y-163703000D01*
X88761000Y-163703000D02*
X88138000Y-164326000D01*
%TO.N,L7-CTS*%
X73660000Y-86233000D02*
X72769001Y-85342001D01*
X72769001Y-85342001D02*
X72769001Y-83661999D01*
%TO.N,L4-DTR*%
X71268999Y-87016999D02*
X71628000Y-87376000D01*
X71268999Y-83661999D02*
X71268999Y-87016999D01*
D44*
%TO.N,L8-RI*%
X88138000Y-69457000D02*
X87999000Y-69596000D01*
D43*
X73269000Y-83661999D02*
X73269000Y-84953000D01*
D44*
X88138000Y-64135000D02*
X88138000Y-69457000D01*
D43*
X73269000Y-84953000D02*
X73660000Y-85344000D01*
%TO.N,L1-DCD*%
X69768999Y-87330001D02*
X69088000Y-88011000D01*
D44*
X62738000Y-91440000D02*
X67564000Y-91440000D01*
X61341000Y-90043000D02*
X62738000Y-91440000D01*
X69088000Y-89916000D02*
X69088000Y-88011000D01*
X61341000Y-82677000D02*
X61341000Y-90043000D01*
D43*
X69768999Y-83661999D02*
X69768999Y-87330001D01*
D44*
X60960000Y-74803000D02*
X61849000Y-75692000D01*
X67564000Y-91440000D02*
X69088000Y-89916000D01*
X61849000Y-75692000D02*
X61849000Y-82169000D01*
X37719000Y-74803000D02*
X60960000Y-74803000D01*
X34163000Y-131191000D02*
X31496000Y-128524000D01*
X61849000Y-82169000D02*
X61341000Y-82677000D01*
X33020000Y-74168000D02*
X37084000Y-74168000D01*
X31496000Y-75692000D02*
X33020000Y-74168000D01*
X31496000Y-128524000D02*
X31496000Y-75692000D01*
X37084000Y-74168000D02*
X37719000Y-74803000D01*
D43*
%TO.N,L6-RTS*%
X72269000Y-86112000D02*
X72269000Y-83661999D01*
X72517000Y-86360000D02*
X72269000Y-86112000D01*
X72771000Y-86360000D02*
X72517000Y-86360000D01*
%TO.N,L5-DSR*%
X71769000Y-86374000D02*
X72771000Y-87376000D01*
X71769000Y-83661999D02*
X71769000Y-86374000D01*
%TO.N,/Rx & Tx LED/RX_ACT*%
X56896000Y-45720000D02*
X58298500Y-47122500D01*
X58298500Y-47122500D02*
X58298500Y-49784000D01*
%TO.N,/Rx & Tx LED/TX_ACT*%
X56896000Y-55880000D02*
X56896000Y-54737000D01*
X58298500Y-53334500D02*
X58298500Y-51684000D01*
X56896000Y-54737000D02*
X58298500Y-53334500D01*
D45*
%TO.N,MCU_SHDN*%
X44946000Y-136652000D02*
X44958000Y-136664000D01*
X42279000Y-137160000D02*
X43434000Y-137160000D01*
X43942000Y-136652000D02*
X44946000Y-136652000D01*
X43434000Y-137160000D02*
X43942000Y-136652000D01*
%TO.N,RX+ (A)*%
X52197000Y-60579000D02*
X52197000Y-51181000D01*
D44*
X44544000Y-39657000D02*
X44577000Y-39624000D01*
D45*
X46267000Y-50546000D02*
X44544000Y-52269000D01*
X51562000Y-50546000D02*
X46267000Y-50546000D01*
X42545000Y-56007000D02*
X42545000Y-54268000D01*
X42545000Y-54268000D02*
X44544000Y-52269000D01*
X52197000Y-51181000D02*
X51562000Y-50546000D01*
D44*
X44544000Y-44069000D02*
X44544000Y-39657000D01*
%TO.N,TX+ (Y)*%
X65659000Y-59182000D02*
X65659000Y-59563000D01*
D45*
X51816000Y-49911000D02*
X41902000Y-49911000D01*
X52832000Y-56007000D02*
X52832000Y-50927000D01*
D44*
X65659000Y-59563000D02*
X66040000Y-59944000D01*
D45*
X52832000Y-50927000D02*
X51816000Y-49911000D01*
X37465000Y-56007000D02*
X37465000Y-54348000D01*
D44*
X65659000Y-59182000D02*
X60960000Y-59182000D01*
D45*
X41902000Y-49911000D02*
X39544000Y-52269000D01*
X56261000Y-60706000D02*
X55245000Y-59690000D01*
D44*
X60960000Y-59182000D02*
X60325000Y-59817000D01*
D45*
X37465000Y-54348000D02*
X39544000Y-52269000D01*
X60210000Y-60706000D02*
X56261000Y-60706000D01*
X55245000Y-58420000D02*
X52832000Y-56007000D01*
D44*
X60325000Y-59817000D02*
X60337000Y-59829000D01*
X66040000Y-59944000D02*
X68077000Y-59944000D01*
D45*
X55245000Y-59690000D02*
X55245000Y-58420000D01*
D44*
X60337000Y-59829000D02*
X60337000Y-60706000D01*
D45*
X60337000Y-60579000D02*
X60210000Y-60706000D01*
%TO.N,Net-(J4-Pin_2)*%
X69342000Y-61214000D02*
X63500000Y-61214000D01*
X63500000Y-61214000D02*
X63119000Y-61595000D01*
X63119000Y-61595000D02*
X61849000Y-61595000D01*
D44*
X61849000Y-61595000D02*
X61849000Y-60591000D01*
D45*
X69977000Y-60579000D02*
X69342000Y-61214000D01*
D43*
%TO.N,Net-(U3-C2-)*%
X67890001Y-80011999D02*
X65913000Y-81989000D01*
X69119001Y-80011999D02*
X67890001Y-80011999D01*
%TO.N,Net-(D14-K)*%
X65024000Y-126746000D02*
X64516000Y-127254000D01*
X49276000Y-118872000D02*
X60511591Y-118872000D01*
X37465000Y-144653000D02*
X38608000Y-143510000D01*
X65024000Y-123384409D02*
X65024000Y-126746000D01*
X43561000Y-143510000D02*
X46355000Y-140716000D01*
X40894000Y-156756001D02*
X40894000Y-157226000D01*
X40513000Y-157607000D02*
X37973000Y-157607000D01*
X46355000Y-140716000D02*
X46355000Y-121793000D01*
X37973000Y-157607000D02*
X37465000Y-157099000D01*
X46355000Y-121793000D02*
X49276000Y-118872000D01*
X64516000Y-127254000D02*
X63373000Y-127254000D01*
X40894000Y-157226000D02*
X40513000Y-157607000D01*
X38608000Y-143510000D02*
X43561000Y-143510000D01*
X60511591Y-118872000D02*
X65024000Y-123384409D01*
X37465000Y-157099000D02*
X37465000Y-144653000D01*
%TO.N,Net-(D15-K)*%
X60706000Y-130556000D02*
X61468000Y-129794000D01*
X67564000Y-136784922D02*
X66926039Y-136146961D01*
X68580000Y-156756001D02*
X67856001Y-156756001D01*
X59819961Y-136146961D02*
X58547000Y-134874000D01*
X66926039Y-136146961D02*
X59819961Y-136146961D01*
X61468000Y-129794000D02*
X63373000Y-129794000D01*
X63373000Y-129794000D02*
X68323000Y-129794000D01*
X59817000Y-132588000D02*
X60706000Y-131699000D01*
X67564000Y-156464000D02*
X67564000Y-136784922D01*
X67856001Y-156756001D02*
X67564000Y-156464000D01*
X60706000Y-131699000D02*
X60706000Y-130556000D01*
X58547000Y-132588000D02*
X59817000Y-132588000D01*
%TO.N,Net-(D16-K)*%
X72097999Y-156756001D02*
X72263000Y-156591000D01*
X71247000Y-131064000D02*
X68323000Y-131064000D01*
X70612000Y-156756001D02*
X72097999Y-156756001D01*
D45*
%TO.N,Net-(D17-K)*%
X65659000Y-128016000D02*
X66167000Y-128524000D01*
X66167000Y-128524000D02*
X68323000Y-128524000D01*
X65659000Y-125095000D02*
X65659000Y-128016000D01*
D43*
X52705000Y-156337000D02*
X52705000Y-151257000D01*
D45*
X66040000Y-124714000D02*
X65659000Y-125095000D01*
D43*
X70104000Y-128524000D02*
X68323000Y-128524000D01*
X53124001Y-156756001D02*
X52705000Y-156337000D01*
D45*
X68323000Y-124714000D02*
X66040000Y-124714000D01*
D43*
X53594000Y-156756001D02*
X53124001Y-156756001D01*
X52705000Y-151257000D02*
X53086000Y-150876000D01*
%TO.N,Net-(D18-K)*%
X55245000Y-157607000D02*
X52832000Y-157607000D01*
X52197000Y-156972000D02*
X52197000Y-150241000D01*
X52832000Y-157607000D02*
X52197000Y-156972000D01*
X55626000Y-156756001D02*
X55626000Y-157226000D01*
X52197000Y-150241000D02*
X52705000Y-149733000D01*
X55626000Y-157226000D02*
X55245000Y-157607000D01*
X66421000Y-125984000D02*
X68323000Y-125984000D01*
%TO.N,Net-(D19-K)*%
X82296000Y-156337000D02*
X82296000Y-128016000D01*
X82296000Y-128016000D02*
X80899000Y-126619000D01*
X73950000Y-128488500D02*
X72867500Y-128488500D01*
X77373500Y-126649500D02*
X76286000Y-126649500D01*
X80899000Y-126619000D02*
X77404000Y-126619000D01*
X82715001Y-156756001D02*
X82296000Y-156337000D01*
X72867500Y-128488500D02*
X72801500Y-128554500D01*
X83312000Y-156756001D02*
X82715001Y-156756001D01*
X76286000Y-126649500D02*
X76225000Y-126588500D01*
X77404000Y-126619000D02*
X77373500Y-126649500D01*
D42*
%TO.N,RX- (B)*%
X67818000Y-64643000D02*
X54344000Y-64643000D01*
X54344000Y-64643000D02*
X53074000Y-63373000D01*
X51550000Y-61849000D02*
X47498000Y-61849000D01*
X69088000Y-63373000D02*
X67818000Y-64643000D01*
D45*
X47498000Y-56007000D02*
X47498000Y-54315000D01*
D42*
X53074000Y-63373000D02*
X51550000Y-61849000D01*
D45*
X47498000Y-54315000D02*
X49544000Y-52269000D01*
D42*
%TO.N,TX- (Z)*%
X68072000Y-61849000D02*
X70104000Y-61849000D01*
X71628000Y-60325000D02*
X71628000Y-39624000D01*
X61087000Y-63373000D02*
X66548000Y-63373000D01*
X70485000Y-38481000D02*
X35560000Y-38481000D01*
X71628000Y-39624000D02*
X70485000Y-38481000D01*
D45*
X32512000Y-56007000D02*
X32512000Y-54301000D01*
D42*
X35560000Y-38481000D02*
X34544000Y-39497000D01*
X66548000Y-63373000D02*
X68072000Y-61849000D01*
X34544000Y-39497000D02*
X34544000Y-44069000D01*
X70104000Y-61849000D02*
X71628000Y-60325000D01*
D45*
X32512000Y-54301000D02*
X34544000Y-52269000D01*
D46*
%TO.N,Net-(U3-C1+)*%
X67310000Y-83693000D02*
X66802000Y-84201000D01*
X68347999Y-81512001D02*
X67310000Y-82550000D01*
X69119001Y-81512001D02*
X68347999Y-81512001D01*
X67310000Y-82550000D02*
X67310000Y-83693000D01*
X66802000Y-84201000D02*
X65908000Y-84201000D01*
%TO.N,Net-(U3-C1-)*%
X64008000Y-83312000D02*
X64008000Y-84201000D01*
X68332000Y-80512000D02*
X66802000Y-82042000D01*
X66421000Y-83058000D02*
X64262000Y-83058000D01*
X66802000Y-82042000D02*
X66802000Y-82677000D01*
X66802000Y-82677000D02*
X66421000Y-83058000D01*
X69119001Y-80512000D02*
X68332000Y-80512000D01*
X64262000Y-83058000D02*
X64008000Y-83312000D01*
%TO.N,Net-(U2-PR1)*%
X49542000Y-86372000D02*
X49530000Y-86360000D01*
X49911000Y-85217000D02*
X50165000Y-85471000D01*
X50800000Y-86372000D02*
X51804000Y-86372000D01*
X50165000Y-86372000D02*
X49542000Y-86372000D01*
X49457000Y-85217000D02*
X49911000Y-85217000D01*
X50800000Y-86372000D02*
X50165000Y-86372000D01*
X50165000Y-85471000D02*
X50165000Y-86372000D01*
X51804000Y-86372000D02*
X51816000Y-86360000D01*
D43*
%TO.N,Net-(U5-DIR)*%
X72390000Y-101422200D02*
X72339200Y-101473000D01*
X72339200Y-101473000D02*
X69850000Y-101473000D01*
X69850000Y-101473000D02*
X69469000Y-101092000D01*
X69469000Y-101092000D02*
X69469000Y-100330000D01*
%TO.N,Net-(U5-A8)*%
X77597000Y-101422200D02*
X77597000Y-99568000D01*
X77597000Y-99568000D02*
X77851000Y-99314000D01*
X80010000Y-99314000D02*
X80264000Y-99568000D01*
X77851000Y-99314000D02*
X80010000Y-99314000D01*
X80264000Y-99568000D02*
X80264000Y-101612000D01*
%TO.N,Net-(U5-B8)*%
X78625000Y-94349000D02*
X79375000Y-94349000D01*
X78232000Y-94157800D02*
X78409800Y-94157800D01*
X78613000Y-94361000D02*
X78625000Y-94349000D01*
X78409800Y-94157800D02*
X78613000Y-94361000D01*
%TO.N,Net-(U6A-1A)*%
X53086000Y-123444000D02*
X51181000Y-123444000D01*
%TO.N,Net-(U6C-3A)*%
X53086000Y-128524000D02*
X51181000Y-128524000D01*
%TO.N,Net-(U6E-5A)*%
X59968000Y-127254000D02*
X58036000Y-127254000D01*
D42*
%TO.N,Net-(U7A-1A)*%
X63373000Y-123444000D02*
X61468000Y-123444000D01*
D44*
%TO.N,Net-(U7C-3A)*%
X61456000Y-128524000D02*
X63373000Y-128524000D01*
%TO.N,Net-(U7E-5A)*%
X68323000Y-127254000D02*
X70255000Y-127254000D01*
D43*
%TO.N,Net-(U8-1A)*%
X73375500Y-126588500D02*
X72674500Y-125887500D01*
X73950000Y-126588500D02*
X73375500Y-126588500D01*
X72674500Y-125887500D02*
X71773500Y-125887500D01*
%TO.N,Net-(U2-ST)*%
X50927000Y-83717000D02*
X51792000Y-83717000D01*
X51792000Y-83717000D02*
X51816000Y-83693000D01*
%TO.N,Net-(J3-Pin_2)*%
X53721000Y-59309000D02*
X54356000Y-59309000D01*
X54356000Y-59309000D02*
X54737000Y-59690000D01*
X54737000Y-59690000D02*
X54737000Y-60706000D01*
X53709000Y-60706000D02*
X54737000Y-60706000D01*
%TO.N,Net-(D2-K)*%
X81050000Y-110301000D02*
X80731000Y-109982000D01*
X81050000Y-111887000D02*
X81050000Y-110301000D01*
D45*
%TO.N,Net-(D3-A)*%
X60706000Y-41351002D02*
X61391998Y-41351002D01*
X61722000Y-40132000D02*
X62103000Y-39751000D01*
X61391998Y-41351002D02*
X61722000Y-41021000D01*
X62103000Y-39751000D02*
X62687999Y-39751000D01*
X61722000Y-41021000D02*
X61722000Y-40132000D01*
D43*
%TO.N,Net-(D5-K)*%
X80731000Y-116205000D02*
X80731000Y-114648000D01*
X80731000Y-114648000D02*
X81079000Y-114300000D01*
%TO.N,Net-(D6-A)*%
X40767000Y-162294000D02*
X40767000Y-163525999D01*
%TO.N,Net-(D7-K)*%
X48895000Y-126619000D02*
X49530000Y-125984000D01*
D44*
X53086000Y-124714000D02*
X53086000Y-125984000D01*
D43*
X53721000Y-165126001D02*
X52604001Y-165126001D01*
X51689000Y-135001000D02*
X48895000Y-132207000D01*
X49530000Y-125984000D02*
X53089000Y-125984000D01*
X52604001Y-165126001D02*
X51689000Y-164211000D01*
X48895000Y-132207000D02*
X48895000Y-126619000D01*
X51689000Y-164211000D02*
X51689000Y-135001000D01*
%TO.N,Net-(J8-Pin_2)*%
X60579000Y-46863000D02*
X59436000Y-48006000D01*
X62738000Y-41783000D02*
X60579000Y-43942000D01*
X64262000Y-41251000D02*
X62687999Y-41251000D01*
X62738000Y-41301001D02*
X62738000Y-41783000D01*
X59436000Y-48006000D02*
X59436000Y-55880000D01*
X60579000Y-43942000D02*
X60579000Y-46863000D01*
%TO.N,Net-(J9-Pin_2)*%
X59436000Y-43688000D02*
X59436000Y-45720000D01*
X56134000Y-40640000D02*
X56134000Y-41251000D01*
X56134000Y-41301001D02*
X56134000Y-41910000D01*
X56134000Y-41910000D02*
X56769000Y-42545000D01*
X56007000Y-40513000D02*
X56134000Y-40640000D01*
X54483000Y-39751000D02*
X54483000Y-40259000D01*
X56769000Y-42545000D02*
X58293000Y-42545000D01*
X54737000Y-40513000D02*
X56007000Y-40513000D01*
X54483000Y-40259000D02*
X54737000Y-40513000D01*
X58293000Y-42545000D02*
X59436000Y-43688000D01*
%TO.N,Net-(J10-Pin_2)*%
X46228000Y-164326000D02*
X49542000Y-167640000D01*
X83566000Y-95504000D02*
X81915000Y-95504000D01*
X84074000Y-96012000D02*
X83566000Y-95504000D01*
X88392000Y-107950000D02*
X84709000Y-107950000D01*
X47903000Y-162651000D02*
X46228000Y-164326000D01*
X49542000Y-167640000D02*
X94482078Y-167640000D01*
X73025000Y-95885000D02*
X73025000Y-94157800D01*
X84074000Y-107315000D02*
X84074000Y-96012000D01*
X94482078Y-167640000D02*
X95885000Y-166237078D01*
X42291000Y-165354000D02*
X45200000Y-165354000D01*
X45200000Y-165354000D02*
X46228000Y-164326000D01*
X95885000Y-166237078D02*
X95885000Y-147701000D01*
X41414000Y-160794000D02*
X41783000Y-161163000D01*
X41783000Y-164846000D02*
X42291000Y-165354000D01*
X94869000Y-146685000D02*
X91313000Y-146685000D01*
X89154000Y-144526000D02*
X89154000Y-108712000D01*
X91313000Y-146685000D02*
X89154000Y-144526000D01*
X81915000Y-95504000D02*
X81788000Y-95377000D01*
X84709000Y-107950000D02*
X84074000Y-107315000D01*
X40767000Y-160794000D02*
X41414000Y-160794000D01*
X41783000Y-161163000D02*
X41783000Y-164846000D01*
X89154000Y-108712000D02*
X88392000Y-107950000D01*
X47903000Y-161036000D02*
X47903000Y-162651000D01*
X95885000Y-147701000D02*
X94869000Y-146685000D01*
%TO.N,Net-(J14-Pin_3)*%
X49645000Y-155079000D02*
X48768000Y-155956000D01*
X49645000Y-152273000D02*
X49645000Y-155079000D01*
%TO.N,Net-(J14-Pin_1)*%
X44299000Y-155345000D02*
X43688000Y-155956000D01*
X44299000Y-152273000D02*
X44299000Y-155345000D01*
%TO.N,Net-(J15-Pin_3)*%
X79375000Y-155067000D02*
X78486000Y-155956000D01*
X79375000Y-152273000D02*
X79375000Y-155067000D01*
%TO.N,Net-(J15-Pin_1)*%
X74029000Y-152273000D02*
X74029000Y-155333000D01*
X74029000Y-155333000D02*
X73406000Y-155956000D01*
D44*
%TO.N,Net-(J16-Pin_1)*%
X59055000Y-153543000D02*
X58547000Y-154051000D01*
X58547000Y-154051000D02*
X58547000Y-155956000D01*
X59055000Y-152273000D02*
X59055000Y-153543000D01*
D43*
%TO.N,Net-(J16-Pin_3)*%
X64492000Y-155091000D02*
X63627000Y-155956000D01*
X64492000Y-152273000D02*
X64492000Y-155091000D01*
%TO.N,Net-(J17-Pin_3)*%
X94095000Y-152273000D02*
X94095000Y-155079000D01*
X94095000Y-155079000D02*
X93218000Y-155956000D01*
%TO.N,Net-(J17-Pin_1)*%
X88761000Y-155333000D02*
X88138000Y-155956000D01*
X88761000Y-152273000D02*
X88761000Y-155333000D01*
%TO.N,RTSBus*%
X81534000Y-51308000D02*
X74554922Y-51308000D01*
X82454100Y-53847797D02*
X82423000Y-53816697D01*
X74554922Y-51308000D02*
X73279000Y-52583922D01*
D44*
X93472000Y-49911000D02*
X83820000Y-49911000D01*
D43*
X73279000Y-52583922D02*
X73279000Y-76327000D01*
X82423000Y-52197000D02*
X81534000Y-51308000D01*
D44*
X96139000Y-52578000D02*
X93472000Y-49911000D01*
X93472000Y-101219000D02*
X96139000Y-98552000D01*
D43*
X72771000Y-76835000D02*
X72771000Y-77860002D01*
X72771000Y-77860002D02*
X72769001Y-77862001D01*
X82423000Y-53816697D02*
X82423000Y-52197000D01*
X73279000Y-76327000D02*
X72771000Y-76835000D01*
D44*
X83820000Y-49911000D02*
X82423000Y-48514000D01*
X96139000Y-98552000D02*
X96139000Y-52578000D01*
D46*
%TO.N,TX-*%
X68072000Y-74168000D02*
X38035802Y-74168000D01*
X33956000Y-58340000D02*
X32385000Y-58340000D01*
D43*
X30861000Y-57912000D02*
X31289000Y-58340000D01*
D46*
X69119001Y-78511999D02*
X68800803Y-78193801D01*
D44*
X90042797Y-56387797D02*
X93472000Y-59817000D01*
X93472000Y-59817000D02*
X93472000Y-65151000D01*
D46*
X68800803Y-77862001D02*
X68482000Y-77543198D01*
D44*
X86624099Y-56387797D02*
X90042797Y-56387797D01*
D43*
X30861000Y-56515000D02*
X30861000Y-57912000D01*
D46*
X68482000Y-74578000D02*
X68072000Y-74168000D01*
X34798000Y-70930198D02*
X34798000Y-59182000D01*
X68482000Y-77543198D02*
X68482000Y-74578000D01*
X38035802Y-74168000D02*
X34798000Y-70930198D01*
X34798000Y-59182000D02*
X33956000Y-58340000D01*
X68800803Y-78193801D02*
X68800803Y-77862001D01*
D43*
X31289000Y-58340000D02*
X32512000Y-58340000D01*
D44*
%TO.N,DSRBus*%
X95504000Y-93218000D02*
X95504000Y-60833000D01*
D43*
X72771000Y-52451000D02*
X72771000Y-75946000D01*
D44*
X85360896Y-53721000D02*
X85234099Y-53847797D01*
D43*
X85344000Y-53737896D02*
X85344000Y-52070000D01*
X84074000Y-50800000D02*
X74422000Y-50800000D01*
X72263000Y-77856001D02*
X72269000Y-77862001D01*
D44*
X88392000Y-53721000D02*
X85360896Y-53721000D01*
D43*
X85234099Y-53847797D02*
X85344000Y-53737896D01*
X72771000Y-75946000D02*
X72263000Y-76454000D01*
X74422000Y-50800000D02*
X72771000Y-52451000D01*
X85344000Y-52070000D02*
X84074000Y-50800000D01*
X72263000Y-76454000D02*
X72263000Y-77856001D01*
D44*
X95504000Y-60833000D02*
X88392000Y-53721000D01*
X93472000Y-95250000D02*
X95504000Y-93218000D01*
D46*
%TO.N,TX+*%
X68932000Y-74266000D02*
X68355000Y-73689000D01*
D43*
X36195000Y-57197000D02*
X37338000Y-58340000D01*
D44*
X93472000Y-71247000D02*
X93472000Y-68326000D01*
D46*
X36021000Y-58340000D02*
X37465000Y-58340000D01*
D43*
X36195000Y-56515000D02*
X36195000Y-57197000D01*
D46*
X69450801Y-77543803D02*
X69119001Y-77543803D01*
D44*
X91440000Y-66294000D02*
X91440000Y-61468000D01*
D46*
X35248000Y-70743802D02*
X35248000Y-59113000D01*
X35248000Y-59113000D02*
X36021000Y-58340000D01*
D44*
X85876303Y-58420000D02*
X83844100Y-56387797D01*
X93472000Y-68326000D02*
X91440000Y-66294000D01*
D46*
X68355000Y-73689000D02*
X38193198Y-73689000D01*
X38193198Y-73689000D02*
X35248000Y-70743802D01*
X69768999Y-77862001D02*
X69450801Y-77543803D01*
D44*
X91440000Y-61468000D02*
X88392000Y-58420000D01*
D46*
X68932000Y-77356802D02*
X68932000Y-74266000D01*
X69119001Y-77543803D02*
X68932000Y-77356802D01*
D44*
X88392000Y-58420000D02*
X85876303Y-58420000D01*
D43*
%TO.N,CTSBus*%
X73787000Y-52716844D02*
X73787000Y-77844000D01*
D44*
X82423000Y-47244000D02*
X79756000Y-47244000D01*
X96774000Y-52197000D02*
X93726000Y-49149000D01*
X96774000Y-103886000D02*
X96774000Y-52197000D01*
X93472000Y-107188000D02*
X96774000Y-103886000D01*
D43*
X74687844Y-51816000D02*
X73787000Y-52716844D01*
D44*
X93726000Y-49149000D02*
X84328000Y-49149000D01*
X84328000Y-49149000D02*
X82423000Y-47244000D01*
D43*
X78994000Y-51816000D02*
X74687844Y-51816000D01*
X79674100Y-53847797D02*
X79629000Y-53802697D01*
X79629000Y-53802697D02*
X79629000Y-52451000D01*
X73787000Y-77844000D02*
X73768999Y-77862001D01*
X79629000Y-52451000D02*
X78994000Y-51816000D01*
D46*
%TO.N,RX+*%
X43735000Y-58340000D02*
X42418000Y-58340000D01*
D43*
X41644000Y-58408000D02*
X42350000Y-58408000D01*
D44*
X93472000Y-77216000D02*
X90678000Y-74422000D01*
D46*
X70769000Y-75214000D02*
X68707000Y-73152000D01*
D43*
X41148000Y-57912000D02*
X41644000Y-58408000D01*
D46*
X44733000Y-59338000D02*
X43735000Y-58340000D01*
X70769000Y-77862001D02*
X70769000Y-75214000D01*
D44*
X87757000Y-59182000D02*
X83858303Y-59182000D01*
D46*
X68707000Y-73152000D02*
X48703802Y-73152000D01*
D43*
X42350000Y-58408000D02*
X42418000Y-58340000D01*
X41148000Y-56515000D02*
X41148000Y-57912000D01*
D44*
X90678000Y-62103000D02*
X87757000Y-59182000D01*
X90678000Y-74422000D02*
X90678000Y-62103000D01*
D46*
X44733000Y-69181198D02*
X44733000Y-59338000D01*
X48703802Y-73152000D02*
X44733000Y-69181198D01*
D44*
X83858303Y-59182000D02*
X81064100Y-56387797D01*
D46*
%TO.N,RX-*%
X46101000Y-58293000D02*
X45183000Y-59211000D01*
D44*
X89789000Y-62611000D02*
X87249000Y-60071000D01*
X87249000Y-60071000D02*
X81967303Y-60071000D01*
D46*
X47451000Y-58293000D02*
X47498000Y-58340000D01*
X45183000Y-59211000D02*
X45183000Y-68994802D01*
X46101000Y-58293000D02*
X47451000Y-58293000D01*
X68834000Y-72644000D02*
X71268999Y-75078999D01*
X45183000Y-68994802D02*
X48832198Y-72644000D01*
D43*
X47331000Y-58340000D02*
X47498000Y-58340000D01*
D44*
X89789000Y-79629000D02*
X89789000Y-62611000D01*
D46*
X71268999Y-75078999D02*
X71268999Y-77862001D01*
D43*
X46101000Y-57110000D02*
X47331000Y-58340000D01*
D44*
X93472000Y-83312000D02*
X89789000Y-79629000D01*
D43*
X46101000Y-56515000D02*
X46101000Y-57110000D01*
D46*
X48832198Y-72644000D02*
X68834000Y-72644000D01*
D44*
X81967303Y-60071000D02*
X78284100Y-56387797D01*
D43*
%TO.N,RIBus*%
X76894101Y-53018101D02*
X76200000Y-52324000D01*
D44*
X97377200Y-109251800D02*
X97377200Y-51911200D01*
D43*
X76200000Y-52324000D02*
X74930000Y-52324000D01*
D44*
X82169000Y-45847000D02*
X76835000Y-45847000D01*
D43*
X74295000Y-77836002D02*
X74269001Y-77862001D01*
X76894101Y-53847797D02*
X76894101Y-53018101D01*
D44*
X93726000Y-48260000D02*
X84582000Y-48260000D01*
D43*
X74930000Y-52324000D02*
X74295000Y-52959000D01*
D44*
X97377200Y-51911200D02*
X93726000Y-48260000D01*
X84582000Y-48260000D02*
X82169000Y-45847000D01*
X93472000Y-113157000D02*
X97377200Y-109251800D01*
D43*
X74295000Y-52959000D02*
X74295000Y-77836002D01*
%TD*%
M02*
