M48
INCH
T1C0.0079
T2C0.0080
T3C0.0350
T4C0.0390
T5C0.0409
T6C0.0410
T7C0.0512
T8C0.0630
%
G90
G05
T1
X1.215Y-2.225
X1.26Y-6.52
X1.425Y-2.225
X1.57Y-5.995
X1.605Y-6.54
X1.62Y-2.225
X1.65Y-5.995
X1.75Y-6.38
X1.755Y-1.56
X1.765Y-3.0
X1.765Y-3.315
X1.77Y-3.125
X1.77Y-3.53
X1.77Y-5.475
X1.81Y-3.0
X1.81Y-3.125
X1.81Y-3.53
X1.815Y-2.225
X1.815Y-3.315
X1.82Y-3.64
X1.825Y-3.845
X1.85Y-5.95
X1.86Y-3.0
X1.86Y-3.32
X1.865Y-3.125
X1.865Y-3.555
X1.895Y-3.32
X1.9Y-3.125
X1.905Y-3.0
X1.91Y-4.86
X1.945Y-6.38
X1.955Y-3.125
X1.96Y-3.205
X1.96Y-5.2
X1.99Y-3.125
X1.99Y-3.205
X2.04Y-3.295
X2.04Y-3.4
X2.04Y-3.455
X2.07Y-3.86
X2.07Y-3.89
X2.075Y-2.99
X2.075Y-3.02
X2.075Y-5.895
X2.09Y-5.94
X2.105Y-4.77
X2.105Y-4.805
X2.11Y-1.98
X2.11Y-2.02
X2.115Y-3.86
X2.115Y-3.89
X2.12Y-1.935
X2.12Y-2.065
X2.12Y-2.99
X2.12Y-3.02
X2.12Y-5.235
X2.145Y-1.66
X2.15Y-5.995
X2.155Y-2.39
X2.155Y-6.325
X2.16Y-3.86
X2.16Y-3.89
X2.165Y-2.99
X2.165Y-3.02
X2.17Y-5.15
X2.185Y-3.215
X2.185Y-3.32
X2.19Y-1.985
X2.19Y-2.015
X2.19Y-3.66
X2.205Y-5.15
X2.23Y-5.06
X2.23Y-5.255
X2.23Y-5.995
X2.235Y-6.325
X2.25Y-1.935
X2.25Y-2.065
X2.26Y-5.22
X2.265Y-4.77
X2.265Y-4.8
X2.27Y-3.86
X2.27Y-3.89
X2.28Y-2.99
X2.28Y-3.02
X2.305Y-5.22
X2.305Y-5.31
X2.315Y-3.86
X2.315Y-3.89
X2.32Y-2.99
X2.32Y-3.02
X2.32Y-4.74
X2.34Y-1.565
X2.35Y-4.96
X2.36Y-2.99
X2.36Y-3.02
X2.36Y-3.86
X2.36Y-3.89
X2.36Y-5.11
X2.36Y-5.31
X2.375Y-5.93
X2.385Y-1.925
X2.385Y-2.07
X2.42Y-4.975
X2.42Y-5.31
X2.425Y-2.0
X2.435Y-2.425
X2.435Y-5.955
X2.435Y-6.285
X2.48Y-3.12
X2.48Y-3.16
X2.48Y-3.54
X2.5281Y-2.085
X2.535Y-1.91
X2.535Y-3.38
X2.535Y-3.42
X2.5365Y-3.04
X2.5365Y-3.07
X2.56Y-5.145
X2.565Y-1.565
X2.575Y-3.04
X2.575Y-3.07
X2.575Y-3.38
X2.575Y-3.42
X2.585Y-2.33
X2.585Y-3.895
X2.59Y-4.765
X2.59Y-4.805
X2.605Y-4.055
X2.615Y-4.96
X2.67Y-3.765
X2.67Y-3.81
X2.67Y-3.845
X2.675Y-4.765
X2.675Y-4.805
X2.7Y-1.595
X2.7Y-3.6976
X2.7Y-3.89
X2.7148Y-3.7648
X2.72Y-3.465
X2.735Y-3.615
X2.74Y-5.995
X2.74Y-6.325
X2.76Y-5.06
X2.765Y-1.585
X2.765Y-3.645
X2.785Y-4.85
X2.805Y-5.16
X2.805Y-5.21
X2.82Y-3.44
X2.82Y-3.48
X2.82Y-3.52
X2.82Y-5.995
X2.82Y-6.325
X2.845Y-6.165
X2.865Y-3.4
X2.865Y-3.44
X2.8662Y-5.0212
X2.8662Y-5.0612
X2.875Y-3.645
X2.875Y-3.775
X2.875Y-3.925
X2.8762Y-4.8912
X2.8762Y-4.9212
X2.9Y-3.36
X2.9Y-3.395
X2.93Y-3.89
X2.945Y-3.775
X2.95Y-3.42
X2.95Y-3.645
X2.9562Y-5.0812
X2.97Y-3.89
X2.98Y-3.59
X2.99Y-3.775
X3.0081Y-2.985
X3.0081Y-3.025
X3.02Y-5.945
X3.02Y-6.285
X3.025Y-1.805
X3.025Y-3.42
X3.0362Y-4.8912
X3.0362Y-4.9212
X3.04Y-3.16
X3.04Y-3.235
X3.04Y-3.875
X3.0462Y-4.9862
X3.0481Y-2.985
X3.0481Y-3.025
X3.08Y-3.935
X3.125Y-3.62
X3.135Y-3.58
X3.14Y-1.86
X3.15Y-3.815
X3.15Y-4.25
X3.16Y-4.1
X3.165Y-3.6
X3.215Y-4.73
X3.22Y-3.755
X3.225Y-3.57
X3.235Y-4.605
X3.245Y-1.91
X3.255Y-4.7
X3.265Y-2.985
X3.32Y-5.995
X3.32Y-6.325
X3.4Y-5.995
X3.4Y-6.325
X3.47Y-2.525
X3.6Y-5.945
X3.6Y-6.285
T2
X2.7537Y-3.1335
X2.7537Y-3.1796
X2.7537Y-3.2257
X2.7893Y-3.0979
X2.7893Y-3.1335
X2.7893Y-3.1796
X2.7893Y-3.2257
X2.7893Y-3.2613
X2.8354Y-3.0979
X2.8354Y-3.1335
X2.8354Y-3.1786
X2.8354Y-3.2257
X2.8354Y-3.2613
X2.8815Y-3.0979
X2.8815Y-3.1335
X2.8815Y-3.1796
X2.8815Y-3.2257
X2.8815Y-3.2613
X2.9171Y-3.1335
X2.9171Y-3.1796
X2.9171Y-3.2257
T3
X1.34Y-6.205
X1.34Y-6.305
X1.34Y-6.405
X1.72Y-6.14
X1.72Y-6.4695
X1.82Y-6.14
X1.82Y-6.4695
X1.92Y-6.14
X1.92Y-6.4695
X2.0895Y-2.495
X2.0895Y-2.595
X2.0895Y-2.695
X2.24Y-1.8
X2.24Y-2.2
X2.305Y-6.14
X2.305Y-6.4695
X2.34Y-1.8
X2.34Y-2.2
X2.405Y-2.495
X2.405Y-2.595
X2.405Y-2.695
X2.405Y-6.14
X2.405Y-6.4695
X2.44Y-1.8
X2.44Y-2.2
X2.505Y-6.14
X2.505Y-6.4695
X2.72Y-2.495
X2.72Y-2.595
X2.72Y-2.695
X2.89Y-6.14
X2.89Y-6.4695
X2.99Y-6.14
X2.99Y-6.4695
X3.035Y-2.495
X3.035Y-2.595
X3.035Y-2.695
X3.09Y-6.14
X3.09Y-6.4695
X3.47Y-6.14
X3.47Y-6.4695
X3.57Y-6.14
X3.57Y-6.4695
X3.67Y-6.14
X3.67Y-6.4695
T4
X2.9726Y-2.22
X3.0273Y-2.12
X3.0821Y-2.22
X3.1368Y-2.12
X3.1915Y-2.22
X3.2462Y-2.12
X3.3009Y-2.22
X3.3557Y-2.12
X3.4104Y-2.22
T5
X1.5645Y-3.1
X1.5645Y-3.2
X1.5645Y-3.3
X1.5645Y-3.4
X1.5645Y-3.5
X1.5645Y-3.6
X1.5645Y-3.7
X1.5645Y-3.8
X1.5645Y-4.0
X1.5645Y-4.1
X1.5645Y-4.2
X1.5645Y-4.3
X1.5645Y-4.4
X1.5645Y-4.5
X1.5645Y-4.6
X1.5645Y-4.7
X1.5645Y-4.8
X1.5645Y-4.9
X1.5645Y-5.0
X1.5645Y-5.1
X1.5645Y-5.2
X1.5645Y-5.3
X1.5645Y-5.4
X1.6645Y-3.1
X1.6645Y-3.2
X1.6645Y-3.3
X1.6645Y-3.4
X1.6645Y-3.5
X1.6645Y-3.6
X1.6645Y-3.7
X1.6645Y-3.8
X1.6645Y-4.0
X1.6645Y-4.1
X1.6645Y-4.2
X1.6645Y-4.3
X1.6645Y-4.4
X1.6645Y-4.5
X1.6645Y-4.6
X1.6645Y-4.7
X1.6645Y-4.8
X1.6645Y-4.9
X1.6645Y-5.0
X1.6645Y-5.1
X1.6645Y-5.2
X1.6645Y-5.3
X1.6645Y-5.4
X3.3645Y-3.7992
X3.3645Y-3.8992
X3.3645Y-3.9992
X3.3645Y-4.0992
X3.3645Y-4.1992
X3.3645Y-4.2992
X3.3645Y-4.3992
X3.3645Y-4.4992
X3.3645Y-4.5992
X3.3645Y-4.6992
X3.3645Y-4.7992
X3.3645Y-4.8992
X3.3645Y-4.9992
X3.3645Y-5.0992
X3.3645Y-5.1992
X3.3645Y-5.2992
X3.3645Y-5.3992
X3.4645Y-3.7992
X3.4645Y-3.8992
X3.4645Y-3.9992
X3.4645Y-4.0992
X3.4645Y-4.1992
X3.4645Y-4.2992
X3.4645Y-4.3992
X3.4645Y-4.4992
X3.4645Y-4.5992
X3.4645Y-4.6992
X3.4645Y-4.7992
X3.4645Y-4.8992
X3.4645Y-4.9992
X3.4645Y-5.0992
X3.4645Y-5.1992
X3.4645Y-5.2992
X3.4645Y-5.3992
T6
X3.3645Y-2.74
X3.3645Y-2.84
X3.3645Y-2.94
X3.3645Y-3.04
X3.3645Y-3.14
X3.3645Y-3.24
X3.3645Y-3.34
X3.3645Y-3.44
X3.3645Y-3.54
X3.3645Y-3.64
X3.4645Y-2.74
X3.4645Y-2.84
X3.4645Y-2.94
X3.4645Y-3.04
X3.4645Y-3.14
X3.4645Y-3.24
X3.4645Y-3.34
X3.4645Y-3.44
X3.4645Y-3.54
X3.4645Y-3.64
T7
X1.36Y-1.735
X1.36Y-2.0578
X1.5569Y-1.735
X1.5569Y-2.0578
X1.7537Y-1.735
X1.7537Y-2.0578
X1.9506Y-1.735
X1.9506Y-2.0578
T8
X1.28Y-2.43
X1.345Y-3.025
X1.345Y-3.26
X1.345Y-3.495
X1.345Y-3.735
X1.345Y-3.975
X1.345Y-4.21
X1.345Y-4.445
X1.345Y-4.69
X1.345Y-5.165
X1.345Y-5.4
X1.345Y-5.635
X1.345Y-5.87
X1.48Y-2.425
X1.68Y-2.43
X1.87Y-2.435
X3.68Y-2.565
X3.68Y-2.8
X3.68Y-3.035
X3.68Y-3.27
X3.68Y-3.505
X3.68Y-3.75
X3.68Y-3.985
X3.68Y-4.22
X3.68Y-4.455
X3.68Y-4.69
X3.68Y-5.1625
X3.68Y-5.3975
X3.68Y-5.6325
X3.68Y-5.8675
M30
